<?xml version="1.0" standalone="no"?>
<!DOCTYPE svg PUBLIC "-//W3C//DTD SVG 1.1//EN" "http://www.w3.org/Graphics/SVG/1.1/DTD/svg11.dtd" >
<svg xmlns="http://www.w3.org/2000/svg" xmlns:xlink="http://www.w3.org/1999/xlink" version="1.1">
<metadata>
Created by FontForge 20170731 at Mon Jan  8 21:49:59 2001
 By Aleksey,,,
Copyright (c) David Buck (eng.) &#38; Dubina Nikolay (rus.), 2001. All rights reserved.
</metadata>
<defs>
<font id="DSGoose" horiz-adv-x="503" >
  <font-face 
    font-family="DS Goose"
    font-weight="400"
    font-stretch="normal"
    units-per-em="1000"
    panose-1="2 0 5 6 3 0 0 2 0 3"
    ascent="800"
    descent="-200"
    x-height="446"
    cap-height="686"
    bbox="9 -368 959 923"
    underline-thickness="50"
    underline-position="-175"
    unicode-range="U+0020-2212"
  />
<missing-glyph horiz-adv-x="500" 
 />
    <glyph glyph-name=".notdef" horiz-adv-x="500" 
 />
    <glyph glyph-name=".null" horiz-adv-x="0" 
 />
    <glyph glyph-name="nonmarkingreturn" horiz-adv-x="500" 
 />
    <glyph glyph-name="space" unicode=" " horiz-adv-x="500" 
 />
    <glyph glyph-name="exclam" unicode="!" horiz-adv-x="169" 
d="M10 682l28 -549l94 12l27 548zM35 -14l115 20l-5 91l-115 -2z" />
    <glyph glyph-name="quotedbl" unicode="&#x22;" horiz-adv-x="363" 
d="M122 427q28 23 43.5 66t15.5 87q0 27 -6 52t-18.5 44.5t-31.5 31.5t-45 12q-15 0 -28 -7t-22 -18.5t-14 -24.5t-5 -25q0 -26 17 -47.5t43 -23.5q-1 -28 -11.5 -54.5t-26.5 -46.5zM295 419q29 32 43 68.5t14 73.5q0 21 -6 45t-18 44.5t-31 33.5t-44 13q-14 0 -26 -6.5
t-21 -17t-14 -23t-5 -23.5q0 -26 16 -46.5t42 -22.5q-1 -26 -11 -51t-26 -44z" />
    <glyph glyph-name="dollar" unicode="$" horiz-adv-x="520" 
d="M253 735l-4 -75q-32 -1 -59.5 -14t-47.5 -34.5t-31.5 -49.5t-11.5 -58q0 -51 35 -98t109 -72l-2 -144q-29 25 -54 56.5t-45 47.5l-132 -74l58 -82l63 31q17 -35 45.5 -58.5t63.5 -37.5l-2 -84l100 -2l1 68q34 0 65 11.5t54.5 31t37.5 47t14 60.5q0 31 -11.5 61.5
t-33.5 56t-52.5 45t-68.5 27.5l2 127q12 -7 24 -13t23.5 -13t22 -16.5t19.5 -23.5l74 71q-45 45 -84.5 72t-75.5 42l4 90zM342 277q22 -14 31.5 -27.5t9.5 -27.5q0 -16 -11.5 -29.5t-30.5 -23.5zM244 447q-30 18 -30 49q0 14 8 28t24 23z" />
    <glyph glyph-name="quotesingle" unicode="'" horiz-adv-x="191" 
d="M122 427q30 35 44.5 73.5t14.5 76.5q0 21 -6 46t-18.5 46.5t-31.5 36t-45 14.5q-15 0 -28 -7t-22 -18.5t-14 -24.5t-5 -25q0 -26 17 -47.5t43 -23.5q-1 -28 -11.5 -54.5t-26.5 -46.5z" />
    <glyph glyph-name="plus" unicode="+" 
d="M195 442v-139h-147v-81h147v-151h81v151h143v81h-143v139h-81z" />
    <glyph glyph-name="comma" unicode="," horiz-adv-x="191" 
d="M122 -145q30 35 44.5 73.5t14.5 76.5q0 21 -6 46t-18.5 46.5t-31.5 36t-45 14.5q-15 0 -28 -7t-22 -18.5t-14 -24.5t-5 -25q0 -26 17 -47.5t43 -23.5q-1 -28 -11.5 -54.5t-26.5 -46.5z" />
    <glyph glyph-name="hyphen" unicode="-" 
d="M48 222h371v81h-371v-81z" />
    <glyph glyph-name="hyphen" unicode="&#xad;" 
d="M48 222h371v81h-371v-81z" />
    <glyph glyph-name="period" unicode="." horiz-adv-x="172" 
d="M127 18q19 15 27 30t8 29t-7 27t-18 22.5t-25 15t-29 5.5t-28 -7t-23 -17.5t-15.5 -23.5t-5.5 -26q0 -15 5.5 -28t15 -23.5t22 -16.5t26.5 -6q24 0 47 19z" />
    <glyph glyph-name="slash" unicode="/" horiz-adv-x="537" 
d="M415 700l-405 -646l107 -27l410 618z" />
    <glyph glyph-name="zero" unicode="0" horiz-adv-x="554" 
d="M192 710q-47 -17 -81 -50.5t-56.5 -78.5t-33 -98t-10.5 -108q0 -69 16.5 -137t48.5 -121t78 -86t106 -33q71 0 124 32.5t88.5 83.5t53.5 114t18 125q0 69 -18.5 135.5t-53.5 118t-86 83.5t-116 32q-38 0 -78 -12zM232 628q3 1 6 1h7q25 0 50 -14t47.5 -38t42.5 -56
t34.5 -68.5t23 -75.5t8.5 -77q0 -34 -10 -69.5t-31 -65t-53 -48t-76 -18.5q-37 0 -65.5 26.5t-47.5 69t-29 95.5t-10 107q0 42 6.5 82t19 71.5t32 52t45.5 25.5z" />
    <glyph glyph-name="one" unicode="1" horiz-adv-x="280" 
d="M52 9l218 2l-7 110h-60l10 571l-104 -6l-99 -56l42 -92l57 29l-3 -459l-54 4v-103z" />
    <glyph glyph-name="two" unicode="2" horiz-adv-x="456" 
d="M103 505q3 33 30 51.5t59 21t58 -10.5t26 -43q0 -14 -11 -38q-30 -61 -59.5 -111.5t-58 -93.5t-55 -80t-50.5 -71l14 -117l390 -6v186l-110 -4l6 -100l-176 14q27 47 63 98t67.5 105t53.5 109.5t22 110.5q0 76 -45 118.5t-120 42.5q-36 0 -71 -10.5t-63 -30t-45.5 -47
t-17.5 -62.5q0 -3 0.5 -6t0.5 -6z" />
    <glyph glyph-name="three" unicode="3" horiz-adv-x="465" 
d="M63 545q35 22 75 36.5t75 14.5q36 0 60.5 -19t24.5 -65q0 -23 -20 -38.5t-49.5 -25t-62 -14t-57.5 -5.5l11 -99q11 2 22.5 3.5t23.5 1.5q31 0 60 -8t51.5 -23.5t36.5 -37t14 -48.5q0 -47 -29 -71t-68 -24q-20 0 -39 6t-35.5 18t-29 30.5t-18.5 43.5l-98 -24
q0 -44 20 -77.5t51.5 -56t72 -33.5t81.5 -11q44 0 83.5 14.5t69.5 40t47.5 60.5t17.5 75q0 57 -30.5 109t-85.5 83q42 27 61 59.5t19 66.5q0 33 -17 62t-44.5 50.5t-62.5 33.5t-72 12q-31 0 -63 -5t-59.5 -13t-47.5 -18.5t-27 -22.5z" />
    <glyph glyph-name="four" unicode="4" horiz-adv-x="539" 
d="M212 17l245 10l9 89l-69 1v120h132v100h-132l14 220h-114v-220l-129 -11l14 327l-158 24l-14 -98l70 -8l-2 -339l219 5l5 -125l-85 -18z" />
    <glyph glyph-name="five" unicode="5" horiz-adv-x="471" 
d="M11 197q0 -45 20 -78.5t51.5 -55.5t72 -33t81.5 -11q43 0 83.5 14.5t71.5 39.5t50 57.5t19 68.5q0 49 -25.5 93.5t-66 78t-91 53t-99.5 19.5q-26 0 -53 -6l13 173h293v100h-389l-14 -357l61 -35q18 3 45 3q34 0 73.5 -6.5t73.5 -21t56.5 -38t22.5 -57.5q0 -21 -9 -36
t-23.5 -25.5t-33.5 -15.5t-39 -5q-23 0 -46.5 6.5t-44 19.5t-35 33t-20.5 46z" />
    <glyph glyph-name="six" unicode="6" horiz-adv-x="478" 
d="M376 651q-73 -7 -139 -40.5t-116.5 -85t-80 -116t-29.5 -132.5q0 -56 18 -106.5t53.5 -88t87.5 -59.5t121 -22q88 0 132 49t44 137q0 42 -12 82t-40 70.5t-75 49t-117 18.5h-25q-12 0 -26 -2q6 25 30 51t55.5 46t66.5 33t63 13zM369 166q-15 -39 -39 -55.5t-50 -16.5
q-27 0 -53.5 13.5t-48 35.5t-35 48t-13.5 52q0 29 22 43t60 14q26 0 54.5 -7t52 -20.5t39 -33.5t15.5 -46q0 -6 -1 -13t-3 -14z" />
    <glyph glyph-name="seven" unicode="7" horiz-adv-x="473" 
d="M94 477l19 37l248 32l-7 -72l-344 -476l179 -1l271 452l3 194l-453 -7l8 -169z" />
    <glyph glyph-name="eight" unicode="8" horiz-adv-x="540" 
d="M119 416q-57 -50 -83 -102.5t-26 -103.5q0 -45 19 -85t52.5 -69.5t80.5 -47t103 -17.5q60 0 108.5 19t83.5 51.5t54 75.5t19 91q0 52 -23 102t-71 89q29 32 42 65t13 65q0 38 -17 72t-47 59.5t-72 40.5t-92 15q-44 0 -80 -15t-61.5 -40.5t-40 -60t-14.5 -73.5
q0 -35 12.5 -68.5t39.5 -62.5zM416 246q1 -8 1 -15v-13q0 -39 -12 -67.5t-31.5 -47t-45 -27.5t-52.5 -9q-29 0 -57.5 10t-51 28.5t-36 45.5t-13.5 61q0 30 15.5 53.5t40 40t55 25.5t61.5 9q23 0 44.5 -5.5t39 -17t28.5 -29t14 -42.5zM370 550l1 -8q0 -18 -10 -33t-25.5 -25
t-35.5 -15.5t-40 -5.5q-49 0 -71 27t-22 73q0 23 7.5 39.5t20 27.5t28.5 16t33 5q20 0 40.5 -7t37 -20t26.5 -31.5t10 -42.5z" />
    <glyph glyph-name="nine" unicode="9" horiz-adv-x="486" 
d="M80 3q73 7 144 38.5t127 80.5t90.5 111.5t34.5 131.5q0 58 -19.5 110.5t-56.5 92.5t-91 63.5t-123 23.5q-85 0 -130.5 -47t-45.5 -133q0 -42 11.5 -83t38.5 -74t70.5 -53t106.5 -20q44 0 93 10q-4 -17 -21 -35t-42.5 -34.5t-55.5 -31.5t-60 -26t-57 -17.5t-46 -6.5z
M356 423q-14 -45 -40 -64.5t-56 -19.5q-23 0 -47.5 10.5t-45.5 28t-34.5 40t-13.5 46.5q0 21 9.5 36.5t25 26t36.5 15.5t45 5q23 0 45.5 -5.5t40.5 -17t29 -29t11 -40.5q0 -14 -5 -32z" />
    <glyph glyph-name="colon" unicode=":" horiz-adv-x="172" 
d="M131 403q17 15 23.5 29t6.5 28q0 15 -7 27.5t-18 21.5t-25 14.5t-29 5.5q-12 0 -24 -4.5t-21 -13.5q-26 -26 -26 -57q0 -15 5.5 -28t15 -23t22.5 -16t27 -6q12 0 25 5t25 17zM130 135q17 15 23.5 29t6.5 28t-7 26.5t-18 21.5t-25 14.5t-29 5.5q-12 0 -23.5 -4t-21.5 -13
q-26 -26 -26 -57q0 -15 5.5 -28t15 -23t22.5 -16t27 -6q12 0 25 5t25 17z" />
    <glyph glyph-name="semicolon" unicode=";" horiz-adv-x="199" 
d="M130 -145q30 35 44.5 73.5t14.5 76.5q0 48 -23 91q-12 21 -33.5 36.5t-44.5 15.5q-19 0 -32 -9q-20 -14 -28.5 -31.5t-8.5 -34.5q0 -26 17 -47.5t43 -23.5q-1 -28 -11.5 -54.5t-26.5 -46.5zM130 361q17 15 23.5 29t6.5 28q0 15 -7 27.5t-18 21.5t-25 14.5t-29 5.5
q-12 0 -24 -4.5t-21 -13.5q-26 -26 -26 -57q0 -15 5.5 -28t15 -23t22.5 -16t27 -6q12 0 25 5t25 17z" />
    <glyph glyph-name="equal" unicode="=" 
d="M48 222h371v81h-371v-81zM48 342h371v81h-371v-81z" />
    <glyph glyph-name="question" unicode="?" horiz-adv-x="456" 
d="M104 503q7 18 21.5 33.5t33 27t39.5 18t41 6.5q22 0 41.5 -8.5t32.5 -27.5q17 -24 17 -42q0 -16 -11.5 -27t-29 -21.5t-39 -21.5t-41.5 -27q-11 -8 -19.5 -17.5t-14.5 -23t-9 -34t-3 -51.5q0 -39 6 -100l115 -5l-23 157q34 9 67.5 26t59 39t41.5 49.5t16 57.5
q0 23 -10 46.5t-33 48.5q-48 51 -93.5 73.5t-88.5 22.5q-37 0 -70.5 -14.5t-60.5 -40t-47.5 -59t-31.5 -72.5zM266 28q17 15 23.5 29t6.5 28q0 15 -7 27.5t-18 21.5t-25 14.5t-29 5.5q-12 0 -24 -4.5t-21 -13.5q-26 -26 -26 -57q0 -15 5.5 -28t15 -23t22.5 -16t27 -6
q12 0 25 5t25 17z" />
    <glyph glyph-name="at" unicode="@" horiz-adv-x="684" 
d="M571 117q-38 -14 -79.5 -22t-84.5 -8q-55 0 -107 15t-92.5 49.5t-65 90.5t-24.5 137q0 49 22.5 87.5t58 65.5t80.5 41t90 14q38 0 73.5 -11t62.5 -33.5t43.5 -57t16.5 -82.5q0 -29 -6.5 -61.5t-20.5 -70.5q-5 -14 -18 -26.5t-25 -12.5q-14 0 -19 19l23 184l-87 18
l-11 -27q-23 8 -43 11.5t-37 3.5q-33 0 -56.5 -11.5t-38.5 -30t-22.5 -43t-7.5 -49.5q0 -28 8.5 -55.5t25 -49.5t40.5 -35.5t54 -13.5q19 0 39.5 5.5t43.5 18.5q19 -17 44 -25t52 -8q31 0 60 11t47 32q33 38 48.5 85t15.5 96t-14.5 97.5t-42.5 88t-68 68t-91 37.5
q-26 5 -51 7.5t-48 2.5q-87 0 -152.5 -29.5t-109 -78t-65 -110t-21.5 -125.5q0 -58 18 -113t53 -99.5t88 -74t124 -36.5q36 -3 74 -3q69 0 132.5 10t108.5 28zM336 227q-2 -1 -8 -1q-10 0 -20 8t-18.5 20t-14 27.5t-5.5 30.5q0 16 7.5 29.5t24.5 21.5q10 5 23 5
q27 0 46 -22.5t19 -50.5q0 -20 -12.5 -38.5t-41.5 -29.5z" />
    <glyph glyph-name="A" unicode="A" horiz-adv-x="548" 
d="M90 603l72 5l-152 -592l126 -7l42 209l164 6l41 -227l155 3l-233 710l-215 -1v-106zM260 537l71 -216l-137 -2z" />
    <glyph glyph-name="B" unicode="B" horiz-adv-x="414" 
d="M10 4q22 -1 47 -2t53 -1q33 0 67.5 2.5t66 9t58.5 18.5t45 32q27 29 42 68.5t15 84.5q0 53 -24 104.5t-78 88.5q38 35 55.5 69t17.5 65q0 43 -28.5 79.5t-74 63t-102 41.5t-112.5 15q-24 0 -48 -3v-735zM117 359q14 2 26 3.5t24 1.5q37 0 64 -11t45 -29.5t27 -42t9 -47.5
q0 -26 -9.5 -50.5t-28.5 -43.5t-47 -31t-65 -12q-24 0 -52 6zM111 638h21q63 0 99.5 -17t36.5 -64q0 -49 -36.5 -75.5t-99.5 -26.5h-14q-6 0 -14 1z" />
    <glyph glyph-name="C" unicode="C" horiz-adv-x="554" 
d="M532 491q-50 103 -110.5 147.5t-123.5 44.5q-56 0 -107.5 -30t-91.5 -80.5t-64 -115t-24 -133.5q0 -52 18.5 -107.5t53 -101.5t83 -75.5t108.5 -29.5q37 0 74.5 10.5t72.5 28.5t66 42.5t57 51.5l-62 83q-39 -42 -85.5 -70.5t-94.5 -28.5q-34 0 -64.5 19.5t-53 49.5
t-36 67.5t-13.5 73.5q0 43 13.5 83t36.5 71t53.5 49.5t64.5 18.5q32 0 66 -20t66 -66z" />
    <glyph glyph-name="D" unicode="D" horiz-adv-x="565" 
d="M13 574l97 1l4 -474l-104 9l17 -110h97q113 0 194 26.5t133.5 70.5t77.5 101t25 117q0 66 -28 130.5t-81.5 116t-129.5 83t-172 31.5l-130 8v-110zM215 560q56 -5 99 -26.5t72 -54.5t43.5 -73.5t14.5 -82.5q0 -41 -14 -79.5t-42.5 -69t-72 -50.5t-101.5 -23z" />
    <glyph glyph-name="E" unicode="E" horiz-adv-x="545" 
d="M14 -10l520 15l1 175l-98 22l-19 -101l-270 -7l11 240l196 7l8 104h-202l1 154h344v100l-476 -1l18 -607l-38 -1z" />
    <glyph glyph-name="F" unicode="F" horiz-adv-x="517" 
d="M16 601h34l5 -539h-45l9 -92l199 -1l-1 98h-58l-3 230l298 3l5 115l-291 -8l-9 196l348 -10v109l-491 -1v-100z" />
    <glyph glyph-name="G" unicode="G" horiz-adv-x="574" 
d="M541 610q-57 49 -112 71t-106 22q-67 0 -124 -32t-99 -85t-65.5 -120.5t-23.5 -138.5q0 -60 21.5 -120.5t61 -109t95 -79t123.5 -30.5q47 0 91 16t78 46.5t55.5 75.5t23.5 102l4 113l-276 13l9 -127l147 13q-9 -70 -43.5 -106.5t-82.5 -36.5q-43 0 -75.5 17.5t-54.5 47.5
t-33.5 70t-11.5 85q0 48 11 97t33.5 88.5t55.5 64t77 24.5q21 0 36 -4.5t29.5 -13t30 -19t36.5 -22.5z" />
    <glyph glyph-name="H" unicode="H" horiz-adv-x="492" 
d="M360 687l-2 -292l-167 -18l-8 314l-169 -20l-4 -128l78 11l12 -572l109 9l-3 286l165 1l5 -280l106 -2l-15 690z" />
    <glyph glyph-name="I" unicode="I" horiz-adv-x="296" 
d="M10 594h84l-5 -481l-71 -8l16 -98l246 8v100h-91l5 479l92 3l-4 100l-272 -3v-100z" />
    <glyph glyph-name="J" unicode="J" horiz-adv-x="469" 
d="M28 302q-2 -12 -3.5 -24t-1.5 -24q0 -52 19.5 -97t51 -78.5t71 -52.5t80.5 -19q56 0 93 34t58.5 85.5t30.5 111t9 110.5q0 72 -4.5 143.5t0.5 142.5l27 1l-4 100l-445 -14v-126l312 34q5 -80 6.5 -141t1.5 -108q0 -74 -2 -122.5t-11.5 -77t-29.5 -40.5t-56 -12
q-21 0 -40.5 13t-34 35t-23 51.5t-8.5 62.5v13t1 13z" />
    <glyph glyph-name="K" unicode="K" horiz-adv-x="618" 
d="M273 350q7 -27 14.5 -62t17.5 -73t23.5 -75t32.5 -68t45.5 -52t61.5 -27q6 -2 12 -2h12q31 0 53.5 15.5t36 40.5t20 55t6.5 59l-94 34q-4 -7 -6 -23.5t-5 -34t-7 -31t-11 -13.5q-1 0 -5 2q-37 25 -53.5 69t-25.5 92t-18 93.5t-30 72.5h-2l218 221l-72 70l-296 -293l8 298
l-199 -10v-100l97 2l-30 -606l100 -8l19 305z" />
    <glyph glyph-name="L" unicode="L" horiz-adv-x="492" 
d="M15 11l467 7l-21 130l-300 -18l29 591l-171 -3l2 -107l53 6l-17 -487l-47 7z" />
    <glyph glyph-name="M" unicode="M" horiz-adv-x="799" 
d="M10 556l114 -2v-472l-51 4v-113l185 -7l-9 120h-25l10 394l135 -334h-27v-100l178 2v100l-40 -2l153 272l14 -317l-25 1l-6 -100l173 8v100l-42 -2l-20 562l-108 -14l-200 -339l-122 382l-279 14z" />
    <glyph glyph-name="N" unicode="N" horiz-adv-x="661" 
d="M24 -36h181v100h-29v416l249 -468l118 14l31 570h77v100l-239 -5l12 -100l50 4l-25 -399l-204 479l-235 -3v-100l65 2l1 -510h-52v-100z" />
    <glyph glyph-name="O" unicode="O" horiz-adv-x="554" 
d="M192 11q40 -12 78 -12q65 0 116 32t86 83.5t53.5 118t18.5 135.5q0 62 -18 125t-53.5 114t-88.5 83.5t-124 32.5q-60 0 -106 -32.5t-78 -85.5t-48.5 -120.5t-16.5 -137.5q0 -55 10.5 -108t33 -98t56.5 -79t81 -51zM232 93q-26 4 -45.5 25t-32 52.5t-19 71.5t-6.5 82
q0 54 10 107t29 95.5t47.5 69t65.5 26.5q44 0 76 -18.5t53 -48t31 -65t10 -69.5q0 -57 -18 -115.5t-47.5 -106t-66.5 -77.5t-74 -30h-7q-3 0 -6 1z" />
    <glyph glyph-name="P" unicode="P" horiz-adv-x="462" 
d="M10 577l67 10l-7 -583l125 -4l-18 256q71 4 123 23.5t85.5 48t50 64t16.5 72.5q0 40 -18.5 78.5t-54 69.5t-87.5 51t-119 22l-158 5zM177 592q18 3 34 3q32 0 56 -10.5t40 -27.5t24 -39t8 -46q0 -23 -7.5 -44t-23 -37t-38.5 -26t-53 -10q-21 0 -40 4v233z" />
    <glyph glyph-name="Q" unicode="Q" horiz-adv-x="587" 
d="M469 9v-29q0 -21 -6 -37.5t-29 -16.5q-8 1 -12.5 13.5t-6.5 30t-2.5 36.5t-1.5 33q37 25 64 61.5t45 80.5t27 92.5t9 98.5q0 56 -13 117t-41.5 112t-74.5 84.5t-112 33.5q-74 0 -130.5 -30t-95.5 -80t-59 -114t-20 -132t18.5 -133.5t53 -116.5t85 -82.5t113.5 -31.5
q17 0 35 3q-2 -12 -3.5 -22.5t-1.5 -20.5q0 -33 11.5 -57t30 -40.5t42.5 -24.5t49 -8t49 8t43 24t30.5 40t11.5 56q0 22 -8 52h-100zM198 225q34 20 58 20q17 0 28 -9.5t17 -25.5t8 -36t2 -41v-21t-1 -20h-8q-35 0 -68 28t-58.5 72.5t-41.5 100t-16 109.5q0 38 10.5 76
t33 69t57.5 50t85 19q34 0 59.5 -20.5t41.5 -54.5t24 -78t8 -91t-7.5 -92.5t-21.5 -83.5q3 15 3 30q0 31 -11.5 54t-30 38t-43.5 22t-52 7q-26 0 -51.5 -6t-48.5 -18z" />
    <glyph glyph-name="R" unicode="R" horiz-adv-x="521" 
d="M10 577l67 10v-581l118 -6l-18 256q10 0 19.5 0.5t18.5 1.5q-1 -6 -1 -13v-14q0 -36 9.5 -77t28 -76t46.5 -58t64 -23q38 0 66 19.5t46 51t27 70.5t9 78v16l-98 20q-3 -28 -4 -54t-5 -46.5t-13.5 -32.5t-28.5 -12q-10 0 -19.5 15t-17 37t-12 46.5t-4.5 43.5q0 22 6 30
q74 27 109 76.5t35 105.5q0 42 -19.5 83.5t-57 74t-92 52.5t-124.5 20h-150zM177 592q19 4 39 4q31 0 54 -10.5t38.5 -27t23 -38.5t7.5 -44q0 -23 -8 -44.5t-23.5 -38.5t-39 -27.5t-54.5 -10.5q-8 0 -17.5 1t-19.5 3v233z" />
    <glyph glyph-name="S" unicode="S" horiz-adv-x="496" 
d="M38 152l58 39q8 -33 27 -64t46 -55.5t60 -39t69 -14.5q37 0 67.5 14.5t52.5 37t33.5 48.5t11.5 49q0 25 -8.5 51.5t-22.5 51.5t-33 47.5t-40 41.5q-21 18 -53 39t-62 44.5t-51.5 47.5t-21.5 48q0 28 24.5 41t56.5 13q41 0 86.5 -18.5t77.5 -54.5l70 70q-17 24 -42.5 44
t-56 34.5t-64.5 22t-67 7.5q-41 0 -77 -14t-63.5 -39t-43.5 -59.5t-16 -75.5q0 -46 26.5 -77t63 -54.5t74.5 -42t60 -39.5q38 -37 54.5 -66.5t16.5 -51.5t-14 -34t-35 -12q-18 0 -39.5 10t-42 31t-37 54.5t-24.5 80.5l-149 -48z" />
    <glyph glyph-name="T" unicode="T" horiz-adv-x="530" 
d="M10 595h177l3 -604l116 -4l-10 630l224 -9l-24 109l-481 -5z" />
    <glyph glyph-name="U" unicode="U" horiz-adv-x="603" 
d="M10 599l79 14q-1 -35 -1 -68v-63q0 -63 1 -122.5t8 -112.5t22 -97.5t42 -77t68.5 -50.5t102.5 -18q58 0 100.5 22.5t71.5 60t46.5 87t27 103.5t12.5 109.5t3 104.5q0 53 -3 103t-9 95l-100 -8q1 -40 1.5 -78t0.5 -76q0 -85 -7 -159t-24.5 -129.5t-47.5 -87.5t-75 -32
q-48 0 -77 26.5t-44.5 70t-20.5 99t-5 114.5q0 49 1.5 97t1.5 90q0 23 -1 44t-3 38l-168 5z" />
    <glyph glyph-name="V" unicode="V" horiz-adv-x="648" 
d="M382 2l256 719l-146 -9l-172 -528l-131 539l-179 7l8 -100l76 6l156 -634h132z" />
    <glyph glyph-name="W" unicode="W" horiz-adv-x="839" 
d="M10 599l79 14q-1 -35 -1 -68v-63q0 -55 1 -112t7 -110.5t19 -100t36 -81.5t58 -55.5t86 -20.5q42 0 80.5 28.5t69.5 87.5q38 -66 83 -99t90 -33q47 0 80.5 25t57 65.5t38 92.5t22.5 105.5t10.5 104.5t2.5 90q0 53 -3 103t-9 95l-100 -8q2 -66 4 -125.5t2 -113.5
q0 -71 -4.5 -129.5t-16.5 -100t-32.5 -64t-52.5 -22.5q-35 0 -55 32t-31 83.5t-14 115.5t-3 128v123q0 29 -1.5 54.5t-3.5 46.5l-111 -9q2 -60 3 -115t1 -107q0 -74 -4.5 -135.5t-15 -105.5t-28.5 -68.5t-46 -24.5q-41 0 -66 26.5t-38.5 69.5t-18 96.5t-4.5 107.5
q0 52 2 102.5t2 94.5q0 23 -1 42.5t-3 36.5l-168 5z" />
    <glyph glyph-name="X" unicode="X" horiz-adv-x="615" 
d="M491 -11l114 36l-220 366l199 307l-134 18l-151 -240l-137 238l-141 -14l193 -323l-204 -368l130 2l154 285z" />
    <glyph glyph-name="Y" unicode="Y" horiz-adv-x="486" 
d="M10 149q55 -78 117 -116.5t122 -38.5q55 0 97.5 26.5t71 66.5t43 87t14.5 88q0 36 -4.5 76.5t-11.5 87.5q-6 39 -8.5 66.5t-3 58t-1.5 71t-4 103.5l-102 -14q2 -34 4 -58t2 -43q0 -26 -9 -59.5t-26.5 -63t-44.5 -50t-63 -20.5q-23 0 -38.5 11.5t-25 29t-14 38.5t-4.5 41
q0 43 7.5 87.5t7.5 90.5l-113 -3q-4 -66 -7.5 -114t-3.5 -85q0 -41 12 -78.5t35 -66t57 -45.5t78 -17q41 0 83.5 21t80.5 71q9 -35 14 -67t5 -61q0 -26 -7 -55.5t-21 -54.5t-36 -41.5t-53 -16.5q-21 0 -43 10t-43 25.5t-41.5 35t-39.5 38.5z" />
    <glyph glyph-name="Z" unicode="Z" horiz-adv-x="572" 
d="M45 -4l502 3l-6 144l-357 -25l372 442l6 157l-422 -39l-2 76l-128 5l22 -204l381 23l-360 -457z" />
    <glyph glyph-name="backslash" unicode="\" horiz-adv-x="546" 
d="M114 705l-104 -78l443 -642l83 69z" />
    <glyph glyph-name="underscore" unicode="_" horiz-adv-x="667" 
d="M48 -69h582v81h-582v-81z" />
    <glyph glyph-name="grave" unicode="`" horiz-adv-x="191" 
d="M122 427q30 35 44.5 73.5t14.5 76.5q0 21 -6 46t-18.5 46.5t-31.5 36t-45 14.5q-15 0 -28 -7t-22 -18.5t-14 -24.5t-5 -25q0 -26 17 -47.5t43 -23.5q-1 -28 -11.5 -54.5t-26.5 -46.5z" />
    <glyph glyph-name="a" unicode="a" horiz-adv-x="634" 
d="M354 454q0 -23 -10 -53q-39 14 -75 14q-50 0 -96.5 -21t-82.5 -56t-58 -79.5t-22 -92.5q0 -39 14 -72t39 -56.5t59.5 -36.5t76.5 -13q45 0 94 16t99 48l9 -53l223 32l-23 120l-135 -25q-7 14 -9.5 35.5t-2.5 49.5q0 30 2 64.5t4 67t4 60.5t2 47zM122 155q-4 13 -4 30
q0 24 10 45t27 36.5t39 24.5t45 9q15 0 36 -7.5t39.5 -22.5t32 -37t13.5 -50q0 -19 -12.5 -34.5t-32 -26.5t-44.5 -17t-49 -6q-35 0 -64 13.5t-36 42.5z" />
    <glyph glyph-name="b" unicode="b" horiz-adv-x="589" 
d="M10 610h74l-55 -597l98 -16l5 82q47 -45 104.5 -67.5t114.5 -22.5q47 0 88.5 17.5t72.5 49t49 75t18 96.5q0 52 -19.5 96.5t-53 77.5t-78.5 51.5t-95 18.5q-38 0 -78.5 -12t-79.5 -38l13 289h-178v-100zM177 251q3 27 14 46t28.5 31t38.5 18t44 6q26 0 51.5 -7.5
t46 -21.5t33 -33t12.5 -43q0 -36 -12 -63t-30 -45t-40 -27t-42 -9q-26 0 -52 10.5t-46.5 29.5t-33 45t-12.5 56v7z" />
    <glyph glyph-name="c" unicode="c" 
d="M468 404q-42 63 -98 91.5t-114 28.5q-52 0 -97 -20t-78 -57t-52 -89t-19 -115q0 -66 19 -112t51 -75t75.5 -42t91.5 -13q61 0 125 18t121 50l-56 84q-38 -17 -81.5 -32t-85.5 -15q-23 0 -48 9t-46 27.5t-34.5 47t-13.5 67.5q0 27 11.5 54t31 49t46.5 36t57 14q21 0 43 -8
t45 -26z" />
    <glyph glyph-name="d" unicode="d" horiz-adv-x="605" 
d="M338 694l23 -314q-38 8 -74 8q-54 0 -104 -15.5t-88 -45.5t-61 -73t-23 -98q0 -88 51.5 -139t142.5 -51q57 0 110.5 24t84.5 73l6 -68l189 5l-15 122l-94 -9l-10 609zM124 111q-12 16 -12 38q0 25 17 50t43 44.5t57.5 31.5t60.5 12q21 0 38 -8.5t29.5 -22t19.5 -31
t7 -36.5q0 -27 -15 -49t-38.5 -38t-53 -25t-58.5 -9t-54.5 10t-40.5 33z" />
    <glyph glyph-name="e" unicode="e" horiz-adv-x="578" 
d="M512 186q-29 -13 -63 -28.5t-69.5 -29.5t-70.5 -23.5t-65 -9.5q-22 0 -40 6t-31 21t-20 39.5t-7 60.5l393 59q0 71 -20 121t-53.5 82t-78.5 46.5t-96 14.5q-68 0 -120 -21t-88 -59.5t-54.5 -92t-18.5 -119.5q0 -60 16.5 -110t47.5 -85t76.5 -54.5t102.5 -19.5
q72 0 153 28.5t162 82.5zM153 332q0 28 13 49.5t34.5 35.5t48.5 21.5t55 7.5q23 0 45 -5.5t39 -16t28 -27t13 -38.5z" />
    <glyph glyph-name="f" unicode="f" horiz-adv-x="469" 
d="M15 308l109 20l15 -315l127 2l-36 324l143 -21l-25 124l-126 2q-7 29 -7 60q0 28 6 52.5t15.5 42t22 27.5t25.5 10q21 0 39.5 -30.5t24.5 -102.5l110 29q0 40 -8.5 77t-29.5 65.5t-57.5 45.5t-92.5 17q-54 0 -83.5 -23t-44 -58t-17.5 -77.5t-3 -82.5q0 -33 -3 -58
l-109 -9z" />
    <glyph glyph-name="g" unicode="g" horiz-adv-x="620" 
d="M219 -93q32 14 60 20t52 6q51 0 80 -24.5t29 -65.5q0 -23 -11.5 -41.5t-31.5 -31.5t-46.5 -19.5t-57.5 -6.5q-47 0 -93.5 18t-79.5 60l-86 -71q25 -29 56 -50.5t65.5 -35.5t71 -21t72.5 -7q53 0 102 14t86.5 40t59.5 64.5t22 88.5q0 32 -12.5 61t-38 51.5t-64.5 36.5
t-91 16v34q37 3 66 20t48 43t29 58t10 65q0 32 -9 61t-27 52l130 -9l-12 110l-184 6q-56 9 -110 9q-59 0 -112 -12t-93.5 -38t-64.5 -68.5t-24 -103.5q0 -41 11 -79.5t35.5 -68.5t64.5 -48t97 -18q21 0 45 3v-19q-17 -2 -30 -1.5t-34 -9.5zM414 242q1 -5 1.5 -8.5t0.5 -8.5
q0 -26 -16 -49t-41.5 -39.5t-56.5 -26t-62 -9.5q-54 0 -88.5 31t-34.5 91q0 33 11.5 57t31 39.5t44.5 23t51 7.5q27 0 53 -7.5t48 -21t37.5 -34t20.5 -45.5z" />
    <glyph glyph-name="h" unicode="h" horiz-adv-x="547" 
d="M10 587h104l-32 -587l126 5l-11 284q45 54 88 83.5t79 29.5q44 0 74 -46v-345h93l5 353q0 13 -9 38t-25.5 49.5t-39 42.5t-48.5 18q-50 0 -107 -24.5t-105 -62.5l-3 273l-189 14v-125z" />
    <glyph glyph-name="i" unicode="i" horiz-adv-x="171" 
d="M21 462v-470l136 10l-33 452zM130 536q17 15 23.5 29t6.5 28t-7 26.5t-18 21.5t-25 14.5t-29 5.5t-28 -6.5t-22.5 -17t-15 -24t-5.5 -26.5q0 -15 5.5 -28t15 -23t22.5 -16t27 -6q12 0 25 5t25 17z" />
    <glyph glyph-name="j" unicode="j" horiz-adv-x="382" 
d="M145 279l126 11l-19 -431q-9 -42 -25.5 -68.5t-33.5 -26.5q-15 0 -28.5 13t-23 34t-15.5 48t-7 56l-109 -29q1 -50 15 -95.5t39 -81t61 -56.5t82 -21q33 0 61 18t48.5 48t32.5 69.5t12 83.5l11 540l-212 4zM311 434q31 8 43.5 23.5t12.5 34.5q0 13 -6 26.5t-16 24.5
t-23 17.5t-28 6.5q-17 0 -30 -6.5t-22 -16.5t-13.5 -22.5t-4.5 -23.5q0 -25 17 -46t48 -21q10 0 22 3z" />
    <glyph glyph-name="k" unicode="k" horiz-adv-x="532" 
d="M23 597l48 10l22 -627l100 2l-9 225l172 -197l166 5l-9 111l-116 -13l-80 103q39 5 74.5 17.5t62 33.5t42.5 49.5t16 65.5t-20.5 70.5t-54.5 58.5t-78 40t-90 15q-49 0 -97 -20l-11 184l-151 -33zM196 433q20 13 44 19t47 6q40 0 70 -17.5t30 -52.5q0 -24 -11.5 -40.5
t-29.5 -27t-41 -15t-47 -4.5q-20 0 -38.5 3.5t-30.5 8.5z" />
    <glyph glyph-name="l" unicode="l" horiz-adv-x="141" 
d="M10 2h121l-7 705l-103 -4z" />
    <glyph glyph-name="m" unicode="m" horiz-adv-x="682" 
d="M10 512l4 -100l89 -1l-31 -383l100 -6l28 342q4 24 27 36t47 12q18 0 31.5 -7.5t13.5 -22.5l-9 -364l115 7l2 326q3 27 17 38.5t32 11.5q31 0 49 -24t28 -61t13 -83t3 -89v-78q0 -35 -1 -55l104 9v87q0 27 -0.5 67.5t-5 85.5t-14 90.5t-27 81.5t-45 58.5t-67.5 22.5
q-26 0 -54 -8.5t-54 -23.5q-12 27 -36 38.5t-53 11.5q-28 0 -56.5 -8t-48.5 -20l-4 20z" />
    <glyph glyph-name="n" unicode="n" horiz-adv-x="507" 
d="M12 392q24 2 46 3t32 1h8l-28 -402l100 -6l24 321q40 57 78 85t67 28q21 0 32.5 -13t17 -32.5t6.5 -41t1 -37.5q0 -54 -7 -127.5t-18 -181.5l95 -9q12 72 21.5 150t9.5 152q0 38 -3 73.5t-11 66.5q-6 27 -20.5 46t-34 31t-43 18t-48.5 6q-38 0 -74.5 -12.5t-62.5 -35.5
v45l-190 -22z" />
    <glyph glyph-name="o" unicode="o" horiz-adv-x="574" 
d="M324 -48q52 0 96 16t76 44.5t49.5 67t17.5 83.5q0 52 -26 108t-86 112q-36 34 -75.5 48.5t-80.5 14.5q-54 0 -105.5 -23.5t-91.5 -61t-64 -85.5t-24 -97q0 -55 33.5 -97t82 -71t102.5 -44t96 -15zM291 67q-28 1 -60.5 7.5t-60 20.5t-46 36t-18.5 53q0 26 15.5 51.5t40 46
t55.5 33t63 12.5q30 0 58 -17t49 -42t33.5 -54t12.5 -52q0 -24 -12 -42t-31.5 -30t-45 -17.5t-53.5 -5.5z" />
    <glyph glyph-name="p" unicode="p" horiz-adv-x="635" 
d="M189 -300l4 340q36 -17 76 -25.5t81 -8.5q54 0 103.5 14.5t88 42.5t61 69t22.5 94q0 49 -22 92t-59 75t-84.5 51t-98.5 19q-39 0 -78.5 -12.5t-75.5 -39.5l-8 67l-189 10l6 -133l94 2l-54 -659zM343 118q-20 0 -42 5t-40.5 15.5t-30.5 26t-12 36.5q0 27 19 53t48 46
t63.5 32.5t65.5 12.5q43 0 66.5 -27.5t23.5 -67.5q0 -44 -12 -69t-29.5 -38t-35.5 -16.5t-30 -4.5z" />
    <glyph glyph-name="q" unicode="q" horiz-adv-x="639" 
d="M379 -361l109 2l129 85l-34 94l-85 -46l37 572l94 -6l-5 134l-160 -14l-12 -55q-32 22 -69 32t-75 10q-54 0 -107 -18t-95.5 -49.5t-68.5 -74.5t-26 -93q0 -48 20 -87.5t53 -67.5t76 -43t89 -15q66 0 136 29zM279 108q-23 0 -48.5 9t-47.5 24.5t-36.5 37.5t-14.5 48
q0 22 13.5 39.5t35 29.5t49 18t55.5 6q27 0 52 -7t44.5 -20.5t31 -33.5t11.5 -46q0 -23 -12.5 -42t-32.5 -33t-46 -22t-54 -8z" />
    <glyph glyph-name="r" unicode="r" horiz-adv-x="512" 
d="M47 2l203 -20l-2 89l-38 6l-5 264q13 25 35.5 41.5t50.5 16.5t58 -21t57 -72l96 79q-2 27 -16.5 46.5t-37.5 32t-52 18.5t-60 6q-40 0 -77.5 -8.5t-64.5 -25.5l-36 58l-140 -15l-8 -97l93 -7l-2 -311h-48z" />
    <glyph glyph-name="s" unicode="s" horiz-adv-x="521" 
d="M509 414q-72 72 -135.5 103t-114.5 31q-33 0 -62.5 -12.5t-51.5 -33.5t-34.5 -49.5t-12.5 -60.5q0 -47 31.5 -90.5t97.5 -72.5q34 -15 62.5 -31t49.5 -32t33 -31t12 -29t-9.5 -24.5t-22 -18t-25 -11t-19.5 -3.5q-26 0 -49.5 16t-44.5 37.5t-39 44t-33 34.5l-132 -74
l58 -82l63 31q14 -29 36.5 -50t49.5 -35.5t56.5 -21.5t59.5 -7q35 0 67 10.5t57 30t39.5 48t14.5 64.5q0 47 -28.5 92.5t-84.5 71.5q-27 12 -59.5 25t-60 28t-46 32.5t-18.5 38.5q0 20 14.5 37t37.5 17q18 0 40.5 -8.5t45 -22t44 -30.5t39.5 -33z" />
    <glyph glyph-name="t" unicode="t" horiz-adv-x="441" 
d="M10 342l83 4l-5 -275q3 -32 16 -50.5t33 -29t46 -13.5t54 -3q48 0 83.5 16.5t60 46t37 70t13.5 88.5l-100 16q0 -18 -3.5 -42t-13 -46t-25.5 -37t-40 -15q-20 0 -33 10.5t-17 42.5l5 248l124 20l-7 96l-106 -1l13 204l-121 -17l6 -213l-94 -7z" />
    <glyph glyph-name="u" unicode="u" horiz-adv-x="544" 
d="M520 150l-84 -31l3 424l-100 1l-6 -323q-20 -48 -53.5 -74.5t-68.5 -26.5q-27 0 -45 10.5t-28.5 28.5t-14.5 42t-4 52q0 54 7.5 123.5t11.5 154.5l-106 7q-5 -58 -13 -126t-8 -136q0 -53 8 -102t29 -86.5t57 -60t92 -22.5q47 0 92 16t73 44l12 -59l160 3z" />
    <glyph glyph-name="v" unicode="v" horiz-adv-x="645" 
d="M222 497l-212 -14l12 -100l42 6l242 -388l84 8l187 386l58 -3l-3 116l-247 -3v-100h67l-110 -241l-142 225l48 12z" />
    <glyph glyph-name="w" unicode="w" horiz-adv-x="622" 
d="M512 502l-35 -332q0 -13 -7.5 -24t-19 -19.5t-24.5 -13.5t-25 -5q-18 0 -30.5 13t-12.5 30l16 354l-115 -8l-9 -316q-3 -27 -17 -38.5t-32 -11.5q-28 0 -45.5 19.5t-27 51t-12.5 70.5t-3 79q0 50 2.5 93t0.5 66l-104 -10v-26t-0.5 -34.5t-0.5 -38.5v-36q0 -30 1 -67.5
t5.5 -76t14 -75t26 -65t42 -46t62.5 -17.5q27 0 55.5 9t55.5 25q20 -30 51.5 -43.5t66.5 -13.5q28 0 56.5 8t53 22t43 34.5t27.5 44.5l41 393z" />
    <glyph glyph-name="x" unicode="x" horiz-adv-x="566" 
d="M471 -20l85 71l-207 193l180 172l-70 70l-180 -170l-183 177l-72 -70l181 -175l-195 -181l70 -72l194 182z" />
    <glyph glyph-name="y" unicode="y" horiz-adv-x="497" 
d="M35 -171q70 -75 131 -114t118 -39q52 0 90.5 25.5t63.5 64.5t37 85t12 86q0 48 -7.5 100t-15.5 109q-6 39 -10 76t-6.5 79t-5 91.5t-5.5 112.5l-102 -14q6 -46 10 -88t4 -80q0 -40 -6.5 -76t-23 -63t-45 -43t-71.5 -16q-29 0 -45.5 15t-24 38t-9 51t-1.5 54q0 57 4 114
t4 98l-113 -3q-3 -54 -5 -102t-2 -91q0 -57 7 -110t27.5 -93.5t57.5 -65t96 -24.5q41 0 83.5 21t80.5 71q12 -48 22 -94t10 -87q0 -23 -5.5 -46.5t-17.5 -42.5t-31 -31t-45 -12q-23 0 -46.5 9.5t-46.5 24.5t-44.5 34t-40.5 38z" />
    <glyph glyph-name="z" unicode="z" horiz-adv-x="556" 
d="M33 -67l499 40l-8 117l-332 -37l348 290l6 126h-401l-11 103l-124 -5l23 -195l340 -2l-332 -312z" />
    <glyph glyph-name="bar" unicode="|" horiz-adv-x="114" 
d="M10 -129h94l-7 879l-76 -4z" />
    <glyph glyph-name="FL00A0h" unicode="&#xa0;" horiz-adv-x="500" 
 />
    <glyph glyph-name="FL00A8h" unicode="&#xa8;" horiz-adv-x="545" 
d="M14 -10l520 15l1 175l-98 22l-19 -101l-270 -7l11 240l196 7l8 104h-202l1 154h344v100l-476 -1l18 -607l-38 -1zM195 789q17 15 23.5 29t6.5 28t-7 26.5t-18 21.5t-25 14.5t-29 5.5t-28 -6.5t-22.5 -17t-15 -24t-5.5 -26.5q0 -15 5.5 -28t15 -23t22.5 -16t27 -6
q12 0 25 5t25 17zM410 798q17 15 23.5 29t6.5 28t-7 26.5t-18 21.5t-25 14.5t-29 5.5t-28 -6.5t-22.5 -17t-15 -24t-5.5 -26.5q0 -15 5.5 -28t15 -23t22.5 -16t27 -6q12 0 25 5t25 17z" />
    <glyph glyph-name="copyright" unicode="&#xa9;" horiz-adv-x="685" 
d="M241 11q24 -6 47 -8.5t45 -2.5q80 0 143.5 33t107.5 86.5t67.5 121t23.5 137.5q0 64 -22.5 125t-66.5 109t-110.5 77t-153.5 29q-75 0 -133 -30.5t-97.5 -80.5t-60 -114t-20.5 -131q0 -55 14 -109t42.5 -100.5t71.5 -83.5t102 -58zM281 93q-38 6 -66 30t-47 58.5
t-28 77.5t-9 88q0 51 12 100.5t35.5 88.5t59 63t82.5 24q63 0 110 -22t78 -55.5t46.5 -74.5t15.5 -78q0 -54 -21 -108.5t-56.5 -97.5t-82.5 -70t-98 -27q-16 0 -31 3zM505 461q-6 22 -21.5 39.5t-37 29.5t-47 18.5t-51.5 6.5q-42 0 -73.5 -16t-53 -43.5t-32.5 -63.5t-11 -76
q0 -39 10.5 -72t30 -57t47.5 -37t62 -13q32 0 67 11.5t68 34.5l-41 81q-17 -14 -42 -25.5t-48 -11.5q-17 0 -29 9t-20 23t-11.5 31t-3.5 33q0 18 5 36t16.5 31.5t28.5 22t41 8.5q18 0 28 -6t15.5 -13.5t7.5 -14t3 -7.5z" />
    <glyph glyph-name="FL00AAh" unicode="&#xaa;" horiz-adv-x="554" 
d="M363 306v81h-225q7 35 22.5 66t37 54.5t48 37t55.5 13.5q32 0 66 -19.5t66 -65.5l97 18q-50 103 -110.5 147.5t-123.5 44.5q-56 0 -107.5 -30t-91.5 -80.5t-64 -115t-24 -133.5q0 -52 18.5 -107.5t53 -101.5t83 -75.5t108.5 -29.5q37 0 74.5 10.5t72.5 28.5t66 42.5
t57 51.5l-62 83q-39 -42 -85.5 -70.5t-94.5 -28.5q-26 0 -55 15.5t-53 40.5t-40 57t-17 66h228z" />
    <glyph glyph-name="FL00B8h" unicode="&#xb8;" horiz-adv-x="578" 
d="M512 186q-29 -13 -63 -28.5t-69.5 -29.5t-70.5 -23.5t-65 -9.5q-45 0 -71.5 27.5t-26.5 99.5l393 59q0 70 -20 120.5t-53.5 82t-78.5 46.5t-96 15q-68 0 -120 -21t-88 -59.5t-54.5 -92t-18.5 -119.5q0 -60 16.5 -110t47.5 -85t76.5 -54.5t102.5 -19.5q72 0 153 28.5
t162 82.5zM153 332q0 28 13 49.5t34.5 36t48.5 21.5t55 7q23 0 45 -5.5t39 -16t28 -27t13 -38.5zM206 646q17 15 23.5 29t6.5 28t-7 26.5t-18 21.5t-25 14.5t-29 5.5t-28 -6.5t-22.5 -17t-15 -24t-5.5 -26.5q0 -15 5.5 -28t15 -23t22.5 -16t27 -6q12 0 25 5t25 17zM421 655
q17 15 23.5 29t6.5 28t-7 26.5t-18 21.5t-25 14.5t-29 5.5t-28 -6.5t-22.5 -17t-15 -24t-5.5 -26.5q0 -15 5.5 -28t15 -23t22.5 -16t27 -6q12 0 25 5t25 17z" />
    <glyph glyph-name="Agrave" unicode="&#xc0;" horiz-adv-x="548" 
d="M90 603l72 5l-152 -592l126 -7l42 209l164 6l41 -227l155 3l-233 710l-215 -1v-106zM260 537l71 -216l-137 -2z" />
    <glyph glyph-name="Aacute" unicode="&#xc1;" horiz-adv-x="420" 
d="M111 638l41 1l258 -9v109l-394 -1q-4 0 -6 1v-735q22 -1 47 -2t53 -1q60 0 113.5 9t93.5 33t63.5 65.5t23.5 107.5q0 53 -24 104.5t-78 88.5q-35 17 -82 27t-116 20zM117 359q14 2 26 3.5t24 1.5q37 0 64 -11t45 -29.5t27 -42t9 -47.5q0 -26 -9.5 -50.5t-28.5 -43.5
t-47 -31t-65 -12q-24 0 -52 6z" />
    <glyph glyph-name="Acircumflex" unicode="&#xc2;" horiz-adv-x="414" 
d="M10 4q22 -1 47 -2t53 -1q60 0 113.5 9t93.5 33t63.5 65.5t23.5 107.5q0 53 -24 104.5t-78 88.5q38 35 55.5 69t17.5 65q0 43 -28.5 79.5t-73.5 63t-101.5 41.5t-112.5 15q-25 0 -49 -3v-735zM117 359q14 2 26.5 3.5t23.5 1.5q37 0 64 -11t45 -29t27 -41.5t9 -47.5
q0 -26 -9.5 -50.5t-28.5 -44t-47 -31.5t-65 -12q-24 0 -52 6zM111 638q36 0 65.5 -3t49.5 -12t31 -25t11 -41q0 -49 -36.5 -75.5t-99.5 -26.5h-14q-6 0 -14 1z" />
    <glyph glyph-name="Atilde" unicode="&#xc3;" horiz-adv-x="517" 
d="M16 601h34l5 -539h-45l9 -92l199 -1l-1 98h-58v536l348 -10v109l-491 -1v-100z" />
    <glyph glyph-name="Adieresis" unicode="&#xc4;" horiz-adv-x="640" 
d="M19 412q12 24 21 40t18 29.5t21 27t30 31.5q34 19 55.5 27t38.5 8l4 -474l-74 -18l-13 -83h97q110 0 188 24.5t128 65.5t73.5 94t23.5 111q0 68 -30.5 136t-85 122.5t-131 88.5t-169.5 34q-32 0 -61 -9t-55.5 -24.5t-48.5 -36t-39 -42.5zM308 560q56 -5 99 -26.5
t72 -54.5t43.5 -73.5t14.5 -82.5q0 -41 -14 -79.5t-42.5 -69t-72 -50.5t-101.5 -23z" />
    <glyph glyph-name="Aring" unicode="&#xc5;" horiz-adv-x="545" 
d="M14 -10l520 15l1 175l-98 22l-19 -101l-270 -7l11 240l196 7l8 104h-202l1 154h344v100l-476 -1l18 -607l-38 -1z" />
    <glyph glyph-name="AE" unicode="&#xc6;" horiz-adv-x="969" 
d="M624 357q7 -29 15 -66.5t19 -77.5t26 -78.5t37 -69t52 -49t70 -18.5q31 0 53.5 15.5t36 40.5t20 55t6.5 59l-94 34q-4 -7 -6 -23.5t-5 -34t-7 -31t-11 -13.5q-26 0 -42 22.5t-26 57.5t-15.5 75.5t-11.5 77.5t-14.5 63.5t-22.5 32.5h-2l218 221l-72 70l-296 -293l8 298
l-199 -10v-100l97 2l-10 -197l-266 293l-79 -70l195 -221h-2q-17 -6 -28 -32.5t-20 -63.5t-18.5 -77.5t-22.5 -75.5t-31.5 -57.5t-46.5 -22.5q-8 0 -10.5 13.5t-3.5 31t-1.5 34t-3.5 23.5l-98 -34q0 -29 3.5 -59t14 -54.5t30 -40.5t50.5 -16q40 0 72 18.5t57.5 49t44.5 69.5
t34.5 79t27 77.5t22.5 65.5l71 -49l-13 -305l94 7h8l19 305z" />
    <glyph glyph-name="Ccedilla" unicode="&#xc7;" horiz-adv-x="474" 
d="M38 152l58 39q8 -33 27 -64t46 -55.5t60 -39t69 -14.5q37 0 67.5 14.5t52.5 37t33.5 49t11.5 49.5q0 29 -10.5 58.5t-28.5 57.5t-41 52t-47 43q30 18 52.5 32.5t37.5 28.5t22.5 29.5t7.5 35.5q0 38 -15 73t-40.5 61.5t-60 42.5t-73.5 16q-31 0 -62 -7.5t-59 -21
t-51.5 -33t-38.5 -42.5l65 -69q28 35 69.5 53.5t78.5 18.5q30 0 52 -12.5t22 -38.5q0 -20 -15 -44t-37 -48t-47.5 -46t-46.5 -38l-12 -1q26 -14 55 -37t54 -50t41 -54.5t16 -49.5t-14 -34t-35 -12q-18 0 -39.5 10t-41.5 31t-36.5 54.5t-25.5 80.5l-149 -48z" />
    <glyph glyph-name="Egrave" unicode="&#xc8;" horiz-adv-x="661" 
d="M637 -36v100h-52l1 510l65 -2v100l-235 3l-222 -478l18 398l25 -4l12 100l-239 5v-100h77l-15 -558l164 -26l240 574l9 -522h-29v-100h181z" />
    <glyph glyph-name="Eacute" unicode="&#xc9;" horiz-adv-x="661" 
d="M637 -36v100h-52l1 510l65 -2v100l-235 3l-222 -478l18 398l25 -4l12 100l-239 5v-100h77l-15 -558l164 -26l240 574l9 -522h-29v-100h181zM210 904q-2 -12 -3.5 -22.5t-1.5 -20.5q0 -33 11.5 -57t30 -40.5t42.5 -24.5t49 -8t49 8t43 24t30.5 40t11.5 56q0 22 -8 52
l-100 -3v-26q0 -21 -6 -37.5t-29 -16.5q-8 0 -12 6t-5.5 16.5t-2.5 24.5t-2 31z" />
    <glyph glyph-name="Ecircumflex" unicode="&#xca;" horiz-adv-x="618" 
d="M273 350q7 -29 15 -66.5t19 -77.5t26 -78.5t37 -69t52 -49t70 -18.5q31 0 53.5 15.5t36 40.5t20 55t6.5 59l-94 34q-4 -7 -6 -23.5t-5 -34t-7 -31t-11 -13.5q-26 0 -42 22.5t-26 57.5t-15.5 75.5t-11.5 77.5t-14.5 63.5t-22.5 32.5h-2l218 221l-72 70l-296 -293l8 298
l-199 -10v-100l97 2l-30 -606l100 -8l19 305z" />
    <glyph glyph-name="Edieresis" unicode="&#xcb;" horiz-adv-x="648" 
d="M553 725l-234 -11q-42 -32 -71 -76t-50 -95t-35 -107.5t-25 -114.5t-21 -115t-23 -110l-76 6l-8 -100l179 7q18 80 32.5 158t31 155t38 154t54.5 155q28 17 53 20.5t54 3.5l40 -635l146 -9z" />
    <glyph glyph-name="Igrave" unicode="&#xcc;" horiz-adv-x="799" 
d="M10 556l114 -2v-472l-51 4v-113l185 -7l-9 120h-25l10 394l135 -334h-27v-100l178 2v100l-40 -2l153 272l14 -317l-25 1l-6 -100l173 8v100l-42 -2l-20 562l-108 -14l-200 -339l-122 382l-279 14z" />
    <glyph glyph-name="Iacute" unicode="&#xcd;" horiz-adv-x="492" 
d="M360 687l-2 -292l-167 -18l-8 314l-169 -20l-4 -128l78 11l12 -572l109 9l-3 286l165 1l5 -280l106 -2l-15 690z" />
    <glyph glyph-name="Icircumflex" unicode="&#xce;" horiz-adv-x="554" 
d="M270 -1q65 0 116 32t86 83.5t53.5 118t18.5 135.5q0 62 -18 125t-53.5 114t-88.5 83.5t-124 32.5q-60 0 -106 -33t-78 -86t-48.5 -121t-16.5 -137q0 -66 15.5 -128t47.5 -111t81 -78.5t115 -29.5zM245 92q-30 1 -52 21t-36 52t-21 73.5t-7 85.5q0 54 10 107t29 95.5
t47.5 69t65.5 26.5q44 0 76 -18.5t53 -48t31 -65t10 -69.5q0 -38 -8.5 -77t-23 -75.5t-34.5 -68.5t-42.5 -56t-47.5 -38t-50 -14z" />
    <glyph glyph-name="Idieresis" unicode="&#xcf;" horiz-adv-x="492" 
d="M14 671l-4 -128l78 11l12 -572l109 9l-3 577l165 1l5 -571l106 -2l-15 690z" />
    <glyph glyph-name="Eth" unicode="&#xd0;" horiz-adv-x="462" 
d="M10 577l67 10l-7 -583l125 -4l-18 256q71 4 123 23.5t85.5 48t50 64t16.5 72.5q0 40 -18.5 78.5t-54 69.5t-87.5 51t-119 22l-158 5zM177 592q18 3 34 3q32 0 56 -10.5t40 -27.5t24 -39t8 -46q0 -23 -7.5 -44t-23 -37t-38.5 -26t-53 -10q-21 0 -40 4v233z" />
    <glyph glyph-name="Ntilde" unicode="&#xd1;" horiz-adv-x="554" 
d="M532 491q-50 103 -110.5 147.5t-123.5 44.5q-56 0 -107.5 -30t-91.5 -80.5t-64 -115t-24 -133.5q0 -52 18.5 -107.5t53 -101.5t83 -75.5t108.5 -29.5q37 0 74.5 10.5t72.5 28.5t66 42.5t57 51.5l-62 83q-39 -42 -85.5 -70.5t-94.5 -28.5q-34 0 -64.5 19.5t-53 49.5
t-36 67.5t-13.5 73.5q0 43 13.5 83t36.5 71t53.5 49.5t64.5 18.5q32 0 66 -20t66 -66z" />
    <glyph glyph-name="Ograve" unicode="&#xd2;" horiz-adv-x="530" 
d="M10 595h177l3 -604l116 -4l-10 630l224 -9l-24 109l-481 -5z" />
    <glyph glyph-name="Oacute" unicode="&#xd3;" horiz-adv-x="486" 
d="M10 149q55 -78 117 -116.5t122 -38.5q55 0 97.5 26.5t71 66.5t43 87t14.5 88q0 36 -4.5 76.5t-11.5 87.5q-6 39 -8.5 66.5t-3 58t-1.5 71t-4 103.5l-102 -14q2 -34 4 -58t2 -43q0 -26 -9 -59.5t-26.5 -63t-44.5 -50t-63 -20.5q-23 0 -38.5 11.5t-25 29t-14 38.5t-4.5 41
l15 178l-113 -3q-4 -66 -7.5 -114t-3.5 -85q0 -41 12 -78.5t35 -66t57 -45.5t78 -17q41 0 83.5 21t80.5 71q9 -35 14 -67t5 -61q0 -26 -7 -55.5t-21 -54.5t-36 -41.5t-53 -16.5q-21 0 -43 10t-43 25.5t-41.5 35t-39.5 38.5z" />
    <glyph glyph-name="Ocircumflex" unicode="&#xd4;" horiz-adv-x="667" 
d="M390 689l-108 -6l-6 -77q-67 -4 -117 -23.5t-83 -49.5t-49.5 -67.5t-16.5 -77.5q0 -37 16 -72t48.5 -63.5t82 -48.5t117.5 -26l-5 -178l134 -7l-10 182q68 6 117.5 26t82 48.5t48.5 63.5t16 72q0 40 -16.5 77.5t-49.5 67.5t-83 49.5t-117 23.5zM125 393q0 25 11.5 47.5
t32.5 38.5t51.5 25.5t68.5 9.5l-15 -236q-75 0 -112 32t-37 83zM542 390q0 -51 -37.5 -82.5t-112.5 -32.5v236q70 0 110 -35t40 -86z" />
    <glyph glyph-name="Otilde" unicode="&#xd5;" horiz-adv-x="615" 
d="M491 -11l114 36l-220 366l199 307l-134 18l-151 -240l-137 238l-141 -14l193 -323l-204 -368l130 2l154 285z" />
    <glyph glyph-name="Odieresis" unicode="&#xd6;" horiz-adv-x="562" 
d="M548 -3l4 128l-98 -11l-12 572l-109 -9l3 -577l-165 -1l-5 571l-141 7l-15 -86l52 -2l13 -607z" />
    <glyph glyph-name="multiply" unicode="&#xd7;" horiz-adv-x="483" 
d="M432 -1q21 73 31 130t10 118q0 62 -5.5 112.5t-12 97.5t-12 96t-5.5 108v64l-100 -14q2 -34 4 -58t2 -43q0 -26 -9 -59.5t-26.5 -63t-44.5 -50t-63 -20.5q-23 0 -38.5 11.5t-25 29t-14 38.5t-4.5 41q0 43 7.5 88t7.5 90l-113 -3q-4 -66 -7.5 -114t-3.5 -85
q0 -41 12 -78.5t35 -66t57 -45.5t78 -17q41 0 83.5 21t80.5 71q10 -40 10 -88q0 -41 -4 -82.5t-8.5 -82t-8.5 -77.5t-4 -68z" />
    <glyph glyph-name="Oslash" unicode="&#xd8;" horiz-adv-x="732" 
d="M722 -5l-12 691l-109 -9l3 -577h-164l2 578l-109 -9l3 -577l-165 -1l-5 571l-141 7l-15 -86l52 -2l13 -607z" />
    <glyph glyph-name="Ugrave" unicode="&#xd9;" horiz-adv-x="830" 
d="M816 -3l4 128l-98 -11l-12 572l-109 -9l3 -577h-164l2 578l-109 -9l3 -577l-165 -1l-5 571l-141 7l-15 -86l52 -2l13 -607z" />
    <glyph glyph-name="Uacute" unicode="&#xda;" horiz-adv-x="490" 
d="M10 590h89l6 -588l96 3q67 2 119 22t87.5 51t54 69.5t18.5 78.5q0 37 -16.5 72.5t-50 64t-85.5 47.5t-123 24l18 256l-213 -6v-94zM205 98v233q19 4 40 4q30 0 53 -10t38.5 -26t23 -37.5t7.5 -43.5q0 -24 -8 -46t-24 -39t-40 -27.5t-56 -10.5q-16 0 -34 3z" />
    <glyph glyph-name="Ucircumflex" unicode="&#xdb;" horiz-adv-x="703" 
d="M10 113l5 -113l158 5q67 2 119 22t87.5 51t54 69.5t18.5 78.5q0 37 -16.5 72.5t-50 64t-85.5 47.5t-123 24l18 256l-125 -4l7 -583zM417 582h84l-5 -588l191 9v100h-91l5 479l92 3l-4 100l-272 -3v-100zM177 98v233q19 4 40 4q30 0 53 -10t38.5 -26t23 -37.5t7.5 -43.5
q0 -24 -8 -46t-24 -39t-40 -27.5t-56 -10.5q-16 0 -34 3z" />
    <glyph glyph-name="Udieresis" unicode="&#xdc;" horiz-adv-x="462" 
d="M10 113l5 -113l158 5q67 2 119 22t87.5 51t54 69.5t18.5 78.5q0 37 -16.5 72.5t-50 64t-85.5 47.5t-123 24l18 256l-125 -4l7 -583zM177 98v233q19 4 40 4q30 0 53 -10t38.5 -26t23 -37.5t7.5 -43.5q0 -24 -8 -46t-24 -39t-40 -27.5t-56 -10.5q-16 0 -34 3z" />
    <glyph glyph-name="Yacute" unicode="&#xdd;" horiz-adv-x="554" 
d="M189 306h228q-1 -34 -17 -66t-40 -57t-53 -40.5t-55 -15.5q-48 0 -94.5 28.5t-85.5 70.5l-62 -83q25 -27 56.5 -51.5t66.5 -42.5t72 -28.5t75 -10.5q60 0 108.5 29.5t83 75.5t53 101.5t18.5 107.5q0 69 -24 133.5t-64 115t-92 80.5t-107 30q-63 0 -123.5 -44.5
t-110.5 -147.5l97 -18q32 46 66 65.5t66 19.5q29 0 55.5 -13.5t48 -37t37 -54.5t22.5 -66h-225v-81z" />
    <glyph glyph-name="Thorn" unicode="&#xde;" horiz-adv-x="822" 
d="M538 -1q65 0 116 32t86 83.5t53.5 118t18.5 135.5q0 62 -17.5 125t-53 114t-89 83t-124.5 32q-53 0 -95.5 -25.5t-73.5 -68.5t-50.5 -99.5t-26.5 -117.5h-90l2 186l92 3l-4 100l-272 -3v-100h84l-5 -481l-71 -8l16 -98l246 8v100h-91l2 200h88q2 -63 19.5 -120.5
t50 -101.5t80 -70.5t109.5 -26.5zM513 92q-30 1 -52 21t-36 52t-21 73.5t-7 85.5q0 54 10 107t29 95.5t47.5 69t65.5 26.5q44 0 76 -18.5t53 -48t31 -65t10 -69.5q0 -38 -8.5 -77t-23 -75.5t-34.5 -68.5t-42.5 -56t-47.5 -38t-50 -14z" />
    <glyph glyph-name="germandbls" unicode="&#xdf;" horiz-adv-x="521" 
d="M511 577l-5 114h-150q-70 0 -124 -20t-91.5 -53t-57 -74.5t-19.5 -83.5q0 -56 34.5 -105t108.5 -76q4 -4 5.5 -12t1.5 -19q0 -19 -4.5 -43.5t-12 -46t-17.5 -36.5t-20 -15q-19 3 -28 15.5t-13 32t-5.5 44.5t-4.5 53l-98 -20q0 -39 8 -80.5t26 -76t46 -56.5t68 -22
q36 0 64 23t46.5 57.5t28 76t9.5 77.5v14t-1 13q9 -1 18.5 -1.5t19.5 -0.5l-18 -256l118 6v581zM344 592v-233q-10 -2 -19.5 -3t-17.5 -1q-31 0 -54.5 10.5t-39 27.5t-23.5 38.5t-8 44.5q0 22 7.5 44t23 38.5t38.5 27t54 10.5q20 0 39 -4z" />
    <glyph glyph-name="agrave" unicode="&#xe0;" horiz-adv-x="634" 
d="M354 454q0 -23 -10 -53q-39 14 -75 14q-50 0 -96.5 -21t-82.5 -56t-58 -79.5t-22 -92.5q0 -39 14 -72t39 -56.5t59.5 -36.5t76.5 -13q45 0 94 16t99 48l9 -53l223 32l-23 120l-135 -25q-7 14 -9.5 35.5t-2.5 49.5q0 30 2 64.5t4 67t4 60.5t2 47zM222 99q-48 0 -76 21.5
t-28 64.5q0 25 10.5 46t27.5 36.5t38.5 24t44.5 8.5q15 0 36 -7.5t39.5 -22.5t32 -37t13.5 -50q0 -19 -21.5 -34.5t-47.5 -26.5t-47.5 -17z" />
    <glyph glyph-name="aacute" unicode="&#xe1;" horiz-adv-x="360" 
d="M113 410l169 15v74l-268 -1q-3 0 -4 1v-499q11 -2 24 -3t28 -1q42 0 92.5 8.5t93.5 27.5t72 48.5t29 71.5q0 55 -24 92t-60 59t-77 31.5t-75 10.5v65zM115 241q18 3 34 3q50 0 74 -27t24 -60q0 -17 -6.5 -34t-19.5 -30.5t-32 -21.5t-44 -8q-18 0 -35 4z" />
    <glyph glyph-name="acircumflex" unicode="&#xe2;" horiz-adv-x="364" 
d="M10 1q58 -3 107 -3q58 0 102.5 6.5t74.5 22.5t45 43.5t15 70.5q0 18 -11 36t-28 35t-37 32.5t-38 28.5q12 11 27.5 16.5t29.5 13.5t24 23t10 44q0 64 -65 97t-211 33h-45v-499zM114 239q18 3 34 3q50 0 74 -27t24 -60q0 -17 -6.5 -34t-19.5 -30t-31.5 -21t-43.5 -8
q-18 0 -35 4zM110 428h14q43 0 67.5 -11.5t24.5 -43.5t-25 -50.5t-67 -18.5h-9t-9 1z" />
    <glyph glyph-name="atilde" unicode="&#xe3;" horiz-adv-x="490" 
d="M47 2l203 -20l-2 89l-38 6l-6 323l222 -7l54 94l-462 10l-8 -97l93 -7l-2 -311h-48z" />
    <glyph glyph-name="adieresis" unicode="&#xe4;" horiz-adv-x="502" 
d="M123 -109l-83 -62q70 -75 131 -114t118 -39q52 0 90.5 25.5t63.5 64.5t37 85t12 86q0 48 -7.5 100t-15.5 109q-4 28 -7 48.5t-5 39.5t-3 37.5t-1 41.5q0 56 -17 93.5t-46.5 60t-69.5 32t-86 9.5q-26 0 -64 -14.5t-73 -40t-60 -60.5t-25 -75q0 -81 6 -139.5t26 -97
t57.5 -57t102.5 -18.5q41 0 83.5 21t80.5 71q12 -48 22 -94t10 -87q0 -23 -5.5 -46.5t-17.5 -42.5t-31 -31t-45 -12q-23 0 -46.5 9.5t-46.5 24.5t-44.5 34t-40.5 38zM208 125q-29 1 -45 16t-24 37t-10 48.5t-2 51.5q0 26 9 50.5t24.5 43.5t37 30.5t46.5 11.5q17 0 36 -5.5
t35.5 -16t27.5 -27t11 -37.5q0 -41 -6 -78t-22.5 -64.5t-45 -44t-72.5 -16.5z" />
    <glyph glyph-name="aring" unicode="&#xe5;" horiz-adv-x="578" 
d="M512 186q-29 -13 -63 -28.5t-69.5 -29.5t-70.5 -23.5t-65 -9.5q-45 0 -71.5 27.5t-26.5 99.5l393 59q0 70 -20 120.5t-53.5 82t-78.5 46.5t-96 15q-68 0 -120 -21t-88 -59.5t-54.5 -92t-18.5 -119.5q0 -60 16.5 -110t47.5 -85t76.5 -54.5t102.5 -19.5q72 0 153 28.5
t162 82.5zM153 332q0 28 13 49.5t34.5 36t48.5 21.5t55 7q23 0 45 -5.5t39 -16t28 -27t13 -38.5z" />
    <glyph glyph-name="ae" unicode="&#xe6;" horiz-adv-x="773" 
d="M402 621l-97 -3l14 -305q-23 48 -52.5 91t-60 76.5t-59.5 55t-51 27.5q-7 -6 -16.5 -17t-20.5 -24t-23.5 -26.5t-25.5 -22.5q28 -14 65 -34t69.5 -46t55 -58t22.5 -71q0 -8 -3.5 -22t-12.5 -34t-25.5 -44t-42.5 -51l-117 13l6 -111l167 -5l145 197l22 -226l92 3l-17 213
l161 -184l166 5l-9 111l-116 -13q-29 27 -49 51t-32 44t-17.5 34t-5.5 22q0 38 20 70.5t48.5 58.5t60 46t54.5 34q-15 9 -29 22.5t-27 26.5t-23.5 24t-18.5 17q-21 -6 -47 -27.5t-52.5 -55t-50 -76.5t-39.5 -91z" />
    <glyph glyph-name="ccedilla" unicode="&#xe7;" horiz-adv-x="558" 
d="M96 -178l-86 -71q54 -59 125 -86.5t143 -27.5q53 0 101.5 14.5t86 43t60 70.5t22.5 96q0 33 -10.5 63.5t-33 54.5t-57.5 39t-85 17q75 31 102.5 79.5t27.5 114.5q0 48 -24.5 89.5t-58.5 72.5t-70 49t-59 18q-47 0 -81 -4t-60.5 -13t-49.5 -24.5t-47 -39.5q0 -25 9 -46
t17 -56q29 34 74 58.5t90 24.5q29 0 57 -10t50.5 -27t36.5 -40.5t14 -50.5q0 -43 -16 -70t-38 -43.5t-43.5 -26t-33.5 -18.5l-20 -66q36 -14 68 -31.5t56 -39t38 -47.5t14 -58q0 -20 -12.5 -35.5t-32.5 -27t-46.5 -17.5t-54.5 -6q-47 0 -93.5 18t-79.5 60z" />
    <glyph glyph-name="egrave" unicode="&#xe8;" horiz-adv-x="544" 
d="M32 538q-6 -58 -14 -126.5t-8 -136.5q0 -53 8.5 -101.5t29.5 -86t57 -60t92 -22.5q47 0 92 16t73 44l12 -59l160 3l-14 141l-84 -31l3 424l-100 1l-6 -323q-20 -48 -53.5 -74.5t-68.5 -26.5q-27 0 -45 10.5t-28.5 28.5t-14.5 42t-4 52q0 54 7.5 123.5t11.5 154.5z" />
    <glyph glyph-name="eacute" unicode="&#xe9;" horiz-adv-x="544" 
d="M32 538q-6 -58 -14 -126.5t-8 -136.5q0 -53 8.5 -101.5t29.5 -86t57 -60t92 -22.5q47 0 92 16t73 44l12 -59l160 3l-14 141l-84 -31l3 424l-100 1l-6 -323q-20 -48 -53.5 -74.5t-68.5 -26.5q-27 0 -45 10.5t-28.5 28.5t-14.5 42t-4 52q0 54 7.5 123.5t11.5 154.5zM98 688
q-2 -12 -3.5 -22.5t-1.5 -20.5q0 -54 31.5 -79.5t73.5 -25.5q28 0 56.5 10.5t51.5 31t37.5 50t14.5 67.5q0 26 -7 53l-100 -3q0 -42 -7.5 -61t-34.5 -19q-8 0 -17.5 4.5t-11.5 25.5z" />
    <glyph glyph-name="ecircumflex" unicode="&#xea;" horiz-adv-x="532" 
d="M161 618l-151 -33l13 -100l48 10l22 -515l100 2l-9 225l172 -197l166 5l-9 111l-116 -13q-29 27 -49 51t-32 44t-17.5 34t-5.5 22q0 38 19.5 70.5t48 58.5t60 46t55.5 34q-15 9 -29 22.5t-27 26.5t-23.5 24t-18.5 17q-21 -6 -47 -27.5t-52.5 -55t-50 -76.5t-39.5 -91z
" />
    <glyph glyph-name="edieresis" unicode="&#xeb;" horiz-adv-x="645" 
d="M222 11l26 96l-48 12l142 225l110 -241h-67v-100l247 -3l3 116l-58 -3l-187 386l-84 8l-242 -388l-42 6l-12 -100z" />
    <glyph glyph-name="igrave" unicode="&#xec;" horiz-adv-x="577" 
d="M10 388l81 -2v-337l-36 3v-81l132 -5l-6 86h-18l7 281l96 -238h-19v-72l127 2v71l-28 -1l109 194l10 -227l-18 1l-4 -71l124 5v72l-30 -2l-15 402l-77 -10l-143 -242l-87 273l-199 10z" />
    <glyph glyph-name="iacute" unicode="&#xed;" horiz-adv-x="555" 
d="M161 619l-151 -33l13 -100l48 10l22 -515l100 2l-9 225l187 2l-9 -225l100 -2l22 515l48 -10l13 100l-151 33l-28 -300q-41 -4 -90 -2t-88 4z" />
    <glyph glyph-name="icircumflex" unicode="&#xee;" horiz-adv-x="574" 
d="M324 -48q52 0 96 16t76 44.5t49.5 67t17.5 83.5q0 43 -22 92.5t-58.5 92t-85 70.5t-102.5 28t-105.5 -23t-91.5 -60.5t-64 -85.5t-24 -97q0 -37 15.5 -68t41 -56.5t58.5 -44.5t68 -32.5t69 -20t62 -6.5zM291 67q-28 1 -60.5 7.5t-60 20.5t-46 36t-18.5 53q0 26 15 51.5
t40 46t56 33t63 12.5q30 0 58 -17t49 -42t33.5 -54t12.5 -52q0 -24 -12 -42t-31.5 -30t-45 -17.5t-53.5 -5.5z" />
    <glyph glyph-name="idieresis" unicode="&#xef;" horiz-adv-x="507" 
d="M12 392q24 2 46 3t32 1h8l-28 -402l100 -6l24 321q40 57 78 85t67 28q34 0 46 -36t12 -90q0 -38 -4 -81.5t-9 -85t-9 -78.5t-4 -62l95 -9q12 72 21.5 150t9.5 152q0 45 -5 88t-21.5 77t-48.5 55t-85 21q-38 0 -74.5 -12.5t-62.5 -35.5v45l-190 -22z" />
    <glyph glyph-name="eth" unicode="&#xf0;" horiz-adv-x="635" 
d="M189 -300l4 340q36 -17 76 -25.5t81 -8.5q54 0 103.5 14.5t88 42.5t61 69t22.5 94q0 49 -22 92t-59 75t-84.5 51t-98.5 19q-39 0 -78.5 -12.5t-75.5 -39.5l-8 67l-189 10l6 -133l94 2l-54 -659zM328 120q-21 0 -40.5 5t-35 15t-25 25t-9.5 36q0 27 19 53t48 46t63.5 32.5
t65.5 12.5q43 0 66.5 -27.5t23.5 -67.5q0 -30 -16 -54t-41.5 -41t-57 -26t-61.5 -9z" />
    <glyph glyph-name="ntilde" unicode="&#xf1;" 
d="M468 404q-42 63 -98 91.5t-114 28.5q-46 0 -90 -17t-78.5 -49.5t-55.5 -79.5t-21 -106q0 -74 19 -125.5t52 -84t77 -47t94 -14.5q59 0 121 18t119 50l-56 84q-38 -17 -81.5 -32t-85.5 -15q-23 0 -48 9t-46 27.5t-34.5 47t-13.5 67.5q0 27 11.5 54.5t31.5 49t47 35.5
t57 14q21 0 43 -8t44 -26z" />
    <glyph glyph-name="ograve" unicode="&#xf2;" horiz-adv-x="682" 
d="M10 512l4 -100l89 -1l-31 -383l100 -6l28 342q4 24 27 36t47 12q18 0 31.5 -7.5t13.5 -22.5l-9 -364l115 7l2 326q3 27 17 38.5t32 11.5q31 0 49 -24t28 -61t13 -83t3 -89v-77q0 -34 -1 -56l104 9v107q0 31 -1.5 71.5t-6.5 83.5t-15 84.5t-27.5 74t-44 52.5t-64.5 20
q-26 0 -54 -8.5t-54 -23.5q-12 27 -36 38.5t-53 11.5q-28 0 -56.5 -8t-48.5 -20l-4 20z" />
    <glyph glyph-name="oacute" unicode="&#xf3;" horiz-adv-x="497" 
d="M35 -171q70 -75 131 -114t118 -39q52 0 90.5 25.5t63.5 64.5t37 85t12 86q0 48 -7.5 100t-15.5 109q-6 39 -10 76t-7.5 79t-6 91.5t-5.5 112.5l-100 -14q6 -46 10 -88t4 -80q0 -40 -6.5 -76t-23 -63t-45 -43t-71.5 -16q-19 0 -35 7.5t-26 26.5q-11 22 -15 54.5t-4 69.5
q0 57 4 113.5t4 98.5l-113 -3q-3 -54 -5 -102t-2 -91q0 -57 7 -110t27.5 -93.5t57.5 -65t96 -24.5q41 0 83.5 21t80.5 71q12 -48 22 -94t10 -87q0 -23 -5.5 -46.5t-17.5 -42.5t-31 -31t-45 -12q-23 0 -46.5 9.5t-46.5 24.5t-44.5 34t-40.5 38z" />
    <glyph glyph-name="ocircumflex" unicode="&#xf4;" horiz-adv-x="783" 
d="M364 -311h2v-4l107 2l-24 340q60 -29 121 -29q45 0 82 14t64 40t42 62.5t15 80.5q0 54 -21 102.5t-55 85t-77 58t-87 21.5q-32 0 -62.5 -12.5t-56.5 -40.5l7 69h-90l18 -67q-29 28 -61 40.5t-64 12.5q-41 0 -79.5 -19t-68 -51.5t-47.5 -76.5t-18 -93q0 -48 16.5 -89
t46.5 -71t70.5 -47t88.5 -17q63 0 119 30zM585 86q-24 0 -48 19t-43 45.5t-30.5 55t-11.5 47.5q0 25 8.5 45.5t23 35t33.5 22.5t40 8q19 0 39.5 -12t37.5 -30t28.5 -39.5t11.5 -41.5q0 -45 -5 -74.5t-15.5 -47.5t-27.5 -25.5t-41 -7.5zM252 115q-24 0 -49.5 9t-46.5 26.5
t-34 42t-13 55.5q0 17 4 34t13 31t22.5 22.5t32.5 8.5q25 0 53 -12.5t51.5 -33t39 -47t15.5 -53.5q0 -39 -26.5 -61t-61.5 -22z" />
    <glyph glyph-name="otilde" unicode="&#xf5;" horiz-adv-x="566" 
d="M471 -20l85 71l-207 193l180 172l-70 70l-180 -170l-183 177l-72 -70l181 -175l-195 -181l70 -72l194 182z" />
    <glyph glyph-name="odieresis" unicode="&#xf6;" horiz-adv-x="573" 
d="M437 -146h83l43 286l-127 -21l3 424l-100 1l-6 -323q-20 -48 -53.5 -74.5t-68.5 -26.5q-27 0 -45 10.5t-28.5 28.5t-14.5 42t-4 52q0 54 7.5 123.5t11.5 154.5l-106 7q-6 -58 -14 -126.5t-8 -136.5q0 -53 8.5 -101.5t29.5 -86t57 -60t92 -22.5q47 0 92 16t73 44l12 -59
l63 1v-153z" />
    <glyph glyph-name="divide" unicode="&#xf7;" horiz-adv-x="505" 
d="M161 619l-151 -33l13 -100l40 10q3 -36 3.5 -70t3 -66.5t9.5 -64t23 -62.5q42 -25 80 -36.5t74 -11.5q29 0 57.5 6.5t57.5 18.5l-9 -225l100 -2l33 615l-101 23l-28 -300q-20 -12 -38.5 -18.5t-39.5 -6.5q-40 0 -100 27z" />
    <glyph glyph-name="oslash" unicode="&#xf8;" horiz-adv-x="808" 
d="M798 7l-25 114l-30 -2l3 424l-100 1l-6 -323q-19 -50 -52 -76.5t-68 -26.5q-28 0 -46 11t-28.5 30t-15 44t-4.5 54q0 55 7.5 126.5t11.5 155.5l-106 -1q-6 -62 -13 -134t-7 -143q0 -37 3 -71q-20 -38 -49.5 -58.5t-60.5 -20.5q-27 0 -45 10.5t-28.5 28.5t-15 42.5
t-4.5 52.5q0 54 7.5 123.5t11.5 154.5l-106 7q-6 -58 -14 -126.5t-8 -136.5q0 -54 8.5 -103t29.5 -86t57 -59t92 -22q49 0 94 15t80 50q10 -14 24 -24q21 -17 49.5 -25t59.5 -8q47 0 92 16t73 44l12 -59z" />
    <glyph glyph-name="ugrave" unicode="&#xf9;" horiz-adv-x="880" 
d="M744 -146h83l43 286l-127 -21l3 424l-100 1l-6 -323q-19 -50 -52 -76.5t-68 -26.5q-28 0 -46 11t-28.5 30t-15 44t-4.5 54q0 55 7.5 126.5t11.5 155.5l-106 -1q-6 -59 -14 -128t-8 -137q0 -22 1 -42.5t4 -40.5q-20 -38 -49.5 -58.5t-60.5 -20.5q-27 0 -45 10.5
t-28.5 28.5t-15 42.5t-4.5 52.5q0 54 7.5 123.5t11.5 154.5l-106 7q-6 -58 -14 -126.5t-8 -136.5q0 -53 8.5 -101.5t29.5 -86t57 -60t92 -22.5q49 0 94 15t80 50q23 -30 57.5 -43.5t75.5 -13.5q47 0 92 16t73 44l12 -59l63 1v-153z" />
    <glyph glyph-name="uacute" unicode="&#xfa;" horiz-adv-x="498" 
d="M10 466h65l3 -482l85 -1l5 55q26 -40 69.5 -60t90.5 -20q73 0 116.5 42t43.5 114q0 45 -19 80t-50.5 59.5t-72.5 37.5t-85 13q-31 0 -61 -6l12 279l-202 -26v-85zM317 42q-24 0 -48 7.5t-43.5 20.5t-32 31t-12.5 40q0 15 6 29.5t16.5 26t24.5 18.5t31 7q24 0 49.5 -10
t47 -26.5t35 -36.5t13.5 -41q0 -17 -8 -29t-20.5 -20.5t-28 -12.5t-30.5 -4z" />
    <glyph glyph-name="ucircumflex" unicode="&#xfb;" horiz-adv-x="597" 
d="M151 555l-113 24l-28 -595l85 -1l5 55q26 -40 69.5 -60t90.5 -20q73 0 116.5 42t43.5 114q0 45 -19 80t-50.5 59.5t-72.5 37.5t-85 13q-31 0 -61 -6zM449 512l2 -512l136 10l-35 494zM249 42q-24 0 -48 7.5t-43.5 20.5t-32 31t-12.5 40q0 30 21.5 55t55.5 25q24 0 50 -10
t47 -26t35 -36t14 -41q0 -17 -8 -29t-20.5 -20.5t-28 -12.5t-30.5 -4z" />
    <glyph glyph-name="udieresis" unicode="&#xfc;" horiz-adv-x="430" 
d="M151 555l-113 24l-28 -595l85 -1l5 55q26 -40 69.5 -60t90.5 -20q73 0 116.5 42t43.5 114q0 45 -19 80t-50.5 59.5t-72.5 37.5t-85 13q-31 0 -61 -6zM249 42q-24 0 -48 7.5t-43.5 20.5t-32 31t-12.5 40q0 30 21.5 55t55.5 25q24 0 50 -10t47 -26t35 -36t14 -41
q0 -17 -8 -29t-20.5 -20.5t-28 -12.5t-30.5 -4z" />
    <glyph glyph-name="yacute" unicode="&#xfd;" 
d="M186 222h183q-19 -66 -55 -91t-81 -25q-42 0 -85.5 15t-81.5 32l-56 -84q57 -32 119 -50t121 -18q49 0 93 14.5t77 47t52.5 84t19.5 125.5q0 60 -21 107t-55.5 79t-78.5 49t-90 17q-58 0 -114 -28.5t-98 -91.5l106 -28q22 18 44 26t43 8q24 0 45.5 -9t39.5 -23.5
t31.5 -34t21.5 -40.5h-180v-81z" />
    <glyph glyph-name="thorn" unicode="&#xfe;" horiz-adv-x="735" 
d="M10 441v-470l136 10l-15 208h40q0 -57 34.5 -101.5t84 -74.5t103 -45.5t92.5 -15.5q52 0 96 16t76 44.5t49.5 67t17.5 83.5q0 43 -22 92.5t-58.5 92t-85 70.5t-102.5 28q-40 0 -78.5 -13t-72.5 -35t-61.5 -52t-45.5 -64h-74l-11 151zM452 67q-28 1 -60.5 7.5t-60 20.5
t-46 36t-18.5 53q0 26 15 51.5t40 46t56 33t63 12.5q30 0 58 -17t49 -42t33.5 -54t12.5 -52q0 -24 -12 -42t-31.5 -30t-45 -17.5t-53.5 -5.5z" />
    <glyph glyph-name="ydieresis" unicode="&#xff;" horiz-adv-x="410" 
d="M400 447l-4 89h-115q-54 0 -97 -15.5t-72 -41t-44.5 -57.5t-15.5 -65q0 -43 27.5 -82t84.5 -60q5 -7 5 -23q0 -15 -3.5 -34t-9.5 -36.5t-13.5 -29t-15.5 -11.5q-15 3 -22 12.5t-10.5 24.5t-4.5 34.5t-3 41.5l-76 -15q0 -31 6.5 -63.5t20 -59t35.5 -43.5t53 -17
q28 0 50 18t36.5 45.5t22 60t7.5 60.5v9q0 5 -1 10q7 -1 14 -1.5t15 -0.5l-13 -199l91 5v452zM270 459v-182q-7 -2 -14 -2h-13q-25 0 -43.5 8t-31 21t-18.5 30t-6 35t6 34.5t17.5 30t29 21.5t41.5 8q8 0 16 -1t16 -3z" />
    <glyph glyph-name="afii10023" unicode="&#x401;" horiz-adv-x="545" 
d="M14 -10l520 15l1 175l-98 22l-19 -101l-270 -7l11 240l196 7l8 104h-202l1 154h344v100l-476 -1l18 -607l-38 -1zM195 789q17 15 23.5 29t6.5 28t-7 26.5t-18 21.5t-25 14.5t-29 5.5t-28 -6.5t-22.5 -17t-15 -24t-5.5 -26.5q0 -15 5.5 -28t15 -23t22.5 -16t27 -6
q12 0 25 5t25 17zM410 798q17 15 23.5 29t6.5 28t-7 26.5t-18 21.5t-25 14.5t-29 5.5t-28 -6.5t-22.5 -17t-15 -24t-5.5 -26.5q0 -15 5.5 -28t15 -23t22.5 -16t27 -6q12 0 25 5t25 17z" />
    <glyph glyph-name="afii10053" unicode="&#x404;" horiz-adv-x="554" 
d="M363 306v81h-225q7 35 22.5 66t37 54.5t48 37t55.5 13.5q32 0 66 -19.5t66 -65.5l97 18q-50 103 -110.5 147.5t-123.5 44.5q-56 0 -107.5 -30t-91.5 -80.5t-64 -115t-24 -133.5q0 -52 18.5 -107.5t53 -101.5t83 -75.5t108.5 -29.5q37 0 74.5 10.5t72.5 28.5t66 42.5
t57 51.5l-62 83q-39 -42 -85.5 -70.5t-94.5 -28.5q-26 0 -55 15.5t-53 40.5t-40 57t-17 66h228z" />
    <glyph glyph-name="afii10054" unicode="&#x405;" horiz-adv-x="496" 
d="M38 152l58 39q8 -33 27 -64t46 -55.5t60 -39t69 -14.5q37 0 67.5 14.5t52.5 37t33.5 48.5t11.5 49q0 25 -8.5 51.5t-22.5 51.5t-33 47.5t-40 41.5q-21 18 -53 39t-62 44.5t-51.5 47.5t-21.5 48q0 28 24.5 41t56.5 13q41 0 86.5 -18.5t77.5 -54.5l70 70q-17 24 -42.5 44
t-56 34.5t-64.5 22t-67 7.5q-41 0 -77 -14t-63.5 -39t-43.5 -59.5t-16 -75.5q0 -46 26.5 -77t63 -54.5t74.5 -42t60 -39.5q38 -37 54.5 -66.5t16.5 -51.5t-14 -34t-35 -12q-18 0 -39.5 10t-42 31t-37 54.5t-24.5 80.5l-149 -48z" />
    <glyph glyph-name="afii10057" unicode="&#x408;" horiz-adv-x="469" 
d="M28 302q-2 -12 -3.5 -24t-1.5 -24q0 -52 19.5 -97t51 -78.5t71 -52.5t80.5 -19q56 0 93 34t58.5 85.5t30.5 111t9 110.5q0 72 -4.5 143.5t0.5 142.5l27 1l-4 100l-445 -14v-126l312 34q5 -80 6.5 -141t1.5 -108q0 -74 -2 -122.5t-11.5 -77t-29.5 -40.5t-56 -12
q-21 0 -40.5 13t-34 35t-23 51.5t-8.5 62.5v13t1 13z" />
    <glyph glyph-name="afii10017" unicode="&#x410;" horiz-adv-x="548" 
d="M90 603l72 5l-152 -592l126 -7l42 209l164 6l41 -227l155 3l-233 710l-215 -1v-106zM260 537l71 -216l-137 -2z" />
    <glyph glyph-name="afii10018" unicode="&#x411;" horiz-adv-x="420" 
d="M111 638l41 1l258 -9v109l-394 -1q-4 0 -6 1v-735q22 -1 47 -2t53 -1q60 0 113.5 9t93.5 33t63.5 65.5t23.5 107.5q0 53 -24 104.5t-78 88.5q-35 17 -82 27t-116 20zM117 359q14 2 26 3.5t24 1.5q37 0 64 -11t45 -29.5t27 -42t9 -47.5q0 -26 -9.5 -50.5t-28.5 -43.5
t-47 -31t-65 -12q-24 0 -52 6z" />
    <glyph glyph-name="afii10019" unicode="&#x412;" horiz-adv-x="414" 
d="M10 4q22 -1 47 -2t53 -1q60 0 113.5 9t93.5 33t63.5 65.5t23.5 107.5q0 53 -24 104.5t-78 88.5q38 35 55.5 69t17.5 65q0 43 -28.5 79.5t-73.5 63t-101.5 41.5t-112.5 15q-25 0 -49 -3v-735zM117 359q14 2 26.5 3.5t23.5 1.5q37 0 64 -11t45 -29t27 -41.5t9 -47.5
q0 -26 -9.5 -50.5t-28.5 -44t-47 -31.5t-65 -12q-24 0 -52 6zM111 638q36 0 65.5 -3t49.5 -12t31 -25t11 -41q0 -49 -36.5 -75.5t-99.5 -26.5h-14q-6 0 -14 1z" />
    <glyph glyph-name="afii10020" unicode="&#x413;" horiz-adv-x="517" 
d="M16 601h34l5 -539h-45l9 -92l199 -1l-1 98h-58v536l348 -10v109l-491 -1v-100z" />
    <glyph glyph-name="afii10021" unicode="&#x414;" horiz-adv-x="640" 
d="M19 412q12 24 21 40t18 29.5t21 27t30 31.5q34 19 55.5 27t38.5 8l4 -474l-74 -18l-13 -83h97q110 0 188 24.5t128 65.5t73.5 94t23.5 111q0 68 -30.5 136t-85 122.5t-131 88.5t-169.5 34q-32 0 -61 -9t-55.5 -24.5t-48.5 -36t-39 -42.5zM308 560q56 -5 99 -26.5
t72 -54.5t43.5 -73.5t14.5 -82.5q0 -41 -14 -79.5t-42.5 -69t-72 -50.5t-101.5 -23z" />
    <glyph glyph-name="afii10022" unicode="&#x415;" horiz-adv-x="545" 
d="M14 -10l520 15l1 175l-98 22l-19 -101l-270 -7l11 240l196 7l8 104h-202l1 154h344v100l-476 -1l18 -607l-38 -1z" />
    <glyph glyph-name="afii10024" unicode="&#x416;" horiz-adv-x="969" 
d="M624 357q7 -29 15 -66.5t19 -77.5t26 -78.5t37 -69t52 -49t70 -18.5q31 0 53.5 15.5t36 40.5t20 55t6.5 59l-94 34q-4 -7 -6 -23.5t-5 -34t-7 -31t-11 -13.5q-26 0 -42 22.5t-26 57.5t-15.5 75.5t-11.5 77.5t-14.5 63.5t-22.5 32.5h-2l218 221l-72 70l-296 -293l8 298
l-199 -10v-100l97 2l-10 -197l-266 293l-79 -70l195 -221h-2q-17 -6 -28 -32.5t-20 -63.5t-18.5 -77.5t-22.5 -75.5t-31.5 -57.5t-46.5 -22.5q-8 0 -10.5 13.5t-3.5 31t-1.5 34t-3.5 23.5l-98 -34q0 -29 3.5 -59t14 -54.5t30 -40.5t50.5 -16q40 0 72 18.5t57.5 49t44.5 69.5
t34.5 79t27 77.5t22.5 65.5l71 -49l-13 -305l94 7h8l19 305z" />
    <glyph glyph-name="afii10025" unicode="&#x417;" horiz-adv-x="474" 
d="M38 152l58 39q8 -33 27 -64t46 -55.5t60 -39t69 -14.5q37 0 67.5 14.5t52.5 37t33.5 49t11.5 49.5q0 29 -10.5 58.5t-28.5 57.5t-41 52t-47 43q30 18 52.5 32.5t37.5 28.5t22.5 29.5t7.5 35.5q0 38 -15 73t-40.5 61.5t-60 42.5t-73.5 16q-31 0 -62 -7.5t-59 -21
t-51.5 -33t-38.5 -42.5l65 -69q28 35 69.5 53.5t78.5 18.5q30 0 52 -12.5t22 -38.5q0 -20 -15 -44t-37 -48t-47.5 -46t-46.5 -38l-12 -1q26 -14 55 -37t54 -50t41 -54.5t16 -49.5t-14 -34t-35 -12q-18 0 -39.5 10t-41.5 31t-36.5 54.5t-25.5 80.5l-149 -48z" />
    <glyph glyph-name="afii10026" unicode="&#x418;" horiz-adv-x="661" 
d="M637 -36v100h-52l1 510l65 -2v100l-235 3l-222 -478l18 398l25 -4l12 100l-239 5v-100h77l-15 -558l164 -26l240 574l9 -522h-29v-100h181z" />
    <glyph glyph-name="afii10027" unicode="&#x419;" horiz-adv-x="661" 
d="M637 -36v100h-52l1 510l65 -2v100l-235 3l-222 -478l18 398l25 -4l12 100l-239 5v-100h77l-15 -558l164 -26l240 574l9 -522h-29v-100h181zM210 904q-2 -12 -3.5 -22.5t-1.5 -20.5q0 -33 11.5 -57t30 -40.5t42.5 -24.5t49 -8t49 8t43 24t30.5 40t11.5 56q0 22 -8 52
l-100 -3v-26q0 -21 -6 -37.5t-29 -16.5q-8 0 -12 6t-5.5 16.5t-2.5 24.5t-2 31z" />
    <glyph glyph-name="afii10028" unicode="&#x41a;" horiz-adv-x="618" 
d="M273 350q7 -29 15 -66.5t19 -77.5t26 -78.5t37 -69t52 -49t70 -18.5q31 0 53.5 15.5t36 40.5t20 55t6.5 59l-94 34q-4 -7 -6 -23.5t-5 -34t-7 -31t-11 -13.5q-26 0 -42 22.5t-26 57.5t-15.5 75.5t-11.5 77.5t-14.5 63.5t-22.5 32.5h-2l218 221l-72 70l-296 -293l8 298
l-199 -10v-100l97 2l-30 -606l100 -8l19 305z" />
    <glyph glyph-name="afii10029" unicode="&#x41b;" horiz-adv-x="648" 
d="M553 725l-234 -11q-42 -32 -71 -76t-50 -95t-35 -107.5t-25 -114.5t-21 -115t-23 -110l-76 6l-8 -100l179 7q18 80 32.5 158t31 155t38 154t54.5 155q28 17 53 20.5t54 3.5l40 -635l146 -9z" />
    <glyph glyph-name="afii10030" unicode="&#x41c;" horiz-adv-x="799" 
d="M10 556l114 -2v-472l-51 4v-113l185 -7l-9 120h-25l10 394l135 -334h-27v-100l178 2v100l-40 -2l153 272l14 -317l-25 1l-6 -100l173 8v100l-42 -2l-20 562l-108 -14l-200 -339l-122 382l-279 14z" />
    <glyph glyph-name="afii10031" unicode="&#x41d;" horiz-adv-x="492" 
d="M360 687l-2 -292l-167 -18l-8 314l-169 -20l-4 -128l78 11l12 -572l109 9l-3 286l165 1l5 -280l106 -2l-15 690z" />
    <glyph glyph-name="afii10032" unicode="&#x41e;" horiz-adv-x="554" 
d="M270 -1q65 0 116 32t86 83.5t53.5 118t18.5 135.5q0 62 -18 125t-53.5 114t-88.5 83.5t-124 32.5q-60 0 -106 -33t-78 -86t-48.5 -121t-16.5 -137q0 -66 15.5 -128t47.5 -111t81 -78.5t115 -29.5zM245 92q-30 1 -52 21t-36 52t-21 73.5t-7 85.5q0 54 10 107t29 95.5
t47.5 69t65.5 26.5q44 0 76 -18.5t53 -48t31 -65t10 -69.5q0 -38 -8.5 -77t-23 -75.5t-34.5 -68.5t-42.5 -56t-47.5 -38t-50 -14z" />
    <glyph glyph-name="afii10033" unicode="&#x41f;" horiz-adv-x="492" 
d="M14 671l-4 -128l78 11l12 -572l109 9l-3 577l165 1l5 -571l106 -2l-15 690z" />
    <glyph glyph-name="afii10034" unicode="&#x420;" horiz-adv-x="462" 
d="M10 577l67 10l-7 -583l125 -4l-18 256q71 4 123 23.5t85.5 48t50 64t16.5 72.5q0 40 -18.5 78.5t-54 69.5t-87.5 51t-119 22l-158 5zM177 592q18 3 34 3q32 0 56 -10.5t40 -27.5t24 -39t8 -46q0 -23 -7.5 -44t-23 -37t-38.5 -26t-53 -10q-21 0 -40 4v233z" />
    <glyph glyph-name="afii10035" unicode="&#x421;" horiz-adv-x="554" 
d="M532 491q-50 103 -110.5 147.5t-123.5 44.5q-56 0 -107.5 -30t-91.5 -80.5t-64 -115t-24 -133.5q0 -52 18.5 -107.5t53 -101.5t83 -75.5t108.5 -29.5q37 0 74.5 10.5t72.5 28.5t66 42.5t57 51.5l-62 83q-39 -42 -85.5 -70.5t-94.5 -28.5q-34 0 -64.5 19.5t-53 49.5
t-36 67.5t-13.5 73.5q0 43 13.5 83t36.5 71t53.5 49.5t64.5 18.5q32 0 66 -20t66 -66z" />
    <glyph glyph-name="afii10036" unicode="&#x422;" horiz-adv-x="530" 
d="M10 595h177l3 -604l116 -4l-10 630l224 -9l-24 109l-481 -5z" />
    <glyph glyph-name="afii10037" unicode="&#x423;" horiz-adv-x="486" 
d="M10 149q55 -78 117 -116.5t122 -38.5q55 0 97.5 26.5t71 66.5t43 87t14.5 88q0 36 -4.5 76.5t-11.5 87.5q-6 39 -8.5 66.5t-3 58t-1.5 71t-4 103.5l-102 -14q2 -34 4 -58t2 -43q0 -26 -9 -59.5t-26.5 -63t-44.5 -50t-63 -20.5q-23 0 -38.5 11.5t-25 29t-14 38.5t-4.5 41
l15 178l-113 -3q-4 -66 -7.5 -114t-3.5 -85q0 -41 12 -78.5t35 -66t57 -45.5t78 -17q41 0 83.5 21t80.5 71q9 -35 14 -67t5 -61q0 -26 -7 -55.5t-21 -54.5t-36 -41.5t-53 -16.5q-21 0 -43 10t-43 25.5t-41.5 35t-39.5 38.5z" />
    <glyph glyph-name="afii10038" unicode="&#x424;" horiz-adv-x="667" 
d="M390 689l-108 -6l-6 -77q-67 -4 -117 -23.5t-83 -49.5t-49.5 -67.5t-16.5 -77.5q0 -37 16 -72t48.5 -63.5t82 -48.5t117.5 -26l-5 -178l134 -7l-10 182q68 6 117.5 26t82 48.5t48.5 63.5t16 72q0 40 -16.5 77.5t-49.5 67.5t-83 49.5t-117 23.5zM125 393q0 25 11.5 47.5
t32.5 38.5t51.5 25.5t68.5 9.5l-15 -236q-75 0 -112 32t-37 83zM542 390q0 -51 -37.5 -82.5t-112.5 -32.5v236q70 0 110 -35t40 -86z" />
    <glyph glyph-name="afii10039" unicode="&#x425;" horiz-adv-x="615" 
d="M491 -11l114 36l-220 366l199 307l-134 18l-151 -240l-137 238l-141 -14l193 -323l-204 -368l130 2l154 285z" />
    <glyph glyph-name="afii10040" unicode="&#x426;" horiz-adv-x="562" 
d="M548 -3l4 128l-98 -11l-12 572l-109 -9l3 -577l-165 -1l-5 571l-141 7l-15 -86l52 -2l13 -607z" />
    <glyph glyph-name="afii10041" unicode="&#x427;" horiz-adv-x="483" 
d="M432 -1q21 73 31 130t10 118q0 62 -5.5 112.5t-12 97.5t-12 96t-5.5 108v64l-100 -14q2 -34 4 -58t2 -43q0 -26 -9 -59.5t-26.5 -63t-44.5 -50t-63 -20.5q-23 0 -38.5 11.5t-25 29t-14 38.5t-4.5 41q0 43 7.5 88t7.5 90l-113 -3q-4 -66 -7.5 -114t-3.5 -85
q0 -41 12 -78.5t35 -66t57 -45.5t78 -17q41 0 83.5 21t80.5 71q10 -40 10 -88q0 -41 -4 -82.5t-8.5 -82t-8.5 -77.5t-4 -68z" />
    <glyph glyph-name="afii10042" unicode="&#x428;" horiz-adv-x="732" 
d="M722 -5l-12 691l-109 -9l3 -577h-164l2 578l-109 -9l3 -577l-165 -1l-5 571l-141 7l-15 -86l52 -2l13 -607z" />
    <glyph glyph-name="afii10043" unicode="&#x429;" horiz-adv-x="830" 
d="M816 -3l4 128l-98 -11l-12 572l-109 -9l3 -577h-164l2 578l-109 -9l3 -577l-165 -1l-5 571l-141 7l-15 -86l52 -2l13 -607z" />
    <glyph glyph-name="afii10044" unicode="&#x42a;" horiz-adv-x="490" 
d="M10 590h89l6 -588l96 3q67 2 119 22t87.5 51t54 69.5t18.5 78.5q0 37 -16.5 72.5t-50 64t-85.5 47.5t-123 24l18 256l-213 -6v-94zM205 98v233q19 4 40 4q30 0 53 -10t38.5 -26t23 -37.5t7.5 -43.5q0 -24 -8 -46t-24 -39t-40 -27.5t-56 -10.5q-16 0 -34 3z" />
    <glyph glyph-name="afii10045" unicode="&#x42b;" horiz-adv-x="703" 
d="M10 113l5 -113l158 5q67 2 119 22t87.5 51t54 69.5t18.5 78.5q0 37 -16.5 72.5t-50 64t-85.5 47.5t-123 24l18 256l-125 -4l7 -583zM417 582h84l-5 -588l191 9v100h-91l5 479l92 3l-4 100l-272 -3v-100zM177 98v233q19 4 40 4q30 0 53 -10t38.5 -26t23 -37.5t7.5 -43.5
q0 -24 -8 -46t-24 -39t-40 -27.5t-56 -10.5q-16 0 -34 3z" />
    <glyph glyph-name="afii10046" unicode="&#x42c;" horiz-adv-x="462" 
d="M10 113l5 -113l158 5q67 2 119 22t87.5 51t54 69.5t18.5 78.5q0 37 -16.5 72.5t-50 64t-85.5 47.5t-123 24l18 256l-125 -4l7 -583zM177 98v233q19 4 40 4q30 0 53 -10t38.5 -26t23 -37.5t7.5 -43.5q0 -24 -8 -46t-24 -39t-40 -27.5t-56 -10.5q-16 0 -34 3z" />
    <glyph glyph-name="afii10047" unicode="&#x42d;" horiz-adv-x="554" 
d="M189 306h228q-1 -34 -17 -66t-40 -57t-53 -40.5t-55 -15.5q-48 0 -94.5 28.5t-85.5 70.5l-62 -83q25 -27 56.5 -51.5t66.5 -42.5t72 -28.5t75 -10.5q60 0 108.5 29.5t83 75.5t53 101.5t18.5 107.5q0 69 -24 133.5t-64 115t-92 80.5t-107 30q-63 0 -123.5 -44.5
t-110.5 -147.5l97 -18q32 46 66 65.5t66 19.5q29 0 55.5 -13.5t48 -37t37 -54.5t22.5 -66h-225v-81z" />
    <glyph glyph-name="afii10048" unicode="&#x42e;" horiz-adv-x="822" 
d="M538 -1q65 0 116 32t86 83.5t53.5 118t18.5 135.5q0 62 -17.5 125t-53 114t-89 83t-124.5 32q-53 0 -95.5 -25.5t-73.5 -68.5t-50.5 -99.5t-26.5 -117.5h-90l2 186l92 3l-4 100l-272 -3v-100h84l-5 -481l-71 -8l16 -98l246 8v100h-91l2 200h88q2 -63 19.5 -120.5
t50 -101.5t80 -70.5t109.5 -26.5zM513 92q-30 1 -52 21t-36 52t-21 73.5t-7 85.5q0 54 10 107t29 95.5t47.5 69t65.5 26.5q44 0 76 -18.5t53 -48t31 -65t10 -69.5q0 -38 -8.5 -77t-23 -75.5t-34.5 -68.5t-42.5 -56t-47.5 -38t-50 -14z" />
    <glyph glyph-name="afii10049" unicode="&#x42f;" horiz-adv-x="521" 
d="M511 577l-5 114h-150q-70 0 -124 -20t-91.5 -53t-57 -74.5t-19.5 -83.5q0 -56 34.5 -105t108.5 -76q4 -4 5.5 -12t1.5 -19q0 -19 -4.5 -43.5t-12 -46t-17.5 -36.5t-20 -15q-19 3 -28 15.5t-13 32t-5.5 44.5t-4.5 53l-98 -20q0 -39 8 -80.5t26 -76t46 -56.5t68 -22
q36 0 64 23t46.5 57.5t28 76t9.5 77.5v14t-1 13q9 -1 18.5 -1.5t19.5 -0.5l-18 -256l118 6v581zM344 592v-233q-10 -2 -19.5 -3t-17.5 -1q-31 0 -54.5 10.5t-39 27.5t-23.5 38.5t-8 44.5q0 22 7.5 44t23 38.5t38.5 27t54 10.5q20 0 39 -4z" />
    <glyph glyph-name="afii10065" unicode="&#x430;" horiz-adv-x="634" 
d="M354 454q0 -23 -10 -53q-39 14 -75 14q-50 0 -96.5 -21t-82.5 -56t-58 -79.5t-22 -92.5q0 -39 14 -72t39 -56.5t59.5 -36.5t76.5 -13q45 0 94 16t99 48l9 -53l223 32l-23 120l-135 -25q-7 14 -9.5 35.5t-2.5 49.5q0 30 2 64.5t4 67t4 60.5t2 47zM222 99q-48 0 -76 21.5
t-28 64.5q0 25 10.5 46t27.5 36.5t38.5 24t44.5 8.5q15 0 36 -7.5t39.5 -22.5t32 -37t13.5 -50q0 -19 -21.5 -34.5t-47.5 -26.5t-47.5 -17z" />
    <glyph glyph-name="afii10066" unicode="&#x431;" horiz-adv-x="360" 
d="M113 410l169 15v74l-268 -1q-3 0 -4 1v-499q11 -2 24 -3t28 -1q42 0 92.5 8.5t93.5 27.5t72 48.5t29 71.5q0 55 -24 92t-60 59t-77 31.5t-75 10.5v65zM115 241q18 3 34 3q50 0 74 -27t24 -60q0 -17 -6.5 -34t-19.5 -30.5t-32 -21.5t-44 -8q-18 0 -35 4z" />
    <glyph glyph-name="afii10067" unicode="&#x432;" horiz-adv-x="364" 
d="M10 1q58 -3 107 -3q58 0 102.5 6.5t74.5 22.5t45 43.5t15 70.5q0 18 -11 36t-28 35t-37 32.5t-38 28.5q12 11 27.5 16.5t29.5 13.5t24 23t10 44q0 64 -65 97t-211 33h-45v-499zM114 239q18 3 34 3q50 0 74 -27t24 -60q0 -17 -6.5 -34t-19.5 -30t-31.5 -21t-43.5 -8
q-18 0 -35 4zM110 428h14q43 0 67.5 -11.5t24.5 -43.5t-25 -50.5t-67 -18.5h-9t-9 1z" />
    <glyph glyph-name="afii10068" unicode="&#x433;" horiz-adv-x="490" 
d="M47 2l203 -20l-2 89l-38 6l-6 323l222 -7l54 94l-462 10l-8 -97l93 -7l-2 -311h-48z" />
    <glyph glyph-name="afii10069" unicode="&#x434;" horiz-adv-x="502" 
d="M123 -109l-83 -62q70 -75 131 -114t118 -39q52 0 90.5 25.5t63.5 64.5t37 85t12 86q0 48 -7.5 100t-15.5 109q-4 28 -7 48.5t-5 39.5t-3 37.5t-1 41.5q0 56 -17 93.5t-46.5 60t-69.5 32t-86 9.5q-26 0 -64 -14.5t-73 -40t-60 -60.5t-25 -75q0 -81 6 -139.5t26 -97
t57.5 -57t102.5 -18.5q41 0 83.5 21t80.5 71q12 -48 22 -94t10 -87q0 -23 -5.5 -46.5t-17.5 -42.5t-31 -31t-45 -12q-23 0 -46.5 9.5t-46.5 24.5t-44.5 34t-40.5 38zM208 125q-29 1 -45 16t-24 37t-10 48.5t-2 51.5q0 26 9 50.5t24.5 43.5t37 30.5t46.5 11.5q17 0 36 -5.5
t35.5 -16t27.5 -27t11 -37.5q0 -41 -6 -78t-22.5 -64.5t-45 -44t-72.5 -16.5z" />
    <glyph glyph-name="afii10070" unicode="&#x435;" horiz-adv-x="578" 
d="M512 186q-29 -13 -63 -28.5t-69.5 -29.5t-70.5 -23.5t-65 -9.5q-45 0 -71.5 27.5t-26.5 99.5l393 59q0 70 -20 120.5t-53.5 82t-78.5 46.5t-96 15q-68 0 -120 -21t-88 -59.5t-54.5 -92t-18.5 -119.5q0 -60 16.5 -110t47.5 -85t76.5 -54.5t102.5 -19.5q72 0 153 28.5
t162 82.5zM153 332q0 28 13 49.5t34.5 36t48.5 21.5t55 7q23 0 45 -5.5t39 -16t28 -27t13 -38.5z" />
    <glyph glyph-name="afii10072" unicode="&#x436;" horiz-adv-x="773" 
d="M402 621l-97 -3l14 -305q-23 48 -52.5 91t-60 76.5t-59.5 55t-51 27.5q-7 -6 -16.5 -17t-20.5 -24t-23.5 -26.5t-25.5 -22.5q28 -14 65 -34t69.5 -46t55 -58t22.5 -71q0 -8 -3.5 -22t-12.5 -34t-25.5 -44t-42.5 -51l-117 13l6 -111l167 -5l145 197l22 -226l92 3l-17 213
l161 -184l166 5l-9 111l-116 -13q-29 27 -49 51t-32 44t-17.5 34t-5.5 22q0 38 20 70.5t48.5 58.5t60 46t54.5 34q-15 9 -29 22.5t-27 26.5t-23.5 24t-18.5 17q-21 -6 -47 -27.5t-52.5 -55t-50 -76.5t-39.5 -91z" />
    <glyph glyph-name="afii10073" unicode="&#x437;" horiz-adv-x="558" 
d="M96 -178l-86 -71q54 -59 125 -86.5t143 -27.5q53 0 101.5 14.5t86 43t60 70.5t22.5 96q0 33 -10.5 63.5t-33 54.5t-57.5 39t-85 17q75 31 102.5 79.5t27.5 114.5q0 48 -24.5 89.5t-58.5 72.5t-70 49t-59 18q-47 0 -81 -4t-60.5 -13t-49.5 -24.5t-47 -39.5q0 -25 9 -46
t17 -56q29 34 74 58.5t90 24.5q29 0 57 -10t50.5 -27t36.5 -40.5t14 -50.5q0 -43 -16 -70t-38 -43.5t-43.5 -26t-33.5 -18.5l-20 -66q36 -14 68 -31.5t56 -39t38 -47.5t14 -58q0 -20 -12.5 -35.5t-32.5 -27t-46.5 -17.5t-54.5 -6q-47 0 -93.5 18t-79.5 60z" />
    <glyph glyph-name="afii10074" unicode="&#x438;" horiz-adv-x="544" 
d="M32 538q-6 -58 -14 -126.5t-8 -136.5q0 -53 8.5 -101.5t29.5 -86t57 -60t92 -22.5q47 0 92 16t73 44l12 -59l160 3l-14 141l-84 -31l3 424l-100 1l-6 -323q-20 -48 -53.5 -74.5t-68.5 -26.5q-27 0 -45 10.5t-28.5 28.5t-14.5 42t-4 52q0 54 7.5 123.5t11.5 154.5z" />
    <glyph glyph-name="afii10075" unicode="&#x439;" horiz-adv-x="544" 
d="M32 538q-6 -58 -14 -126.5t-8 -136.5q0 -53 8.5 -101.5t29.5 -86t57 -60t92 -22.5q47 0 92 16t73 44l12 -59l160 3l-14 141l-84 -31l3 424l-100 1l-6 -323q-20 -48 -53.5 -74.5t-68.5 -26.5q-27 0 -45 10.5t-28.5 28.5t-14.5 42t-4 52q0 54 7.5 123.5t11.5 154.5zM98 688
q-2 -12 -3.5 -22.5t-1.5 -20.5q0 -54 31.5 -79.5t73.5 -25.5q28 0 56.5 10.5t51.5 31t37.5 50t14.5 67.5q0 26 -7 53l-100 -3q0 -42 -7.5 -61t-34.5 -19q-8 0 -17.5 4.5t-11.5 25.5z" />
    <glyph glyph-name="afii10076" unicode="&#x43a;" horiz-adv-x="532" 
d="M161 618l-151 -33l13 -100l48 10l22 -515l100 2l-9 225l172 -197l166 5l-9 111l-116 -13q-29 27 -49 51t-32 44t-17.5 34t-5.5 22q0 38 19.5 70.5t48 58.5t60 46t55.5 34q-15 9 -29 22.5t-27 26.5t-23.5 24t-18.5 17q-21 -6 -47 -27.5t-52.5 -55t-50 -76.5t-39.5 -91z
" />
    <glyph glyph-name="afii10077" unicode="&#x43b;" horiz-adv-x="645" 
d="M222 11l26 96l-48 12l142 225l110 -241h-67v-100l247 -3l3 116l-58 -3l-187 386l-84 8l-242 -388l-42 6l-12 -100z" />
    <glyph glyph-name="afii10078" unicode="&#x43c;" horiz-adv-x="577" 
d="M10 388l81 -2v-337l-36 3v-81l132 -5l-6 86h-18l7 281l96 -238h-19v-72l127 2v71l-28 -1l109 194l10 -227l-18 1l-4 -71l124 5v72l-30 -2l-15 402l-77 -10l-143 -242l-87 273l-199 10z" />
    <glyph glyph-name="afii10079" unicode="&#x43d;" horiz-adv-x="555" 
d="M161 619l-151 -33l13 -100l48 10l22 -515l100 2l-9 225l187 2l-9 -225l100 -2l22 515l48 -10l13 100l-151 33l-28 -300q-41 -4 -90 -2t-88 4z" />
    <glyph glyph-name="afii10080" unicode="&#x43e;" horiz-adv-x="574" 
d="M324 -48q52 0 96 16t76 44.5t49.5 67t17.5 83.5q0 43 -22 92.5t-58.5 92t-85 70.5t-102.5 28t-105.5 -23t-91.5 -60.5t-64 -85.5t-24 -97q0 -37 15.5 -68t41 -56.5t58.5 -44.5t68 -32.5t69 -20t62 -6.5zM291 67q-28 1 -60.5 7.5t-60 20.5t-46 36t-18.5 53q0 26 15 51.5
t40 46t56 33t63 12.5q30 0 58 -17t49 -42t33.5 -54t12.5 -52q0 -24 -12 -42t-31.5 -30t-45 -17.5t-53.5 -5.5z" />
    <glyph glyph-name="afii10081" unicode="&#x43f;" horiz-adv-x="507" 
d="M12 392q24 2 46 3t32 1h8l-28 -402l100 -6l24 321q40 57 78 85t67 28q34 0 46 -36t12 -90q0 -38 -4 -81.5t-9 -85t-9 -78.5t-4 -62l95 -9q12 72 21.5 150t9.5 152q0 45 -5 88t-21.5 77t-48.5 55t-85 21q-38 0 -74.5 -12.5t-62.5 -35.5v45l-190 -22z" />
    <glyph glyph-name="afii10082" unicode="&#x440;" horiz-adv-x="635" 
d="M189 -300l4 340q36 -17 76 -25.5t81 -8.5q54 0 103.5 14.5t88 42.5t61 69t22.5 94q0 49 -22 92t-59 75t-84.5 51t-98.5 19q-39 0 -78.5 -12.5t-75.5 -39.5l-8 67l-189 10l6 -133l94 2l-54 -659zM328 120q-21 0 -40.5 5t-35 15t-25 25t-9.5 36q0 27 19 53t48 46t63.5 32.5
t65.5 12.5q43 0 66.5 -27.5t23.5 -67.5q0 -30 -16 -54t-41.5 -41t-57 -26t-61.5 -9z" />
    <glyph glyph-name="afii10083" unicode="&#x441;" 
d="M468 404q-42 63 -98 91.5t-114 28.5q-46 0 -90 -17t-78.5 -49.5t-55.5 -79.5t-21 -106q0 -74 19 -125.5t52 -84t77 -47t94 -14.5q59 0 121 18t119 50l-56 84q-38 -17 -81.5 -32t-85.5 -15q-23 0 -48 9t-46 27.5t-34.5 47t-13.5 67.5q0 27 11.5 54.5t31.5 49t47 35.5
t57 14q21 0 43 -8t44 -26z" />
    <glyph glyph-name="afii10084" unicode="&#x442;" horiz-adv-x="682" 
d="M10 512l4 -100l89 -1l-31 -383l100 -6l28 342q4 24 27 36t47 12q18 0 31.5 -7.5t13.5 -22.5l-9 -364l115 7l2 326q3 27 17 38.5t32 11.5q31 0 49 -24t28 -61t13 -83t3 -89v-77q0 -34 -1 -56l104 9v107q0 31 -1.5 71.5t-6.5 83.5t-15 84.5t-27.5 74t-44 52.5t-64.5 20
q-26 0 -54 -8.5t-54 -23.5q-12 27 -36 38.5t-53 11.5q-28 0 -56.5 -8t-48.5 -20l-4 20z" />
    <glyph glyph-name="afii10085" unicode="&#x443;" horiz-adv-x="497" 
d="M35 -171q70 -75 131 -114t118 -39q52 0 90.5 25.5t63.5 64.5t37 85t12 86q0 48 -7.5 100t-15.5 109q-6 39 -10 76t-7.5 79t-6 91.5t-5.5 112.5l-100 -14q6 -46 10 -88t4 -80q0 -40 -6.5 -76t-23 -63t-45 -43t-71.5 -16q-19 0 -35 7.5t-26 26.5q-11 22 -15 54.5t-4 69.5
q0 57 4 113.5t4 98.5l-113 -3q-3 -54 -5 -102t-2 -91q0 -57 7 -110t27.5 -93.5t57.5 -65t96 -24.5q41 0 83.5 21t80.5 71q12 -48 22 -94t10 -87q0 -23 -5.5 -46.5t-17.5 -42.5t-31 -31t-45 -12q-23 0 -46.5 9.5t-46.5 24.5t-44.5 34t-40.5 38z" />
    <glyph glyph-name="afii10086" unicode="&#x444;" horiz-adv-x="783" 
d="M364 -311h2v-4l107 2l-24 340q60 -29 121 -29q45 0 82 14t64 40t42 62.5t15 80.5q0 54 -21 102.5t-55 85t-77 58t-87 21.5q-32 0 -62.5 -12.5t-56.5 -40.5l7 69h-90l18 -67q-29 28 -61 40.5t-64 12.5q-41 0 -79.5 -19t-68 -51.5t-47.5 -76.5t-18 -93q0 -48 16.5 -89
t46.5 -71t70.5 -47t88.5 -17q63 0 119 30zM585 86q-24 0 -48 19t-43 45.5t-30.5 55t-11.5 47.5q0 25 8.5 45.5t23 35t33.5 22.5t40 8q19 0 39.5 -12t37.5 -30t28.5 -39.5t11.5 -41.5q0 -45 -5 -74.5t-15.5 -47.5t-27.5 -25.5t-41 -7.5zM252 115q-24 0 -49.5 9t-46.5 26.5
t-34 42t-13 55.5q0 17 4 34t13 31t22.5 22.5t32.5 8.5q25 0 53 -12.5t51.5 -33t39 -47t15.5 -53.5q0 -39 -26.5 -61t-61.5 -22z" />
    <glyph glyph-name="afii10087" unicode="&#x445;" horiz-adv-x="566" 
d="M471 -20l85 71l-207 193l180 172l-70 70l-180 -170l-183 177l-72 -70l181 -175l-195 -181l70 -72l194 182z" />
    <glyph glyph-name="afii10088" unicode="&#x446;" horiz-adv-x="573" 
d="M437 -146h83l43 286l-127 -21l3 424l-100 1l-6 -323q-20 -48 -53.5 -74.5t-68.5 -26.5q-27 0 -45 10.5t-28.5 28.5t-14.5 42t-4 52q0 54 7.5 123.5t11.5 154.5l-106 7q-6 -58 -14 -126.5t-8 -136.5q0 -53 8.5 -101.5t29.5 -86t57 -60t92 -22.5q47 0 92 16t73 44l12 -59
l63 1v-153z" />
    <glyph glyph-name="afii10089" unicode="&#x447;" horiz-adv-x="505" 
d="M161 619l-151 -33l13 -100l40 10q3 -36 3.5 -70t3 -66.5t9.5 -64t23 -62.5q42 -25 80 -36.5t74 -11.5q29 0 57.5 6.5t57.5 18.5l-9 -225l100 -2l33 615l-101 23l-28 -300q-20 -12 -38.5 -18.5t-39.5 -6.5q-40 0 -100 27z" />
    <glyph glyph-name="afii10090" unicode="&#x448;" horiz-adv-x="808" 
d="M798 7l-25 114l-30 -2l3 424l-100 1l-6 -323q-19 -50 -52 -76.5t-68 -26.5q-28 0 -46 11t-28.5 30t-15 44t-4.5 54q0 55 7.5 126.5t11.5 155.5l-106 -1q-6 -62 -13 -134t-7 -143q0 -37 3 -71q-20 -38 -49.5 -58.5t-60.5 -20.5q-27 0 -45 10.5t-28.5 28.5t-15 42.5
t-4.5 52.5q0 54 7.5 123.5t11.5 154.5l-106 7q-6 -58 -14 -126.5t-8 -136.5q0 -54 8.5 -103t29.5 -86t57 -59t92 -22q49 0 94 15t80 50q10 -14 24 -24q21 -17 49.5 -25t59.5 -8q47 0 92 16t73 44l12 -59z" />
    <glyph glyph-name="afii10091" unicode="&#x449;" horiz-adv-x="880" 
d="M744 -146h83l43 286l-127 -21l3 424l-100 1l-6 -323q-19 -50 -52 -76.5t-68 -26.5q-28 0 -46 11t-28.5 30t-15 44t-4.5 54q0 55 7.5 126.5t11.5 155.5l-106 -1q-6 -59 -14 -128t-8 -137q0 -22 1 -42.5t4 -40.5q-20 -38 -49.5 -58.5t-60.5 -20.5q-27 0 -45 10.5
t-28.5 28.5t-15 42.5t-4.5 52.5q0 54 7.5 123.5t11.5 154.5l-106 7q-6 -58 -14 -126.5t-8 -136.5q0 -53 8.5 -101.5t29.5 -86t57 -60t92 -22.5q49 0 94 15t80 50q23 -30 57.5 -43.5t75.5 -13.5q47 0 92 16t73 44l12 -59l63 1v-153z" />
    <glyph glyph-name="afii10092" unicode="&#x44a;" horiz-adv-x="498" 
d="M10 466h65l3 -482l85 -1l5 55q26 -40 69.5 -60t90.5 -20q73 0 116.5 42t43.5 114q0 45 -19 80t-50.5 59.5t-72.5 37.5t-85 13q-31 0 -61 -6l12 279l-202 -26v-85zM317 42q-24 0 -48 7.5t-43.5 20.5t-32 31t-12.5 40q0 15 6 29.5t16.5 26t24.5 18.5t31 7q24 0 49.5 -10
t47 -26.5t35 -36.5t13.5 -41q0 -17 -8 -29t-20.5 -20.5t-28 -12.5t-30.5 -4z" />
    <glyph glyph-name="afii10093" unicode="&#x44b;" horiz-adv-x="597" 
d="M151 555l-113 24l-28 -595l85 -1l5 55q26 -40 69.5 -60t90.5 -20q73 0 116.5 42t43.5 114q0 45 -19 80t-50.5 59.5t-72.5 37.5t-85 13q-31 0 -61 -6zM449 512l2 -512l136 10l-35 494zM249 42q-24 0 -48 7.5t-43.5 20.5t-32 31t-12.5 40q0 30 21.5 55t55.5 25q24 0 50 -10
t47 -26t35 -36t14 -41q0 -17 -8 -29t-20.5 -20.5t-28 -12.5t-30.5 -4z" />
    <glyph glyph-name="afii10094" unicode="&#x44c;" horiz-adv-x="430" 
d="M151 555l-113 24l-28 -595l85 -1l5 55q26 -40 69.5 -60t90.5 -20q73 0 116.5 42t43.5 114q0 45 -19 80t-50.5 59.5t-72.5 37.5t-85 13q-31 0 -61 -6zM249 42q-24 0 -48 7.5t-43.5 20.5t-32 31t-12.5 40q0 30 21.5 55t55.5 25q24 0 50 -10t47 -26t35 -36t14 -41
q0 -17 -8 -29t-20.5 -20.5t-28 -12.5t-30.5 -4z" />
    <glyph glyph-name="afii10095" unicode="&#x44d;" 
d="M186 222h183q-19 -66 -55 -91t-81 -25q-42 0 -85.5 15t-81.5 32l-56 -84q57 -32 119 -50t121 -18q49 0 93 14.5t77 47t52.5 84t19.5 125.5q0 60 -21 107t-55.5 79t-78.5 49t-90 17q-58 0 -114 -28.5t-98 -91.5l106 -28q22 18 44 26t43 8q24 0 45.5 -9t39.5 -23.5
t31.5 -34t21.5 -40.5h-180v-81z" />
    <glyph glyph-name="afii10096" unicode="&#x44e;" horiz-adv-x="735" 
d="M10 441v-470l136 10l-15 208h40q0 -57 34.5 -101.5t84 -74.5t103 -45.5t92.5 -15.5q52 0 96 16t76 44.5t49.5 67t17.5 83.5q0 43 -22 92.5t-58.5 92t-85 70.5t-102.5 28q-40 0 -78.5 -13t-72.5 -35t-61.5 -52t-45.5 -64h-74l-11 151zM452 67q-28 1 -60.5 7.5t-60 20.5
t-46 36t-18.5 53q0 26 15 51.5t40 46t56 33t63 12.5q30 0 58 -17t49 -42t33.5 -54t12.5 -52q0 -24 -12 -42t-31.5 -30t-45 -17.5t-53.5 -5.5z" />
    <glyph glyph-name="afii10097" unicode="&#x44f;" horiz-adv-x="410" 
d="M400 447l-4 89h-115q-54 0 -97 -15.5t-72 -41t-44.5 -57.5t-15.5 -65q0 -43 27.5 -82t84.5 -60q5 -7 5 -23q0 -15 -3.5 -34t-9.5 -36.5t-13.5 -29t-15.5 -11.5q-15 3 -22 12.5t-10.5 24.5t-4.5 34.5t-3 41.5l-76 -15q0 -31 6.5 -63.5t20 -59t35.5 -43.5t53 -17
q28 0 50 18t36.5 45.5t22 60t7.5 60.5v9q0 5 -1 10q7 -1 14 -1.5t15 -0.5l-13 -199l91 5v452zM270 459v-182q-7 -2 -14 -2h-13q-25 0 -43.5 8t-31 21t-18.5 30t-6 35t6 34.5t17.5 30t29 21.5t41.5 8q8 0 16 -1t16 -3z" />
    <glyph glyph-name="afii10071" unicode="&#x451;" horiz-adv-x="578" 
d="M512 186q-29 -13 -63 -28.5t-69.5 -29.5t-70.5 -23.5t-65 -9.5q-45 0 -71.5 27.5t-26.5 99.5l393 59q0 70 -20 120.5t-53.5 82t-78.5 46.5t-96 15q-68 0 -120 -21t-88 -59.5t-54.5 -92t-18.5 -119.5q0 -60 16.5 -110t47.5 -85t76.5 -54.5t102.5 -19.5q72 0 153 28.5
t162 82.5zM153 332q0 28 13 49.5t34.5 36t48.5 21.5t55 7q23 0 45 -5.5t39 -16t28 -27t13 -38.5zM206 646q17 15 23.5 29t6.5 28t-7 26.5t-18 21.5t-25 14.5t-29 5.5t-28 -6.5t-22.5 -17t-15 -24t-5.5 -26.5q0 -15 5.5 -28t15 -23t22.5 -16t27 -6q12 0 25 5t25 17zM421 655
q17 15 23.5 29t6.5 28t-7 26.5t-18 21.5t-25 14.5t-29 5.5t-28 -6.5t-22.5 -17t-15 -24t-5.5 -26.5q0 -15 5.5 -28t15 -23t22.5 -16t27 -6q12 0 25 5t25 17z" />
    <glyph glyph-name="afii10101" unicode="&#x454;" 
d="M316 222v81h-180q7 21 21 40.5t32 34t39.5 23.5t45.5 9q21 0 43 -8t44 -26l106 28q-42 63 -98 91.5t-114 28.5q-46 0 -90 -17t-78.5 -49t-55.5 -79t-21 -107q0 -74 19 -125.5t52 -84t77 -47t94 -14.5q59 0 121 18t119 50l-56 84q-38 -17 -81.5 -32t-85.5 -15
q-45 0 -81 25t-55 91h183z" />
    <glyph glyph-name="afii10102" unicode="&#x455;" horiz-adv-x="521" 
d="M509 414q-72 72 -135.5 103t-114.5 31q-33 0 -62.5 -12.5t-51.5 -33.5t-34.5 -49.5t-12.5 -60.5q0 -47 31.5 -90.5t97.5 -72.5q34 -15 62.5 -31t49.5 -32t33 -31t12 -29t-9.5 -24.5t-22 -18t-25 -11t-19.5 -3.5q-26 0 -49.5 16t-44.5 37.5t-39 44t-33 34.5l-132 -74
l58 -82l63 31q14 -29 36.5 -50t49.5 -35.5t56.5 -21.5t59.5 -7q35 0 67 10.5t57 30t39.5 48t14.5 64.5q0 47 -28.5 92.5t-84.5 71.5q-27 12 -59.5 25t-60 28t-46 32.5t-18.5 38.5q0 20 14.5 37t37.5 17q18 0 40.5 -8.5t45 -22t44 -30.5t39.5 -33z" />
    <glyph glyph-name="afii10103" unicode="&#x456;" horiz-adv-x="171" 
d="M21 462v-470l136 10l-33 452zM130 536q17 15 23.5 29t6.5 28t-7 26.5t-18 21.5t-25 14.5t-29 5.5t-28 -6.5t-22.5 -17t-15 -24t-5.5 -26.5q0 -15 5.5 -28t15 -23t22.5 -16t27 -6q12 0 25 5t25 17z" />
    <glyph glyph-name="afii10105" unicode="&#x458;" horiz-adv-x="382" 
d="M145 279l126 11l-19 -431q-9 -42 -25.5 -68.5t-33.5 -26.5q-15 0 -28.5 13t-23 34t-15.5 48t-7 56l-109 -29q1 -50 15 -95.5t39 -81t61 -56.5t82 -21q33 0 61 18t48.5 48t32.5 69.5t12 83.5l11 540l-212 4zM311 434q31 8 43.5 23.5t12.5 34.5q0 13 -6 26.5t-16 24.5
t-23 17.5t-28 6.5q-17 0 -30 -6.5t-22 -16.5t-13.5 -22.5t-4.5 -23.5q0 -25 17 -46t48 -21q10 0 22 3z" />
    <glyph glyph-name="endash" unicode="&#x2013;" 
d="M48 222h371v81h-371v-81z" />
    <glyph glyph-name="emdash" unicode="&#x2014;" horiz-adv-x="667" 
d="M48 222h582v81h-582v-81z" />
    <glyph glyph-name="quoteleft" unicode="&#x2018;" horiz-adv-x="191" 
d="M158 473q-16 20 -26.5 46.5t-11.5 54.5q26 2 43 23.5t17 47.5q0 12 -5 25t-14 24.5t-22 18.5t-28 7q-26 0 -45 -14.5t-31.5 -36t-18.5 -46.5t-6 -46q0 -38 14.5 -76.5t44.5 -73.5z" />
    <glyph glyph-name="quoteright" unicode="&#x2019;" horiz-adv-x="191" 
d="M122 427q30 35 44.5 73.5t14.5 76.5q0 21 -6 46t-18.5 46.5t-31.5 36t-45 14.5q-15 0 -28 -7t-22 -18.5t-14 -24.5t-5 -25q0 -26 17 -47.5t43 -23.5q-1 -28 -11.5 -54.5t-26.5 -46.5z" />
    <glyph glyph-name="quotedblleft" unicode="&#x201c;" horiz-adv-x="363" 
d="M241 427l89 46q-16 20 -26.5 46.5t-11.5 54.5q26 2 43 23.5t17 47.5q0 12 -5 25t-14 24.5t-22 18.5t-28 7q-26 0 -45 -14.5t-31.5 -36t-18.5 -46.5t-6 -46q0 -38 14.5 -76.5t44.5 -73.5zM68 419l87 44q-16 19 -26 44t-11 51q26 2 42 22.5t16 46.5q0 11 -5 23.5t-14 23
t-21 17t-27 6.5q-25 0 -43.5 -13t-30.5 -33.5t-18 -44.5t-6 -45q0 -37 14 -73.5t43 -68.5z" />
    <glyph glyph-name="quotedblright" unicode="&#x201d;" horiz-adv-x="363" 
d="M122 427q30 35 44.5 73.5t14.5 76.5q0 21 -6 46t-18.5 46.5t-31.5 36t-45 14.5q-15 0 -28 -7t-22 -18.5t-14 -24.5t-5 -25q0 -26 17 -47.5t43 -23.5q-1 -28 -11.5 -54.5t-26.5 -46.5zM295 419q29 32 43 68.5t14 73.5q0 21 -6 45t-18 44.5t-31 33.5t-44 13q-14 0 -26 -6.5
t-21 -17t-14 -23t-5 -23.5q0 -26 16 -46.5t42 -22.5q-1 -26 -11 -51t-26 -44z" />
    <glyph glyph-name="minus" unicode="&#x2212;" 
d="M48 222h371v81h-371v-81z" />
    <glyph glyph-name="FL2013h" 
d="M48 222h371v81h-371v-81z" />
    <glyph glyph-name="FL2014h" horiz-adv-x="667" 
d="M48 222h582v81h-582v-81z" />
    <glyph glyph-name="FL002Dh" 
d="M48 222h371v81h-371v-81z" />
    <glyph glyph-name="FL003Dh" 
d="M48 222h371v81h-371v-81zM48 342h371v81h-371v-81z" />
    <glyph glyph-name="FL005Fh" horiz-adv-x="667" 
d="M48 -69h582v81h-582v-81z" />
    <glyph glyph-name="FL007Ch" horiz-adv-x="114" 
d="M10 -129h94l-7 879l-76 -4z" />
    <glyph glyph-name="FL002Bh" 
d="M195 442v-139h-147v-81h147v-151h81v151h143v81h-143v139h-81z" />
    <glyph glyph-name="FL0060h" horiz-adv-x="191" 
d="M122 427q30 35 44.5 73.5t14.5 76.5q0 21 -6 46t-18.5 46.5t-31.5 36t-45 14.5q-15 0 -28 -7t-22 -18.5t-14 -24.5t-5 -25q0 -26 17 -47.5t43 -23.5q-1 -28 -11.5 -54.5t-26.5 -46.5z" />
    <glyph glyph-name="FL00C0h" horiz-adv-x="548" 
d="M90 603l72 5l-152 -592l126 -7l42 209l164 6l41 -227l155 3l-233 710l-215 -1v-106zM260 537l71 -216l-137 -2z" />
    <glyph glyph-name="FL00C1h" horiz-adv-x="420" 
d="M111 638l41 1l258 -9v109l-394 -1q-4 0 -6 1v-735q22 -1 47 -2t53 -1q60 0 113.5 9t93.5 33t63.5 65.5t23.5 107.5q0 53 -24 104.5t-78 88.5q-35 17 -82 27t-116 20zM117 359q14 2 26 3.5t24 1.5q37 0 64 -11t45 -29.5t27 -42t9 -47.5q0 -26 -9.5 -50.5t-28.5 -43.5
t-47 -31t-65 -12q-24 0 -52 6z" />
    <glyph glyph-name="FL00C2h" horiz-adv-x="414" 
d="M10 4q22 -1 47 -2t53 -1q60 0 113.5 9t93.5 33t63.5 65.5t23.5 107.5q0 53 -24 104.5t-78 88.5q38 35 55.5 69t17.5 65q0 43 -28.5 79.5t-73.5 63t-101.5 41.5t-112.5 15q-25 0 -49 -3v-735zM117 359q14 2 26.5 3.5t23.5 1.5q37 0 64 -11t45 -29t27 -41.5t9 -47.5
q0 -26 -9.5 -50.5t-28.5 -44t-47 -31.5t-65 -12q-24 0 -52 6zM111 638q36 0 65.5 -3t49.5 -12t31 -25t11 -41q0 -49 -36.5 -75.5t-99.5 -26.5h-14q-6 0 -14 1z" />
    <glyph glyph-name="FL00C3h" horiz-adv-x="517" 
d="M16 601h34l5 -539h-45l9 -92l199 -1l-1 98h-58v536l348 -10v109l-491 -1v-100z" />
    <glyph glyph-name="FL00C4h" horiz-adv-x="640" 
d="M19 412q12 24 21 40t18 29.5t21 27t30 31.5q34 19 55.5 27t38.5 8l4 -474l-74 -18l-13 -83h97q110 0 188 24.5t128 65.5t73.5 94t23.5 111q0 68 -30.5 136t-85 122.5t-131 88.5t-169.5 34q-32 0 -61 -9t-55.5 -24.5t-48.5 -36t-39 -42.5zM308 560q56 -5 99 -26.5
t72 -54.5t43.5 -73.5t14.5 -82.5q0 -41 -14 -79.5t-42.5 -69t-72 -50.5t-101.5 -23z" />
    <glyph glyph-name="FL00C5h" horiz-adv-x="545" 
d="M14 -10l520 15l1 175l-98 22l-19 -101l-270 -7l11 240l196 7l8 104h-202l1 154h344v100l-476 -1l18 -607l-38 -1z" />
    <glyph glyph-name="FL00C6h" horiz-adv-x="969" 
d="M624 357q7 -29 15 -66.5t19 -77.5t26 -78.5t37 -69t52 -49t70 -18.5q31 0 53.5 15.5t36 40.5t20 55t6.5 59l-94 34q-4 -7 -6 -23.5t-5 -34t-7 -31t-11 -13.5q-26 0 -42 22.5t-26 57.5t-15.5 75.5t-11.5 77.5t-14.5 63.5t-22.5 32.5h-2l218 221l-72 70l-296 -293l8 298
l-199 -10v-100l97 2l-10 -197l-266 293l-79 -70l195 -221h-2q-17 -6 -28 -32.5t-20 -63.5t-18.5 -77.5t-22.5 -75.5t-31.5 -57.5t-46.5 -22.5q-8 0 -10.5 13.5t-3.5 31t-1.5 34t-3.5 23.5l-98 -34q0 -29 3.5 -59t14 -54.5t30 -40.5t50.5 -16q40 0 72 18.5t57.5 49t44.5 69.5
t34.5 79t27 77.5t22.5 65.5l71 -49l-13 -305l94 7h8l19 305z" />
    <glyph glyph-name="FL00C7h" horiz-adv-x="474" 
d="M38 152l58 39q8 -33 27 -64t46 -55.5t60 -39t69 -14.5q37 0 67.5 14.5t52.5 37t33.5 49t11.5 49.5q0 29 -10.5 58.5t-28.5 57.5t-41 52t-47 43q30 18 52.5 32.5t37.5 28.5t22.5 29.5t7.5 35.5q0 38 -15 73t-40.5 61.5t-60 42.5t-73.5 16q-31 0 -62 -7.5t-59 -21
t-51.5 -33t-38.5 -42.5l65 -69q28 35 69.5 53.5t78.5 18.5q30 0 52 -12.5t22 -38.5q0 -20 -15 -44t-37 -48t-47.5 -46t-46.5 -38l-12 -1q26 -14 55 -37t54 -50t41 -54.5t16 -49.5t-14 -34t-35 -12q-18 0 -39.5 10t-41.5 31t-36.5 54.5t-25.5 80.5l-149 -48z" />
    <glyph glyph-name="FL00C8h" horiz-adv-x="661" 
d="M637 -36v100h-52l1 510l65 -2v100l-235 3l-222 -478l18 398l25 -4l12 100l-239 5v-100h77l-15 -558l164 -26l240 574l9 -522h-29v-100h181z" />
    <glyph glyph-name="FL00C9h" horiz-adv-x="661" 
d="M637 -36v100h-52l1 510l65 -2v100l-235 3l-222 -478l18 398l25 -4l12 100l-239 5v-100h77l-15 -558l164 -26l240 574l9 -522h-29v-100h181zM210 904q-2 -12 -3.5 -22.5t-1.5 -20.5q0 -33 11.5 -57t30 -40.5t42.5 -24.5t49 -8t49 8t43 24t30.5 40t11.5 56q0 22 -8 52
l-100 -3v-26q0 -21 -6 -37.5t-29 -16.5q-8 0 -12 6t-5.5 16.5t-2.5 24.5t-2 31z" />
    <glyph glyph-name="FL00CAh" horiz-adv-x="618" 
d="M273 350q7 -29 15 -66.5t19 -77.5t26 -78.5t37 -69t52 -49t70 -18.5q31 0 53.5 15.5t36 40.5t20 55t6.5 59l-94 34q-4 -7 -6 -23.5t-5 -34t-7 -31t-11 -13.5q-26 0 -42 22.5t-26 57.5t-15.5 75.5t-11.5 77.5t-14.5 63.5t-22.5 32.5h-2l218 221l-72 70l-296 -293l8 298
l-199 -10v-100l97 2l-30 -606l100 -8l19 305z" />
    <glyph glyph-name="FL00CBh" horiz-adv-x="648" 
d="M553 725l-234 -11q-42 -32 -71 -76t-50 -95t-35 -107.5t-25 -114.5t-21 -115t-23 -110l-76 6l-8 -100l179 7q18 80 32.5 158t31 155t38 154t54.5 155q28 17 53 20.5t54 3.5l40 -635l146 -9z" />
    <glyph glyph-name="FL00CCh" horiz-adv-x="799" 
d="M10 556l114 -2v-472l-51 4v-113l185 -7l-9 120h-25l10 394l135 -334h-27v-100l178 2v100l-40 -2l153 272l14 -317l-25 1l-6 -100l173 8v100l-42 -2l-20 562l-108 -14l-200 -339l-122 382l-279 14z" />
    <glyph glyph-name="FL00CDh" horiz-adv-x="492" 
d="M360 687l-2 -292l-167 -18l-8 314l-169 -20l-4 -128l78 11l12 -572l109 9l-3 286l165 1l5 -280l106 -2l-15 690z" />
    <glyph glyph-name="FL00CEh" horiz-adv-x="554" 
d="M270 -1q65 0 116 32t86 83.5t53.5 118t18.5 135.5q0 62 -18 125t-53.5 114t-88.5 83.5t-124 32.5q-60 0 -106 -33t-78 -86t-48.5 -121t-16.5 -137q0 -66 15.5 -128t47.5 -111t81 -78.5t115 -29.5zM245 92q-30 1 -52 21t-36 52t-21 73.5t-7 85.5q0 54 10 107t29 95.5
t47.5 69t65.5 26.5q44 0 76 -18.5t53 -48t31 -65t10 -69.5q0 -38 -8.5 -77t-23 -75.5t-34.5 -68.5t-42.5 -56t-47.5 -38t-50 -14z" />
    <glyph glyph-name="FL00CFh" horiz-adv-x="492" 
d="M14 671l-4 -128l78 11l12 -572l109 9l-3 577l165 1l5 -571l106 -2l-15 690z" />
    <glyph glyph-name="FL00D1h" horiz-adv-x="554" 
d="M532 491q-50 103 -110.5 147.5t-123.5 44.5q-56 0 -107.5 -30t-91.5 -80.5t-64 -115t-24 -133.5q0 -52 18.5 -107.5t53 -101.5t83 -75.5t108.5 -29.5q37 0 74.5 10.5t72.5 28.5t66 42.5t57 51.5l-62 83q-39 -42 -85.5 -70.5t-94.5 -28.5q-34 0 -64.5 19.5t-53 49.5
t-36 67.5t-13.5 73.5q0 43 13.5 83t36.5 71t53.5 49.5t64.5 18.5q32 0 66 -20t66 -66z" />
    <glyph glyph-name="FL00D2h" horiz-adv-x="530" 
d="M10 595h177l3 -604l116 -4l-10 630l224 -9l-24 109l-481 -5z" />
    <glyph glyph-name="FL00D3h" horiz-adv-x="486" 
d="M10 149q55 -78 117 -116.5t122 -38.5q55 0 97.5 26.5t71 66.5t43 87t14.5 88q0 36 -4.5 76.5t-11.5 87.5q-6 39 -8.5 66.5t-3 58t-1.5 71t-4 103.5l-102 -14q2 -34 4 -58t2 -43q0 -26 -9 -59.5t-26.5 -63t-44.5 -50t-63 -20.5q-23 0 -38.5 11.5t-25 29t-14 38.5t-4.5 41
l15 178l-113 -3q-4 -66 -7.5 -114t-3.5 -85q0 -41 12 -78.5t35 -66t57 -45.5t78 -17q41 0 83.5 21t80.5 71q9 -35 14 -67t5 -61q0 -26 -7 -55.5t-21 -54.5t-36 -41.5t-53 -16.5q-21 0 -43 10t-43 25.5t-41.5 35t-39.5 38.5z" />
    <glyph glyph-name="FL00D4h" horiz-adv-x="667" 
d="M390 689l-108 -6l-6 -77q-67 -4 -117 -23.5t-83 -49.5t-49.5 -67.5t-16.5 -77.5q0 -37 16 -72t48.5 -63.5t82 -48.5t117.5 -26l-5 -178l134 -7l-10 182q68 6 117.5 26t82 48.5t48.5 63.5t16 72q0 40 -16.5 77.5t-49.5 67.5t-83 49.5t-117 23.5zM125 393q0 25 11.5 47.5
t32.5 38.5t51.5 25.5t68.5 9.5l-15 -236q-75 0 -112 32t-37 83zM542 390q0 -51 -37.5 -82.5t-112.5 -32.5v236q70 0 110 -35t40 -86z" />
    <glyph glyph-name="FL00D5h" horiz-adv-x="615" 
d="M491 -11l114 36l-220 366l199 307l-134 18l-151 -240l-137 238l-141 -14l193 -323l-204 -368l130 2l154 285z" />
    <glyph glyph-name="FL00D6h" horiz-adv-x="562" 
d="M548 -3l4 128l-98 -11l-12 572l-109 -9l3 -577l-165 -1l-5 571l-141 7l-15 -86l52 -2l13 -607z" />
    <glyph glyph-name="FL00D8h" horiz-adv-x="732" 
d="M722 -5l-12 691l-109 -9l3 -577h-164l2 578l-109 -9l3 -577l-165 -1l-5 571l-141 7l-15 -86l52 -2l13 -607z" />
    <glyph glyph-name="FL00D9h" horiz-adv-x="830" 
d="M816 -3l4 128l-98 -11l-12 572l-109 -9l3 -577h-164l2 578l-109 -9l3 -577l-165 -1l-5 571l-141 7l-15 -86l52 -2l13 -607z" />
    <glyph glyph-name="FL00DAh" horiz-adv-x="490" 
d="M10 590h89l6 -588l96 3q67 2 119 22t87.5 51t54 69.5t18.5 78.5q0 37 -16.5 72.5t-50 64t-85.5 47.5t-123 24l18 256l-213 -6v-94zM205 98v233q19 4 40 4q30 0 53 -10t38.5 -26t23 -37.5t7.5 -43.5q0 -24 -8 -46t-24 -39t-40 -27.5t-56 -10.5q-16 0 -34 3z" />
    <glyph glyph-name="FL00DBh" horiz-adv-x="703" 
d="M10 113l5 -113l158 5q67 2 119 22t87.5 51t54 69.5t18.5 78.5q0 37 -16.5 72.5t-50 64t-85.5 47.5t-123 24l18 256l-125 -4l7 -583zM417 582h84l-5 -588l191 9v100h-91l5 479l92 3l-4 100l-272 -3v-100zM177 98v233q19 4 40 4q30 0 53 -10t38.5 -26t23 -37.5t7.5 -43.5
q0 -24 -8 -46t-24 -39t-40 -27.5t-56 -10.5q-16 0 -34 3z" />
    <glyph glyph-name="FL00DCh" horiz-adv-x="462" 
d="M10 113l5 -113l158 5q67 2 119 22t87.5 51t54 69.5t18.5 78.5q0 37 -16.5 72.5t-50 64t-85.5 47.5t-123 24l18 256l-125 -4l7 -583zM177 98v233q19 4 40 4q30 0 53 -10t38.5 -26t23 -37.5t7.5 -43.5q0 -24 -8 -46t-24 -39t-40 -27.5t-56 -10.5q-16 0 -34 3z" />
    <glyph glyph-name="FL00DFh" horiz-adv-x="521" 
d="M511 577l-5 114h-150q-70 0 -124 -20t-91.5 -53t-57 -74.5t-19.5 -83.5q0 -56 34.5 -105t108.5 -76q4 -4 5.5 -12t1.5 -19q0 -19 -4.5 -43.5t-12 -46t-17.5 -36.5t-20 -15q-19 3 -28 15.5t-13 32t-5.5 44.5t-4.5 53l-98 -20q0 -39 8 -80.5t26 -76t46 -56.5t68 -22
q36 0 64 23t46.5 57.5t28 76t9.5 77.5v14t-1 13q9 -1 18.5 -1.5t19.5 -0.5l-18 -256l118 6v581zM344 592v-233q-10 -2 -19.5 -3t-17.5 -1q-31 0 -54.5 10.5t-39 27.5t-23.5 38.5t-8 44.5q0 22 7.5 44t23 38.5t38.5 27t54 10.5q20 0 39 -4z" />
    <glyph glyph-name="FL00E0h" horiz-adv-x="634" 
d="M354 454q0 -23 -10 -53q-39 14 -75 14q-50 0 -96.5 -21t-82.5 -56t-58 -79.5t-22 -92.5q0 -39 14 -72t39 -56.5t59.5 -36.5t76.5 -13q45 0 94 16t99 48l9 -53l223 32l-23 120l-135 -25q-7 14 -9.5 35.5t-2.5 49.5q0 30 2 64.5t4 67t4 60.5t2 47zM222 99q-48 0 -76 21.5
t-28 64.5q0 25 10.5 46t27.5 36.5t38.5 24t44.5 8.5q15 0 36 -7.5t39.5 -22.5t32 -37t13.5 -50q0 -19 -21.5 -34.5t-47.5 -26.5t-47.5 -17z" />
    <glyph glyph-name="FL00E1h" horiz-adv-x="360" 
d="M113 410l169 15v74l-268 -1q-3 0 -4 1v-499q11 -2 24 -3t28 -1q42 0 92.5 8.5t93.5 27.5t72 48.5t29 71.5q0 55 -24 92t-60 59t-77 31.5t-75 10.5v65zM115 241q18 3 34 3q50 0 74 -27t24 -60q0 -17 -6.5 -34t-19.5 -30.5t-32 -21.5t-44 -8q-18 0 -35 4z" />
    <glyph glyph-name="FL00E2h" horiz-adv-x="364" 
d="M10 1q58 -3 107 -3q58 0 102.5 6.5t74.5 22.5t45 43.5t15 70.5q0 18 -11 36t-28 35t-37 32.5t-38 28.5q12 11 27.5 16.5t29.5 13.5t24 23t10 44q0 64 -65 97t-211 33h-45v-499zM114 239q18 3 34 3q50 0 74 -27t24 -60q0 -17 -6.5 -34t-19.5 -30t-31.5 -21t-43.5 -8
q-18 0 -35 4zM110 428h14q43 0 67.5 -11.5t24.5 -43.5t-25 -50.5t-67 -18.5h-9t-9 1z" />
    <glyph glyph-name="FL00E3h" horiz-adv-x="490" 
d="M47 2l203 -20l-2 89l-38 6l-6 323l222 -7l54 94l-462 10l-8 -97l93 -7l-2 -311h-48z" />
    <glyph glyph-name="FL00E4h" horiz-adv-x="502" 
d="M123 -109l-83 -62q70 -75 131 -114t118 -39q52 0 90.5 25.5t63.5 64.5t37 85t12 86q0 48 -7.5 100t-15.5 109q-4 28 -7 48.5t-5 39.5t-3 37.5t-1 41.5q0 56 -17 93.5t-46.5 60t-69.5 32t-86 9.5q-26 0 -64 -14.5t-73 -40t-60 -60.5t-25 -75q0 -81 6 -139.5t26 -97
t57.5 -57t102.5 -18.5q41 0 83.5 21t80.5 71q12 -48 22 -94t10 -87q0 -23 -5.5 -46.5t-17.5 -42.5t-31 -31t-45 -12q-23 0 -46.5 9.5t-46.5 24.5t-44.5 34t-40.5 38zM208 125q-29 1 -45 16t-24 37t-10 48.5t-2 51.5q0 26 9 50.5t24.5 43.5t37 30.5t46.5 11.5q17 0 36 -5.5
t35.5 -16t27.5 -27t11 -37.5q0 -41 -6 -78t-22.5 -64.5t-45 -44t-72.5 -16.5z" />
    <glyph glyph-name="FL00E5h" horiz-adv-x="578" 
d="M512 186q-29 -13 -63 -28.5t-69.5 -29.5t-70.5 -23.5t-65 -9.5q-45 0 -71.5 27.5t-26.5 99.5l393 59q0 70 -20 120.5t-53.5 82t-78.5 46.5t-96 15q-68 0 -120 -21t-88 -59.5t-54.5 -92t-18.5 -119.5q0 -60 16.5 -110t47.5 -85t76.5 -54.5t102.5 -19.5q72 0 153 28.5
t162 82.5zM153 332q0 28 13 49.5t34.5 36t48.5 21.5t55 7q23 0 45 -5.5t39 -16t28 -27t13 -38.5z" />
    <glyph glyph-name="FL00E6h" horiz-adv-x="773" 
d="M402 621l-97 -3l14 -305q-23 48 -52.5 91t-60 76.5t-59.5 55t-51 27.5q-7 -6 -16.5 -17t-20.5 -24t-23.5 -26.5t-25.5 -22.5q28 -14 65 -34t69.5 -46t55 -58t22.5 -71q0 -8 -3.5 -22t-12.5 -34t-25.5 -44t-42.5 -51l-117 13l6 -111l167 -5l145 197l22 -226l92 3l-17 213
l161 -184l166 5l-9 111l-116 -13q-29 27 -49 51t-32 44t-17.5 34t-5.5 22q0 38 20 70.5t48.5 58.5t60 46t54.5 34q-15 9 -29 22.5t-27 26.5t-23.5 24t-18.5 17q-21 -6 -47 -27.5t-52.5 -55t-50 -76.5t-39.5 -91z" />
    <glyph glyph-name="FL00E7h" horiz-adv-x="558" 
d="M96 -178l-86 -71q54 -59 125 -86.5t143 -27.5q53 0 101.5 14.5t86 43t60 70.5t22.5 96q0 33 -10.5 63.5t-33 54.5t-57.5 39t-85 17q75 31 102.5 79.5t27.5 114.5q0 48 -24.5 89.5t-58.5 72.5t-70 49t-59 18q-47 0 -81 -4t-60.5 -13t-49.5 -24.5t-47 -39.5q0 -25 9 -46
t17 -56q29 34 74 58.5t90 24.5q29 0 57 -10t50.5 -27t36.5 -40.5t14 -50.5q0 -43 -16 -70t-38 -43.5t-43.5 -26t-33.5 -18.5l-20 -66q36 -14 68 -31.5t56 -39t38 -47.5t14 -58q0 -20 -12.5 -35.5t-32.5 -27t-46.5 -17.5t-54.5 -6q-47 0 -93.5 18t-79.5 60z" />
    <glyph glyph-name="FL00E8h" horiz-adv-x="544" 
d="M32 538q-6 -58 -14 -126.5t-8 -136.5q0 -53 8.5 -101.5t29.5 -86t57 -60t92 -22.5q47 0 92 16t73 44l12 -59l160 3l-14 141l-84 -31l3 424l-100 1l-6 -323q-20 -48 -53.5 -74.5t-68.5 -26.5q-27 0 -45 10.5t-28.5 28.5t-14.5 42t-4 52q0 54 7.5 123.5t11.5 154.5z" />
    <glyph glyph-name="FL00E9h" horiz-adv-x="544" 
d="M32 538q-6 -58 -14 -126.5t-8 -136.5q0 -53 8.5 -101.5t29.5 -86t57 -60t92 -22.5q47 0 92 16t73 44l12 -59l160 3l-14 141l-84 -31l3 424l-100 1l-6 -323q-20 -48 -53.5 -74.5t-68.5 -26.5q-27 0 -45 10.5t-28.5 28.5t-14.5 42t-4 52q0 54 7.5 123.5t11.5 154.5zM98 688
q-2 -12 -3.5 -22.5t-1.5 -20.5q0 -54 31.5 -79.5t73.5 -25.5q28 0 56.5 10.5t51.5 31t37.5 50t14.5 67.5q0 26 -7 53l-100 -3q0 -42 -7.5 -61t-34.5 -19q-8 0 -17.5 4.5t-11.5 25.5z" />
    <glyph glyph-name="FL00EAh" horiz-adv-x="532" 
d="M161 618l-151 -33l13 -100l48 10l22 -515l100 2l-9 225l172 -197l166 5l-9 111l-116 -13q-29 27 -49 51t-32 44t-17.5 34t-5.5 22q0 38 19.5 70.5t48 58.5t60 46t55.5 34q-15 9 -29 22.5t-27 26.5t-23.5 24t-18.5 17q-21 -6 -47 -27.5t-52.5 -55t-50 -76.5t-39.5 -91z
" />
    <glyph glyph-name="FL00EBh" horiz-adv-x="645" 
d="M222 11l26 96l-48 12l142 225l110 -241h-67v-100l247 -3l3 116l-58 -3l-187 386l-84 8l-242 -388l-42 6l-12 -100z" />
    <glyph glyph-name="FL00ECh" horiz-adv-x="577" 
d="M10 388l81 -2v-337l-36 3v-81l132 -5l-6 86h-18l7 281l96 -238h-19v-72l127 2v71l-28 -1l109 194l10 -227l-18 1l-4 -71l124 5v72l-30 -2l-15 402l-77 -10l-143 -242l-87 273l-199 10z" />
    <glyph glyph-name="FL00EDh" horiz-adv-x="555" 
d="M161 619l-151 -33l13 -100l48 10l22 -515l100 2l-9 225l187 2l-9 -225l100 -2l22 515l48 -10l13 100l-151 33l-28 -300q-41 -4 -90 -2t-88 4z" />
    <glyph glyph-name="FL00EEh" horiz-adv-x="574" 
d="M324 -48q52 0 96 16t76 44.5t49.5 67t17.5 83.5q0 43 -22 92.5t-58.5 92t-85 70.5t-102.5 28t-105.5 -23t-91.5 -60.5t-64 -85.5t-24 -97q0 -37 15.5 -68t41 -56.5t58.5 -44.5t68 -32.5t69 -20t62 -6.5zM291 67q-28 1 -60.5 7.5t-60 20.5t-46 36t-18.5 53q0 26 15 51.5
t40 46t56 33t63 12.5q30 0 58 -17t49 -42t33.5 -54t12.5 -52q0 -24 -12 -42t-31.5 -30t-45 -17.5t-53.5 -5.5z" />
    <glyph glyph-name="FL00EFh" horiz-adv-x="507" 
d="M12 392q24 2 46 3t32 1h8l-28 -402l100 -6l24 321q40 57 78 85t67 28q34 0 46 -36t12 -90q0 -38 -4 -81.5t-9 -85t-9 -78.5t-4 -62l95 -9q12 72 21.5 150t9.5 152q0 45 -5 88t-21.5 77t-48.5 55t-85 21q-38 0 -74.5 -12.5t-62.5 -35.5v45l-190 -22z" />
    <glyph glyph-name="FL00F1h" 
d="M468 404q-42 63 -98 91.5t-114 28.5q-46 0 -90 -17t-78.5 -49.5t-55.5 -79.5t-21 -106q0 -74 19 -125.5t52 -84t77 -47t94 -14.5q59 0 121 18t119 50l-56 84q-38 -17 -81.5 -32t-85.5 -15q-23 0 -48 9t-46 27.5t-34.5 47t-13.5 67.5q0 27 11.5 54.5t31.5 49t47 35.5
t57 14q21 0 43 -8t44 -26z" />
    <glyph glyph-name="FL00F2h" horiz-adv-x="682" 
d="M10 512l4 -100l89 -1l-31 -383l100 -6l28 342q4 24 27 36t47 12q18 0 31.5 -7.5t13.5 -22.5l-9 -364l115 7l2 326q3 27 17 38.5t32 11.5q31 0 49 -24t28 -61t13 -83t3 -89v-77q0 -34 -1 -56l104 9v107q0 31 -1.5 71.5t-6.5 83.5t-15 84.5t-27.5 74t-44 52.5t-64.5 20
q-26 0 -54 -8.5t-54 -23.5q-12 27 -36 38.5t-53 11.5q-28 0 -56.5 -8t-48.5 -20l-4 20z" />
    <glyph glyph-name="FL00F3h" horiz-adv-x="497" 
d="M35 -171q70 -75 131 -114t118 -39q52 0 90.5 25.5t63.5 64.5t37 85t12 86q0 48 -7.5 100t-15.5 109q-6 39 -10 76t-7.5 79t-6 91.5t-5.5 112.5l-100 -14q6 -46 10 -88t4 -80q0 -40 -6.5 -76t-23 -63t-45 -43t-71.5 -16q-19 0 -35 7.5t-26 26.5q-11 22 -15 54.5t-4 69.5
q0 57 4 113.5t4 98.5l-113 -3q-3 -54 -5 -102t-2 -91q0 -57 7 -110t27.5 -93.5t57.5 -65t96 -24.5q41 0 83.5 21t80.5 71q12 -48 22 -94t10 -87q0 -23 -5.5 -46.5t-17.5 -42.5t-31 -31t-45 -12q-23 0 -46.5 9.5t-46.5 24.5t-44.5 34t-40.5 38z" />
    <glyph glyph-name="FL00F4h" horiz-adv-x="783" 
d="M364 -311h2v-4l107 2l-24 340q60 -29 121 -29q45 0 82 14t64 40t42 62.5t15 80.5q0 54 -21 102.5t-55 85t-77 58t-87 21.5q-32 0 -62.5 -12.5t-56.5 -40.5l7 69h-90l18 -67q-29 28 -61 40.5t-64 12.5q-41 0 -79.5 -19t-68 -51.5t-47.5 -76.5t-18 -93q0 -48 16.5 -89
t46.5 -71t70.5 -47t88.5 -17q63 0 119 30zM585 86q-24 0 -48 19t-43 45.5t-30.5 55t-11.5 47.5q0 25 8.5 45.5t23 35t33.5 22.5t40 8q19 0 39.5 -12t37.5 -30t28.5 -39.5t11.5 -41.5q0 -45 -5 -74.5t-15.5 -47.5t-27.5 -25.5t-41 -7.5zM252 115q-24 0 -49.5 9t-46.5 26.5
t-34 42t-13 55.5q0 17 4 34t13 31t22.5 22.5t32.5 8.5q25 0 53 -12.5t51.5 -33t39 -47t15.5 -53.5q0 -39 -26.5 -61t-61.5 -22z" />
    <glyph glyph-name="FL00F5h" horiz-adv-x="566" 
d="M471 -20l85 71l-207 193l180 172l-70 70l-180 -170l-183 177l-72 -70l181 -175l-195 -181l70 -72l194 182z" />
    <glyph glyph-name="FL00F6h" horiz-adv-x="573" 
d="M437 -146h83l43 286l-127 -21l3 424l-100 1l-6 -323q-20 -48 -53.5 -74.5t-68.5 -26.5q-27 0 -45 10.5t-28.5 28.5t-14.5 42t-4 52q0 54 7.5 123.5t11.5 154.5l-106 7q-6 -58 -14 -126.5t-8 -136.5q0 -53 8.5 -101.5t29.5 -86t57 -60t92 -22.5q47 0 92 16t73 44l12 -59
l63 1v-153z" />
    <glyph glyph-name="FL00F7h" horiz-adv-x="505" 
d="M161 619l-151 -33l13 -100l40 10q3 -36 3.5 -70t3 -66.5t9.5 -64t23 -62.5q42 -25 80 -36.5t74 -11.5q29 0 57.5 6.5t57.5 18.5l-9 -225l100 -2l33 615l-101 23l-28 -300q-20 -12 -38.5 -18.5t-39.5 -6.5q-40 0 -100 27z" />
    <glyph glyph-name="FL00F8h" horiz-adv-x="808" 
d="M798 7l-25 114l-30 -2l3 424l-100 1l-6 -323q-19 -50 -52 -76.5t-68 -26.5q-28 0 -46 11t-28.5 30t-15 44t-4.5 54q0 55 7.5 126.5t11.5 155.5l-106 -1q-6 -62 -13 -134t-7 -143q0 -37 3 -71q-20 -38 -49.5 -58.5t-60.5 -20.5q-27 0 -45 10.5t-28.5 28.5t-15 42.5
t-4.5 52.5q0 54 7.5 123.5t11.5 154.5l-106 7q-6 -58 -14 -126.5t-8 -136.5q0 -54 8.5 -103t29.5 -86t57 -59t92 -22q49 0 94 15t80 50q10 -14 24 -24q21 -17 49.5 -25t59.5 -8q47 0 92 16t73 44l12 -59z" />
    <glyph glyph-name="FL00F9h" horiz-adv-x="880" 
d="M744 -146h83l43 286l-127 -21l3 424l-100 1l-6 -323q-19 -50 -52 -76.5t-68 -26.5q-28 0 -46 11t-28.5 30t-15 44t-4.5 54q0 55 7.5 126.5t11.5 155.5l-106 -1q-6 -59 -14 -128t-8 -137q0 -22 1 -42.5t4 -40.5q-20 -38 -49.5 -58.5t-60.5 -20.5q-27 0 -45 10.5
t-28.5 28.5t-15 42.5t-4.5 52.5q0 54 7.5 123.5t11.5 154.5l-106 7q-6 -58 -14 -126.5t-8 -136.5q0 -53 8.5 -101.5t29.5 -86t57 -60t92 -22.5q49 0 94 15t80 50q23 -30 57.5 -43.5t75.5 -13.5q47 0 92 16t73 44l12 -59l63 1v-153z" />
    <glyph glyph-name="FL00FAh" horiz-adv-x="498" 
d="M10 466h65l3 -482l85 -1l5 55q26 -40 69.5 -60t90.5 -20q73 0 116.5 42t43.5 114q0 45 -19 80t-50.5 59.5t-72.5 37.5t-85 13q-31 0 -61 -6l12 279l-202 -26v-85zM317 42q-24 0 -48 7.5t-43.5 20.5t-32 31t-12.5 40q0 15 6 29.5t16.5 26t24.5 18.5t31 7q24 0 49.5 -10
t47 -26.5t35 -36.5t13.5 -41q0 -17 -8 -29t-20.5 -20.5t-28 -12.5t-30.5 -4z" />
    <glyph glyph-name="FL00FBh" horiz-adv-x="597" 
d="M151 555l-113 24l-28 -595l85 -1l5 55q26 -40 69.5 -60t90.5 -20q73 0 116.5 42t43.5 114q0 45 -19 80t-50.5 59.5t-72.5 37.5t-85 13q-31 0 -61 -6zM449 512l2 -512l136 10l-35 494zM249 42q-24 0 -48 7.5t-43.5 20.5t-32 31t-12.5 40q0 30 21.5 55t55.5 25q24 0 50 -10
t47 -26t35 -36t14 -41q0 -17 -8 -29t-20.5 -20.5t-28 -12.5t-30.5 -4z" />
    <glyph glyph-name="FL00FCh" horiz-adv-x="430" 
d="M151 555l-113 24l-28 -595l85 -1l5 55q26 -40 69.5 -60t90.5 -20q73 0 116.5 42t43.5 114q0 45 -19 80t-50.5 59.5t-72.5 37.5t-85 13q-31 0 -61 -6zM249 42q-24 0 -48 7.5t-43.5 20.5t-32 31t-12.5 40q0 30 21.5 55t55.5 25q24 0 50 -10t47 -26t35 -36t14 -41
q0 -17 -8 -29t-20.5 -20.5t-28 -12.5t-30.5 -4z" />
    <glyph glyph-name="FL00FFh" horiz-adv-x="410" 
d="M400 447l-4 89h-115q-54 0 -97 -15.5t-72 -41t-44.5 -57.5t-15.5 -65q0 -43 27.5 -82t84.5 -60q5 -7 5 -23q0 -15 -3.5 -34t-9.5 -36.5t-13.5 -29t-15.5 -11.5q-15 3 -22 12.5t-10.5 24.5t-4.5 34.5t-3 41.5l-76 -15q0 -31 6.5 -63.5t20 -59t35.5 -43.5t53 -17
q28 0 50 18t36.5 45.5t22 60t7.5 60.5v9q0 5 -1 10q7 -1 14 -1.5t15 -0.5l-13 -199l91 5v452zM270 459v-182q-7 -2 -14 -2h-13q-25 0 -43.5 8t-31 21t-18.5 30t-6 35t6 34.5t17.5 30t29 21.5t41.5 8q8 0 16 -1t16 -3z" />
    <glyph glyph-name="FL329" horiz-adv-x="685" 
d="M241 11q24 -6 47 -8.5t45 -2.5q80 0 143.5 33t107.5 86.5t67.5 121t23.5 137.5q0 64 -22.5 125t-66.5 109t-110.5 77t-153.5 29q-75 0 -133 -30.5t-97.5 -80.5t-60 -114t-20.5 -131q0 -55 14 -109t42.5 -100.5t71.5 -83.5t102 -58zM281 93q-38 6 -66 30t-47 58.5
t-28 77.5t-9 88q0 51 12 100.5t35.5 88.5t59 63t82.5 24q63 0 110 -22t78 -55.5t46.5 -74.5t15.5 -78q0 -54 -21 -108.5t-56.5 -97.5t-82.5 -70t-98 -27q-16 0 -31 3zM505 461q-6 22 -21.5 39.5t-37 29.5t-47 18.5t-51.5 6.5q-42 0 -73.5 -16t-53 -43.5t-32.5 -63.5t-11 -76
q0 -39 10.5 -72t30 -57t47.5 -37t62 -13q32 0 67 11.5t68 34.5l-41 81q-17 -14 -42 -25.5t-48 -11.5q-17 0 -29 9t-20 23t-11.5 31t-3.5 33q0 18 5 36t16.5 31.5t28.5 22t41 8.5q18 0 28 -6t15.5 -13.5t7.5 -14t3 -7.5z" />
    <glyph glyph-name="FL0410h" horiz-adv-x="548" 
d="M90 603l72 5l-152 -592l126 -7l42 209l164 6l41 -227l155 3l-233 710l-215 -1v-106zM260 537l71 -216l-137 -2z" />
    <glyph glyph-name="FL0412h" horiz-adv-x="414" 
d="M10 4q22 -1 47 -2t53 -1q60 0 113.5 9t93.5 33t63.5 65.5t23.5 107.5q0 53 -24 104.5t-78 88.5q38 35 55.5 69t17.5 65q0 43 -28.5 79.5t-73.5 63t-101.5 41.5t-112.5 15q-25 0 -49 -3v-735zM117 359q14 2 26.5 3.5t23.5 1.5q37 0 64 -11t45 -29t27 -41.5t9 -47.5
q0 -26 -9.5 -50.5t-28.5 -44t-47 -31.5t-65 -12q-24 0 -52 6zM111 638q36 0 65.5 -3t49.5 -12t31 -25t11 -41q0 -49 -36.5 -75.5t-99.5 -26.5h-14q-6 0 -14 1z" />
    <glyph glyph-name="FL0421h" horiz-adv-x="554" 
d="M532 491q-50 103 -110.5 147.5t-123.5 44.5q-56 0 -107.5 -30t-91.5 -80.5t-64 -115t-24 -133.5q0 -52 18.5 -107.5t53 -101.5t83 -75.5t108.5 -29.5q37 0 74.5 10.5t72.5 28.5t66 42.5t57 51.5l-62 83q-39 -42 -85.5 -70.5t-94.5 -28.5q-34 0 -64.5 19.5t-53 49.5
t-36 67.5t-13.5 73.5q0 43 13.5 83t36.5 71t53.5 49.5t64.5 18.5q32 0 66 -20t66 -66z" />
    <glyph glyph-name="FL0415h" horiz-adv-x="545" 
d="M14 -10l520 15l1 175l-98 22l-19 -101l-270 -7l11 240l196 7l8 104h-202l1 154h344v100l-476 -1l18 -607l-38 -1z" />
    <glyph glyph-name="FL041Dh" horiz-adv-x="492" 
d="M360 687l-2 -292l-167 -18l-8 314l-169 -20l-4 -128l78 11l12 -572l109 9l-3 286l165 1l5 -280l106 -2l-15 690z" />
    <glyph glyph-name="FL041Ah" horiz-adv-x="618" 
d="M273 350q7 -29 15 -66.5t19 -77.5t26 -78.5t37 -69t52 -49t70 -18.5q31 0 53.5 15.5t36 40.5t20 55t6.5 59l-94 34q-4 -7 -6 -23.5t-5 -34t-7 -31t-11 -13.5q-26 0 -42 22.5t-26 57.5t-15.5 75.5t-11.5 77.5t-14.5 63.5t-22.5 32.5h-2l218 221l-72 70l-296 -293l8 298
l-199 -10v-100l97 2l-30 -606l100 -8l19 305z" />
    <glyph glyph-name="FL041Ch" horiz-adv-x="799" 
d="M10 556l114 -2v-472l-51 4v-113l185 -7l-9 120h-25l10 394l135 -334h-27v-100l178 2v100l-40 -2l153 272l14 -317l-25 1l-6 -100l173 8v100l-42 -2l-20 562l-108 -14l-200 -339l-122 382l-279 14z" />
    <glyph glyph-name="FL041Eh" horiz-adv-x="554" 
d="M270 -1q65 0 116 32t86 83.5t53.5 118t18.5 135.5q0 62 -18 125t-53.5 114t-88.5 83.5t-124 32.5q-60 0 -106 -33t-78 -86t-48.5 -121t-16.5 -137q0 -66 15.5 -128t47.5 -111t81 -78.5t115 -29.5zM245 92q-30 1 -52 21t-36 52t-21 73.5t-7 85.5q0 54 10 107t29 95.5
t47.5 69t65.5 26.5q44 0 76 -18.5t53 -48t31 -65t10 -69.5q0 -38 -8.5 -77t-23 -75.5t-34.5 -68.5t-42.5 -56t-47.5 -38t-50 -14z" />
    <glyph glyph-name="FL0420h" horiz-adv-x="462" 
d="M10 577l67 10l-7 -583l125 -4l-18 256q71 4 123 23.5t85.5 48t50 64t16.5 72.5q0 40 -18.5 78.5t-54 69.5t-87.5 51t-119 22l-158 5zM177 592q18 3 34 3q32 0 56 -10.5t40 -27.5t24 -39t8 -46q0 -23 -7.5 -44t-23 -37t-38.5 -26t-53 -10q-21 0 -40 4v233z" />
    <glyph glyph-name="FL0422h" horiz-adv-x="530" 
d="M10 595h177l3 -604l116 -4l-10 630l224 -9l-24 109l-481 -5z" />
    <glyph glyph-name="FL0425h" horiz-adv-x="615" 
d="M491 -11l114 36l-220 366l199 307l-134 18l-151 -240l-137 238l-141 -14l193 -323l-204 -368l130 2l154 285z" />
    <glyph glyph-name="FL0423h" horiz-adv-x="486" 
d="M10 149q55 -78 117 -116.5t122 -38.5q55 0 97.5 26.5t71 66.5t43 87t14.5 88q0 36 -4.5 76.5t-11.5 87.5q-6 39 -8.5 66.5t-3 58t-1.5 71t-4 103.5l-102 -14q2 -34 4 -58t2 -43q0 -26 -9 -59.5t-26.5 -63t-44.5 -50t-63 -20.5q-23 0 -38.5 11.5t-25 29t-14 38.5t-4.5 41
l15 178l-113 -3q-4 -66 -7.5 -114t-3.5 -85q0 -41 12 -78.5t35 -66t57 -45.5t78 -17q41 0 83.5 21t80.5 71q9 -35 14 -67t5 -61q0 -26 -7 -55.5t-21 -54.5t-36 -41.5t-53 -16.5q-21 0 -43 10t-43 25.5t-41.5 35t-39.5 38.5z" />
    <glyph glyph-name="FL0411h" horiz-adv-x="420" 
d="M111 638l41 1l258 -9v109l-394 -1q-4 0 -6 1v-735q22 -1 47 -2t53 -1q60 0 113.5 9t93.5 33t63.5 65.5t23.5 107.5q0 53 -24 104.5t-78 88.5q-35 17 -82 27t-116 20zM117 359q14 2 26 3.5t24 1.5q37 0 64 -11t45 -29.5t27 -42t9 -47.5q0 -26 -9.5 -50.5t-28.5 -43.5
t-47 -31t-65 -12q-24 0 -52 6z" />
    <glyph glyph-name="FL0413h" horiz-adv-x="517" 
d="M16 601h34l5 -539h-45l9 -92l199 -1l-1 98h-58v536l348 -10v109l-491 -1v-100z" />
    <glyph glyph-name="FL0414h" horiz-adv-x="640" 
d="M19 412q12 24 21 40t18 29.5t21 27t30 31.5q34 19 55.5 27t38.5 8l4 -474l-74 -18l-13 -83h97q110 0 188 24.5t128 65.5t73.5 94t23.5 111q0 68 -30.5 136t-85 122.5t-131 88.5t-169.5 34q-32 0 -61 -9t-55.5 -24.5t-48.5 -36t-39 -42.5zM308 560q56 -5 99 -26.5
t72 -54.5t43.5 -73.5t14.5 -82.5q0 -41 -14 -79.5t-42.5 -69t-72 -50.5t-101.5 -23z" />
    <glyph glyph-name="FL0416h" horiz-adv-x="969" 
d="M624 357q7 -29 15 -66.5t19 -77.5t26 -78.5t37 -69t52 -49t70 -18.5q31 0 53.5 15.5t36 40.5t20 55t6.5 59l-94 34q-4 -7 -6 -23.5t-5 -34t-7 -31t-11 -13.5q-26 0 -42 22.5t-26 57.5t-15.5 75.5t-11.5 77.5t-14.5 63.5t-22.5 32.5h-2l218 221l-72 70l-296 -293l8 298
l-199 -10v-100l97 2l-10 -197l-266 293l-79 -70l195 -221h-2q-17 -6 -28 -32.5t-20 -63.5t-18.5 -77.5t-22.5 -75.5t-31.5 -57.5t-46.5 -22.5q-8 0 -10.5 13.5t-3.5 31t-1.5 34t-3.5 23.5l-98 -34q0 -29 3.5 -59t14 -54.5t30 -40.5t50.5 -16q40 0 72 18.5t57.5 49t44.5 69.5
t34.5 79t27 77.5t22.5 65.5l71 -49l-13 -305l94 7h8l19 305z" />
    <glyph glyph-name="FL0417h" horiz-adv-x="474" 
d="M38 152l58 39q8 -33 27 -64t46 -55.5t60 -39t69 -14.5q37 0 67.5 14.5t52.5 37t33.5 49t11.5 49.5q0 29 -10.5 58.5t-28.5 57.5t-41 52t-47 43q30 18 52.5 32.5t37.5 28.5t22.5 29.5t7.5 35.5q0 38 -15 73t-40.5 61.5t-60 42.5t-73.5 16q-31 0 -62 -7.5t-59 -21
t-51.5 -33t-38.5 -42.5l65 -69q28 35 69.5 53.5t78.5 18.5q30 0 52 -12.5t22 -38.5q0 -20 -15 -44t-37 -48t-47.5 -46t-46.5 -38l-12 -1q26 -14 55 -37t54 -50t41 -54.5t16 -49.5t-14 -34t-35 -12q-18 0 -39.5 10t-41.5 31t-36.5 54.5t-25.5 80.5l-149 -48z" />
    <glyph glyph-name="FL0418h" horiz-adv-x="661" 
d="M637 -36v100h-52l1 510l65 -2v100l-235 3l-222 -478l18 398l25 -4l12 100l-239 5v-100h77l-15 -558l164 -26l240 574l9 -522h-29v-100h181z" />
    <glyph glyph-name="FL0419h" horiz-adv-x="661" 
d="M637 -36v100h-52l1 510l65 -2v100l-235 3l-222 -478l18 398l25 -4l12 100l-239 5v-100h77l-15 -558l164 -26l240 574l9 -522h-29v-100h181zM210 904q-2 -12 -3.5 -22.5t-1.5 -20.5q0 -33 11.5 -57t30 -40.5t42.5 -24.5t49 -8t49 8t43 24t30.5 40t11.5 56q0 22 -8 52
l-100 -3v-26q0 -21 -6 -37.5t-29 -16.5q-8 0 -12 6t-5.5 16.5t-2.5 24.5t-2 31z" />
    <glyph glyph-name="FL041Bh" horiz-adv-x="648" 
d="M553 725l-234 -11q-42 -32 -71 -76t-50 -95t-35 -107.5t-25 -114.5t-21 -115t-23 -110l-76 6l-8 -100l179 7q18 80 32.5 158t31 155t38 154t54.5 155q28 17 53 20.5t54 3.5l40 -635l146 -9z" />
    <glyph glyph-name="FL041Fh" horiz-adv-x="492" 
d="M14 671l-4 -128l78 11l12 -572l109 9l-3 577l165 1l5 -571l106 -2l-15 690z" />
    <glyph glyph-name="FL042Fh" horiz-adv-x="521" 
d="M511 577l-5 114h-150q-70 0 -124 -20t-91.5 -53t-57 -74.5t-19.5 -83.5q0 -56 34.5 -105t108.5 -76q4 -4 5.5 -12t1.5 -19q0 -19 -4.5 -43.5t-12 -46t-17.5 -36.5t-20 -15q-19 3 -28 15.5t-13 32t-5.5 44.5t-4.5 53l-98 -20q0 -39 8 -80.5t26 -76t46 -56.5t68 -22
q36 0 64 23t46.5 57.5t28 76t9.5 77.5v14t-1 13q9 -1 18.5 -1.5t19.5 -0.5l-18 -256l118 6v581zM344 592v-233q-10 -2 -19.5 -3t-17.5 -1q-31 0 -54.5 10.5t-39 27.5t-23.5 38.5t-8 44.5q0 22 7.5 44t23 38.5t38.5 27t54 10.5q20 0 39 -4z" />
    <glyph glyph-name="FL042Eh" horiz-adv-x="822" 
d="M538 -1q65 0 116 32t86 83.5t53.5 118t18.5 135.5q0 62 -17.5 125t-53 114t-89 83t-124.5 32q-53 0 -95.5 -25.5t-73.5 -68.5t-50.5 -99.5t-26.5 -117.5h-90l2 186l92 3l-4 100l-272 -3v-100h84l-5 -481l-71 -8l16 -98l246 8v100h-91l2 200h88q2 -63 19.5 -120.5
t50 -101.5t80 -70.5t109.5 -26.5zM513 92q-30 1 -52 21t-36 52t-21 73.5t-7 85.5q0 54 10 107t29 95.5t47.5 69t65.5 26.5q44 0 76 -18.5t53 -48t31 -65t10 -69.5q0 -38 -8.5 -77t-23 -75.5t-34.5 -68.5t-42.5 -56t-47.5 -38t-50 -14z" />
    <glyph glyph-name="FL042Dh" horiz-adv-x="554" 
d="M189 306h228q-1 -34 -17 -66t-40 -57t-53 -40.5t-55 -15.5q-48 0 -94.5 28.5t-85.5 70.5l-62 -83q25 -27 56.5 -51.5t66.5 -42.5t72 -28.5t75 -10.5q60 0 108.5 29.5t83 75.5t53 101.5t18.5 107.5q0 69 -24 133.5t-64 115t-92 80.5t-107 30q-63 0 -123.5 -44.5
t-110.5 -147.5l97 -18q32 46 66 65.5t66 19.5q29 0 55.5 -13.5t48 -37t37 -54.5t22.5 -66h-225v-81z" />
    <glyph glyph-name="FL042Ch" horiz-adv-x="462" 
d="M10 113l5 -113l158 5q67 2 119 22t87.5 51t54 69.5t18.5 78.5q0 37 -16.5 72.5t-50 64t-85.5 47.5t-123 24l18 256l-125 -4l7 -583zM177 98v233q19 4 40 4q30 0 53 -10t38.5 -26t23 -37.5t7.5 -43.5q0 -24 -8 -46t-24 -39t-40 -27.5t-56 -10.5q-16 0 -34 3z" />
    <glyph glyph-name="FL042Ah" horiz-adv-x="490" 
d="M10 590h89l6 -588l96 3q67 2 119 22t87.5 51t54 69.5t18.5 78.5q0 37 -16.5 72.5t-50 64t-85.5 47.5t-123 24l18 256l-213 -6v-94zM205 98v233q19 4 40 4q30 0 53 -10t38.5 -26t23 -37.5t7.5 -43.5q0 -24 -8 -46t-24 -39t-40 -27.5t-56 -10.5q-16 0 -34 3z" />
    <glyph glyph-name="FL042Bh" horiz-adv-x="703" 
d="M10 113l5 -113l158 5q67 2 119 22t87.5 51t54 69.5t18.5 78.5q0 37 -16.5 72.5t-50 64t-85.5 47.5t-123 24l18 256l-125 -4l7 -583zM417 582h84l-5 -588l191 9v100h-91l5 479l92 3l-4 100l-272 -3v-100zM177 98v233q19 4 40 4q30 0 53 -10t38.5 -26t23 -37.5t7.5 -43.5
q0 -24 -8 -46t-24 -39t-40 -27.5t-56 -10.5q-16 0 -34 3z" />
    <glyph glyph-name="FL0424h" horiz-adv-x="667" 
d="M390 689l-108 -6l-6 -77q-67 -4 -117 -23.5t-83 -49.5t-49.5 -67.5t-16.5 -77.5q0 -37 16 -72t48.5 -63.5t82 -48.5t117.5 -26l-5 -178l134 -7l-10 182q68 6 117.5 26t82 48.5t48.5 63.5t16 72q0 40 -16.5 77.5t-49.5 67.5t-83 49.5t-117 23.5zM125 393q0 25 11.5 47.5
t32.5 38.5t51.5 25.5t68.5 9.5l-15 -236q-75 0 -112 32t-37 83zM542 390q0 -51 -37.5 -82.5t-112.5 -32.5v236q70 0 110 -35t40 -86z" />
    <glyph glyph-name="FL0427h" horiz-adv-x="483" 
d="M432 -1q21 73 31 130t10 118q0 62 -5.5 112.5t-12 97.5t-12 96t-5.5 108v64l-100 -14q2 -34 4 -58t2 -43q0 -26 -9 -59.5t-26.5 -63t-44.5 -50t-63 -20.5q-23 0 -38.5 11.5t-25 29t-14 38.5t-4.5 41q0 43 7.5 88t7.5 90l-113 -3q-4 -66 -7.5 -114t-3.5 -85
q0 -41 12 -78.5t35 -66t57 -45.5t78 -17q41 0 83.5 21t80.5 71q10 -40 10 -88q0 -41 -4 -82.5t-8.5 -82t-8.5 -77.5t-4 -68z" />
    <glyph glyph-name="FL0426h" horiz-adv-x="562" 
d="M548 -3l4 128l-98 -11l-12 572l-109 -9l3 -577l-165 -1l-5 571l-141 7l-15 -86l52 -2l13 -607z" />
    <glyph glyph-name="FL0429h" horiz-adv-x="830" 
d="M816 -3l4 128l-98 -11l-12 572l-109 -9l3 -577h-164l2 578l-109 -9l3 -577l-165 -1l-5 571l-141 7l-15 -86l52 -2l13 -607z" />
    <glyph glyph-name="FL0428h" horiz-adv-x="732" 
d="M722 -5l-12 691l-109 -9l3 -577h-164l2 578l-109 -9l3 -577l-165 -1l-5 571l-141 7l-15 -86l52 -2l13 -607z" />
    <glyph glyph-name="FL0430h" horiz-adv-x="634" 
d="M354 454q0 -23 -10 -53q-39 14 -75 14q-50 0 -96.5 -21t-82.5 -56t-58 -79.5t-22 -92.5q0 -39 14 -72t39 -56.5t59.5 -36.5t76.5 -13q45 0 94 16t99 48l9 -53l223 32l-23 120l-135 -25q-7 14 -9.5 35.5t-2.5 49.5q0 30 2 64.5t4 67t4 60.5t2 47zM222 99q-48 0 -76 21.5
t-28 64.5q0 25 10.5 46t27.5 36.5t38.5 24t44.5 8.5q15 0 36 -7.5t39.5 -22.5t32 -37t13.5 -50q0 -19 -21.5 -34.5t-47.5 -26.5t-47.5 -17z" />
    <glyph glyph-name="FL0441h" 
d="M468 404q-42 63 -98 91.5t-114 28.5q-46 0 -90 -17t-78.5 -49.5t-55.5 -79.5t-21 -106q0 -74 19 -125.5t52 -84t77 -47t94 -14.5q59 0 121 18t119 50l-56 84q-38 -17 -81.5 -32t-85.5 -15q-23 0 -48 9t-46 27.5t-34.5 47t-13.5 67.5q0 27 11.5 54.5t31.5 49t47 35.5
t57 14q21 0 43 -8t44 -26z" />
    <glyph glyph-name="FL0435h" horiz-adv-x="578" 
d="M512 186q-29 -13 -63 -28.5t-69.5 -29.5t-70.5 -23.5t-65 -9.5q-45 0 -71.5 27.5t-26.5 99.5l393 59q0 70 -20 120.5t-53.5 82t-78.5 46.5t-96 15q-68 0 -120 -21t-88 -59.5t-54.5 -92t-18.5 -119.5q0 -60 16.5 -110t47.5 -85t76.5 -54.5t102.5 -19.5q72 0 153 28.5
t162 82.5zM153 332q0 28 13 49.5t34.5 36t48.5 21.5t55 7q23 0 45 -5.5t39 -16t28 -27t13 -38.5z" />
    <glyph glyph-name="FL043Fh" horiz-adv-x="507" 
d="M12 392q24 2 46 3t32 1h8l-28 -402l100 -6l24 321q40 57 78 85t67 28q34 0 46 -36t12 -90q0 -38 -4 -81.5t-9 -85t-9 -78.5t-4 -62l95 -9q12 72 21.5 150t9.5 152q0 45 -5 88t-21.5 77t-48.5 55t-85 21q-38 0 -74.5 -12.5t-62.5 -35.5v45l-190 -22z" />
    <glyph glyph-name="FL043Eh" horiz-adv-x="574" 
d="M324 -48q52 0 96 16t76 44.5t49.5 67t17.5 83.5q0 43 -22 92.5t-58.5 92t-85 70.5t-102.5 28t-105.5 -23t-91.5 -60.5t-64 -85.5t-24 -97q0 -37 15.5 -68t41 -56.5t58.5 -44.5t68 -32.5t69 -20t62 -6.5zM291 67q-28 1 -60.5 7.5t-60 20.5t-46 36t-18.5 53q0 26 15 51.5
t40 46t56 33t63 12.5q30 0 58 -17t49 -42t33.5 -54t12.5 -52q0 -24 -12 -42t-31.5 -30t-45 -17.5t-53.5 -5.5z" />
    <glyph glyph-name="FL0442h" horiz-adv-x="682" 
d="M10 512l4 -100l89 -1l-31 -383l100 -6l28 342q4 24 27 36t47 12q18 0 31.5 -7.5t13.5 -22.5l-9 -364l115 7l2 326q3 27 17 38.5t32 11.5q31 0 49 -24t28 -61t13 -83t3 -89v-77q0 -34 -1 -56l104 9v107q0 31 -1.5 71.5t-6.5 83.5t-15 84.5t-27.5 74t-44 52.5t-64.5 20
q-26 0 -54 -8.5t-54 -23.5q-12 27 -36 38.5t-53 11.5q-28 0 -56.5 -8t-48.5 -20l-4 20z" />
    <glyph glyph-name="FL0440h" horiz-adv-x="635" 
d="M189 -300l4 340q36 -17 76 -25.5t81 -8.5q54 0 103.5 14.5t88 42.5t61 69t22.5 94q0 49 -22 92t-59 75t-84.5 51t-98.5 19q-39 0 -78.5 -12.5t-75.5 -39.5l-8 67l-189 10l6 -133l94 2l-54 -659zM328 120q-21 0 -40.5 5t-35 15t-25 25t-9.5 36q0 27 19 53t48 46t63.5 32.5
t65.5 12.5q43 0 66.5 -27.5t23.5 -67.5q0 -30 -16 -54t-41.5 -41t-57 -26t-61.5 -9z" />
    <glyph glyph-name="FL0438h" horiz-adv-x="544" 
d="M32 538q-6 -58 -14 -126.5t-8 -136.5q0 -53 8.5 -101.5t29.5 -86t57 -60t92 -22.5q47 0 92 16t73 44l12 -59l160 3l-14 141l-84 -31l3 424l-100 1l-6 -323q-20 -48 -53.5 -74.5t-68.5 -26.5q-27 0 -45 10.5t-28.5 28.5t-14.5 42t-4 52q0 54 7.5 123.5t11.5 154.5z" />
    <glyph glyph-name="FL0445h" horiz-adv-x="566" 
d="M471 -20l85 71l-207 193l180 172l-70 70l-180 -170l-183 177l-72 -70l181 -175l-195 -181l70 -72l194 182z" />
    <glyph glyph-name="FL0443h" horiz-adv-x="497" 
d="M35 -171q70 -75 131 -114t118 -39q52 0 90.5 25.5t63.5 64.5t37 85t12 86q0 48 -7.5 100t-15.5 109q-6 39 -10 76t-7.5 79t-6 91.5t-5.5 112.5l-100 -14q6 -46 10 -88t4 -80q0 -40 -6.5 -76t-23 -63t-45 -43t-71.5 -16q-19 0 -35 7.5t-26 26.5q-11 22 -15 54.5t-4 69.5
q0 57 4 113.5t4 98.5l-113 -3q-3 -54 -5 -102t-2 -91q0 -57 7 -110t27.5 -93.5t57.5 -65t96 -24.5q41 0 83.5 21t80.5 71q12 -48 22 -94t10 -87q0 -23 -5.5 -46.5t-17.5 -42.5t-31 -31t-45 -12q-23 0 -46.5 9.5t-46.5 24.5t-44.5 34t-40.5 38z" />
    <glyph glyph-name="FL0434h" horiz-adv-x="502" 
d="M123 -109l-83 -62q70 -75 131 -114t118 -39q52 0 90.5 25.5t63.5 64.5t37 85t12 86q0 48 -7.5 100t-15.5 109q-4 28 -7 48.5t-5 39.5t-3 37.5t-1 41.5q0 56 -17 93.5t-46.5 60t-69.5 32t-86 9.5q-26 0 -64 -14.5t-73 -40t-60 -60.5t-25 -75q0 -81 6 -139.5t26 -97
t57.5 -57t102.5 -18.5q41 0 83.5 21t80.5 71q12 -48 22 -94t10 -87q0 -23 -5.5 -46.5t-17.5 -42.5t-31 -31t-45 -12q-23 0 -46.5 9.5t-46.5 24.5t-44.5 34t-40.5 38zM208 125q-29 1 -45 16t-24 37t-10 48.5t-2 51.5q0 26 9 50.5t24.5 43.5t37 30.5t46.5 11.5q17 0 36 -5.5
t35.5 -16t27.5 -27t11 -37.5q0 -41 -6 -78t-22.5 -64.5t-45 -44t-72.5 -16.5z" />
    <glyph glyph-name="FL0439h" horiz-adv-x="544" 
d="M32 538q-6 -58 -14 -126.5t-8 -136.5q0 -53 8.5 -101.5t29.5 -86t57 -60t92 -22.5q47 0 92 16t73 44l12 -59l160 3l-14 141l-84 -31l3 424l-100 1l-6 -323q-20 -48 -53.5 -74.5t-68.5 -26.5q-27 0 -45 10.5t-28.5 28.5t-14.5 42t-4 52q0 54 7.5 123.5t11.5 154.5zM98 688
q-2 -12 -3.5 -22.5t-1.5 -20.5q0 -54 31.5 -79.5t73.5 -25.5q28 0 56.5 10.5t51.5 31t37.5 50t14.5 67.5q0 26 -7 53l-100 -3q0 -42 -7.5 -61t-34.5 -19q-8 0 -17.5 4.5t-11.5 25.5z" />
    <glyph glyph-name="FL043Ah" horiz-adv-x="532" 
d="M161 618l-151 -33l13 -100l48 10l22 -515l100 2l-9 225l172 -197l166 5l-9 111l-116 -13q-29 27 -49 51t-32 44t-17.5 34t-5.5 22q0 38 19.5 70.5t48 58.5t60 46t55.5 34q-15 9 -29 22.5t-27 26.5t-23.5 24t-18.5 17q-21 -6 -47 -27.5t-52.5 -55t-50 -76.5t-39.5 -91z
" />
    <glyph glyph-name="FL0437h" horiz-adv-x="558" 
d="M96 -178l-86 -71q54 -59 125 -86.5t143 -27.5q53 0 101.5 14.5t86 43t60 70.5t22.5 96q0 33 -10.5 63.5t-33 54.5t-57.5 39t-85 17q75 31 102.5 79.5t27.5 114.5q0 48 -24.5 89.5t-58.5 72.5t-70 49t-59 18q-47 0 -81 -4t-60.5 -13t-49.5 -24.5t-47 -39.5q0 -25 9 -46
t17 -56q29 34 74 58.5t90 24.5q29 0 57 -10t50.5 -27t36.5 -40.5t14 -50.5q0 -43 -16 -70t-38 -43.5t-43.5 -26t-33.5 -18.5l-20 -66q36 -14 68 -31.5t56 -39t38 -47.5t14 -58q0 -20 -12.5 -35.5t-32.5 -27t-46.5 -17.5t-54.5 -6q-47 0 -93.5 18t-79.5 60z" />
    <glyph glyph-name="FL0436h" horiz-adv-x="773" 
d="M402 621l-97 -3l14 -305q-23 48 -52.5 91t-60 76.5t-59.5 55t-51 27.5q-7 -6 -16.5 -17t-20.5 -24t-23.5 -26.5t-25.5 -22.5q28 -14 65 -34t69.5 -46t55 -58t22.5 -71q0 -8 -3.5 -22t-12.5 -34t-25.5 -44t-42.5 -51l-117 13l6 -111l167 -5l145 197l22 -226l92 3l-17 213
l161 -184l166 5l-9 111l-116 -13q-29 27 -49 51t-32 44t-17.5 34t-5.5 22q0 38 20 70.5t48.5 58.5t60 46t54.5 34q-15 9 -29 22.5t-27 26.5t-23.5 24t-18.5 17q-21 -6 -47 -27.5t-52.5 -55t-50 -76.5t-39.5 -91z" />
    <glyph glyph-name="FL043Bh" horiz-adv-x="645" 
d="M222 11l26 96l-48 12l142 225l110 -241h-67v-100l247 -3l3 116l-58 -3l-187 386l-84 8l-242 -388l-42 6l-12 -100z" />
    <glyph glyph-name="FL043Dh" horiz-adv-x="555" 
d="M161 619l-151 -33l13 -100l48 10l22 -515l100 2l-9 225l187 2l-9 -225l100 -2l22 515l48 -10l13 100l-151 33l-28 -300q-41 -4 -90 -2t-88 4z" />
    <glyph glyph-name="FL0433h" horiz-adv-x="490" 
d="M47 2l203 -20l-2 89l-38 6l-6 323l222 -7l54 94l-462 10l-8 -97l93 -7l-2 -311h-48z" />
    <glyph glyph-name="FL043Ch" horiz-adv-x="577" 
d="M10 388l81 -2v-337l-36 3v-81l132 -5l-6 86h-18l7 281l96 -238h-19v-72l127 2v71l-28 -1l109 194l10 -227l-18 1l-4 -71l124 5v72l-30 -2l-15 402l-77 -10l-143 -242l-87 273l-199 10z" />
    <glyph glyph-name="FL0431h" horiz-adv-x="360" 
d="M113 410l169 15v74l-268 -1q-3 0 -4 1v-499q11 -2 24 -3t28 -1q42 0 92.5 8.5t93.5 27.5t72 48.5t29 71.5q0 55 -24 92t-60 59t-77 31.5t-75 10.5v65zM115 241q18 3 34 3q50 0 74 -27t24 -60q0 -17 -6.5 -34t-19.5 -30.5t-32 -21.5t-44 -8q-18 0 -35 4z" />
    <glyph glyph-name="FL0432h" horiz-adv-x="364" 
d="M10 1q58 -3 107 -3q58 0 102.5 6.5t74.5 22.5t45 43.5t15 70.5q0 18 -11 36t-28 35t-37 32.5t-38 28.5q12 11 27.5 16.5t29.5 13.5t24 23t10 44q0 64 -65 97t-211 33h-45v-499zM114 239q18 3 34 3q50 0 74 -27t24 -60q0 -17 -6.5 -34t-19.5 -30t-31.5 -21t-43.5 -8
q-18 0 -35 4zM110 428h14q43 0 67.5 -11.5t24.5 -43.5t-25 -50.5t-67 -18.5h-9t-9 1z" />
    <glyph glyph-name="FL044Dh" 
d="M186 222h183q-19 -66 -55 -91t-81 -25q-42 0 -85.5 15t-81.5 32l-56 -84q57 -32 119 -50t121 -18q49 0 93 14.5t77 47t52.5 84t19.5 125.5q0 60 -21 107t-55.5 79t-78.5 49t-90 17q-58 0 -114 -28.5t-98 -91.5l106 -28q22 18 44 26t43 8q24 0 45.5 -9t39.5 -23.5
t31.5 -34t21.5 -40.5h-180v-81z" />
    <glyph glyph-name="FL044Eh" horiz-adv-x="735" 
d="M10 441v-470l136 10l-15 208h40q0 -57 34.5 -101.5t84 -74.5t103 -45.5t92.5 -15.5q52 0 96 16t76 44.5t49.5 67t17.5 83.5q0 43 -22 92.5t-58.5 92t-85 70.5t-102.5 28q-40 0 -78.5 -13t-72.5 -35t-61.5 -52t-45.5 -64h-74l-11 151zM452 67q-28 1 -60.5 7.5t-60 20.5
t-46 36t-18.5 53q0 26 15 51.5t40 46t56 33t63 12.5q30 0 58 -17t49 -42t33.5 -54t12.5 -52q0 -24 -12 -42t-31.5 -30t-45 -17.5t-53.5 -5.5z" />
    <glyph glyph-name="FL044Fh" horiz-adv-x="410" 
d="M400 447l-4 89h-115q-54 0 -97 -15.5t-72 -41t-44.5 -57.5t-15.5 -65q0 -43 27.5 -82t84.5 -60q5 -7 5 -23q0 -15 -3.5 -34t-9.5 -36.5t-13.5 -29t-15.5 -11.5q-15 3 -22 12.5t-10.5 24.5t-4.5 34.5t-3 41.5l-76 -15q0 -31 6.5 -63.5t20 -59t35.5 -43.5t53 -17
q28 0 50 18t36.5 45.5t22 60t7.5 60.5v9q0 5 -1 10q7 -1 14 -1.5t15 -0.5l-13 -199l91 5v452zM270 459v-182q-7 -2 -14 -2h-13q-25 0 -43.5 8t-31 21t-18.5 30t-6 35t6 34.5t17.5 30t29 21.5t41.5 8q8 0 16 -1t16 -3z" />
    <glyph glyph-name="FL0444h" horiz-adv-x="783" 
d="M364 -311h2v-4l107 2l-24 340q60 -29 121 -29q45 0 82 14t64 40t42 62.5t15 80.5q0 54 -21 102.5t-55 85t-77 58t-87 21.5q-32 0 -62.5 -12.5t-56.5 -40.5l7 69h-90l18 -67q-29 28 -61 40.5t-64 12.5q-41 0 -79.5 -19t-68 -51.5t-47.5 -76.5t-18 -93q0 -48 16.5 -89
t46.5 -71t70.5 -47t88.5 -17q63 0 119 30zM585 86q-24 0 -48 19t-43 45.5t-30.5 55t-11.5 47.5q0 25 8.5 45.5t23 35t33.5 22.5t40 8q19 0 39.5 -12t37.5 -30t28.5 -39.5t11.5 -41.5q0 -45 -5 -74.5t-15.5 -47.5t-27.5 -25.5t-41 -7.5zM252 115q-24 0 -49.5 9t-46.5 26.5
t-34 42t-13 55.5q0 17 4 34t13 31t22.5 22.5t32.5 8.5q25 0 53 -12.5t51.5 -33t39 -47t15.5 -53.5q0 -39 -26.5 -61t-61.5 -22z" />
    <glyph glyph-name="FL0446h" horiz-adv-x="573" 
d="M437 -146h83l43 286l-127 -21l3 424l-100 1l-6 -323q-20 -48 -53.5 -74.5t-68.5 -26.5q-27 0 -45 10.5t-28.5 28.5t-14.5 42t-4 52q0 54 7.5 123.5t11.5 154.5l-106 7q-6 -58 -14 -126.5t-8 -136.5q0 -53 8.5 -101.5t29.5 -86t57 -60t92 -22.5q47 0 92 16t73 44l12 -59
l63 1v-153z" />
    <glyph glyph-name="FL0449h" horiz-adv-x="880" 
d="M744 -146h83l43 286l-127 -21l3 424l-100 1l-6 -323q-19 -50 -52 -76.5t-68 -26.5q-28 0 -46 11t-28.5 30t-15 44t-4.5 54q0 55 7.5 126.5t11.5 155.5l-106 -1q-6 -59 -14 -128t-8 -137q0 -22 1 -42.5t4 -40.5q-20 -38 -49.5 -58.5t-60.5 -20.5q-27 0 -45 10.5
t-28.5 28.5t-15 42.5t-4.5 52.5q0 54 7.5 123.5t11.5 154.5l-106 7q-6 -58 -14 -126.5t-8 -136.5q0 -53 8.5 -101.5t29.5 -86t57 -60t92 -22.5q49 0 94 15t80 50q23 -30 57.5 -43.5t75.5 -13.5q47 0 92 16t73 44l12 -59l63 1v-153z" />
    <glyph glyph-name="FL0448h" horiz-adv-x="808" 
d="M798 7l-25 114l-30 -2l3 424l-100 1l-6 -323q-19 -50 -52 -76.5t-68 -26.5q-28 0 -46 11t-28.5 30t-15 44t-4.5 54q0 55 7.5 126.5t11.5 155.5l-106 -1q-6 -62 -13 -134t-7 -143q0 -37 3 -71q-20 -38 -49.5 -58.5t-60.5 -20.5q-27 0 -45 10.5t-28.5 28.5t-15 42.5
t-4.5 52.5q0 54 7.5 123.5t11.5 154.5l-106 7q-6 -58 -14 -126.5t-8 -136.5q0 -54 8.5 -103t29.5 -86t57 -59t92 -22q49 0 94 15t80 50q10 -14 24 -24q21 -17 49.5 -25t59.5 -8q47 0 92 16t73 44l12 -59z" />
    <glyph glyph-name="FL0447h" horiz-adv-x="505" 
d="M161 619l-151 -33l13 -100l40 10q3 -36 3.5 -70t3 -66.5t9.5 -64t23 -62.5q42 -25 80 -36.5t74 -11.5q29 0 57.5 6.5t57.5 18.5l-9 -225l100 -2l33 615l-101 23l-28 -300q-20 -12 -38.5 -18.5t-39.5 -6.5q-40 0 -100 27z" />
    <glyph glyph-name="FL044Ch" horiz-adv-x="430" 
d="M151 555l-113 24l-28 -595l85 -1l5 55q26 -40 69.5 -60t90.5 -20q73 0 116.5 42t43.5 114q0 45 -19 80t-50.5 59.5t-72.5 37.5t-85 13q-31 0 -61 -6zM249 42q-24 0 -48 7.5t-43.5 20.5t-32 31t-12.5 40q0 30 21.5 55t55.5 25q24 0 50 -10t47 -26t35 -36t14 -41
q0 -17 -8 -29t-20.5 -20.5t-28 -12.5t-30.5 -4z" />
    <glyph glyph-name="FL044Ah" horiz-adv-x="498" 
d="M10 466h65l3 -482l85 -1l5 55q26 -40 69.5 -60t90.5 -20q73 0 116.5 42t43.5 114q0 45 -19 80t-50.5 59.5t-72.5 37.5t-85 13q-31 0 -61 -6l12 279l-202 -26v-85zM317 42q-24 0 -48 7.5t-43.5 20.5t-32 31t-12.5 40q0 15 6 29.5t16.5 26t24.5 18.5t31 7q24 0 49.5 -10
t47 -26.5t35 -36.5t13.5 -41q0 -17 -8 -29t-20.5 -20.5t-28 -12.5t-30.5 -4z" />
    <glyph glyph-name="FL044Bh" horiz-adv-x="597" 
d="M151 555l-113 24l-28 -595l85 -1l5 55q26 -40 69.5 -60t90.5 -20q73 0 116.5 42t43.5 114q0 45 -19 80t-50.5 59.5t-72.5 37.5t-85 13q-31 0 -61 -6zM449 512l2 -512l136 10l-35 494zM249 42q-24 0 -48 7.5t-43.5 20.5t-32 31t-12.5 40q0 30 21.5 55t55.5 25q24 0 50 -10
t47 -26t35 -36t14 -41q0 -17 -8 -29t-20.5 -20.5t-28 -12.5t-30.5 -4z" />
    <glyph glyph-name="FL0401h" horiz-adv-x="545" 
d="M14 -10l520 15l1 175l-98 22l-19 -101l-270 -7l11 240l196 7l8 104h-202l1 154h344v100l-476 -1l18 -607l-38 -1zM195 789q17 15 23.5 29t6.5 28t-7 26.5t-18 21.5t-25 14.5t-29 5.5t-28 -6.5t-22.5 -17t-15 -24t-5.5 -26.5q0 -15 5.5 -28t15 -23t22.5 -16t27 -6
q12 0 25 5t25 17zM410 798q17 15 23.5 29t6.5 28t-7 26.5t-18 21.5t-25 14.5t-29 5.5t-28 -6.5t-22.5 -17t-15 -24t-5.5 -26.5q0 -15 5.5 -28t15 -23t22.5 -16t27 -6q12 0 25 5t25 17z" />
    <glyph glyph-name="FL0451h" horiz-adv-x="578" 
d="M512 186q-29 -13 -63 -28.5t-69.5 -29.5t-70.5 -23.5t-65 -9.5q-45 0 -71.5 27.5t-26.5 99.5l393 59q0 70 -20 120.5t-53.5 82t-78.5 46.5t-96 15q-68 0 -120 -21t-88 -59.5t-54.5 -92t-18.5 -119.5q0 -60 16.5 -110t47.5 -85t76.5 -54.5t102.5 -19.5q72 0 153 28.5
t162 82.5zM153 332q0 28 13 49.5t34.5 36t48.5 21.5t55 7q23 0 45 -5.5t39 -16t28 -27t13 -38.5zM206 646q17 15 23.5 29t6.5 28t-7 26.5t-18 21.5t-25 14.5t-29 5.5t-28 -6.5t-22.5 -17t-15 -24t-5.5 -26.5q0 -15 5.5 -28t15 -23t22.5 -16t27 -6q12 0 25 5t25 17zM421 655
q17 15 23.5 29t6.5 28t-7 26.5t-18 21.5t-25 14.5t-29 5.5t-28 -6.5t-22.5 -17t-15 -24t-5.5 -26.5q0 -15 5.5 -28t15 -23t22.5 -16t27 -6q12 0 25 5t25 17z" />
    <glyph glyph-name="FL0458h" horiz-adv-x="382" 
d="M145 279l126 11l-19 -431q-9 -42 -25.5 -68.5t-33.5 -26.5q-15 0 -28.5 13t-23 34t-15.5 48t-7 56l-109 -29q1 -50 15 -95.5t39 -81t61 -56.5t82 -21q33 0 61 18t48.5 48t32.5 69.5t12 83.5l11 540l-212 4zM311 434q31 8 43.5 23.5t12.5 34.5q0 13 -6 26.5t-16 24.5
t-23 17.5t-28 6.5q-17 0 -30 -6.5t-22 -16.5t-13.5 -22.5t-4.5 -23.5q0 -25 17 -46t48 -21q10 0 22 3z" />
    <glyph glyph-name="FL0408h" horiz-adv-x="469" 
d="M28 302q-2 -12 -3.5 -24t-1.5 -24q0 -52 19.5 -97t51 -78.5t71 -52.5t80.5 -19q56 0 93 34t58.5 85.5t30.5 111t9 110.5q0 72 -4.5 143.5t0.5 142.5l27 1l-4 100l-445 -14v-126l312 34q5 -80 6.5 -141t1.5 -108q0 -74 -2 -122.5t-11.5 -77t-29.5 -40.5t-56 -12
q-21 0 -40.5 13t-34 35t-23 51.5t-8.5 62.5v13t1 13z" />
    <glyph glyph-name="FL0405h" horiz-adv-x="496" 
d="M38 152l58 39q8 -33 27 -64t46 -55.5t60 -39t69 -14.5q37 0 67.5 14.5t52.5 37t33.5 48.5t11.5 49q0 25 -8.5 51.5t-22.5 51.5t-33 47.5t-40 41.5q-21 18 -53 39t-62 44.5t-51.5 47.5t-21.5 48q0 28 24.5 41t56.5 13q41 0 86.5 -18.5t77.5 -54.5l70 70q-17 24 -42.5 44
t-56 34.5t-64.5 22t-67 7.5q-41 0 -77 -14t-63.5 -39t-43.5 -59.5t-16 -75.5q0 -46 26.5 -77t63 -54.5t74.5 -42t60 -39.5q38 -37 54.5 -66.5t16.5 -51.5t-14 -34t-35 -12q-18 0 -39.5 10t-42 31t-37 54.5t-24.5 80.5l-149 -48z" />
    <glyph glyph-name="FL0455h" horiz-adv-x="521" 
d="M509 414q-72 72 -135.5 103t-114.5 31q-33 0 -62.5 -12.5t-51.5 -33.5t-34.5 -49.5t-12.5 -60.5q0 -47 31.5 -90.5t97.5 -72.5q34 -15 62.5 -31t49.5 -32t33 -31t12 -29t-9.5 -24.5t-22 -18t-25 -11t-19.5 -3.5q-26 0 -49.5 16t-44.5 37.5t-39 44t-33 34.5l-132 -74
l58 -82l63 31q14 -29 36.5 -50t49.5 -35.5t56.5 -21.5t59.5 -7q35 0 67 10.5t57 30t39.5 48t14.5 64.5q0 47 -28.5 92.5t-84.5 71.5q-27 12 -59.5 25t-60 28t-46 32.5t-18.5 38.5q0 20 14.5 37t37.5 17q18 0 40.5 -8.5t45 -22t44 -30.5t39.5 -33z" />
    <glyph glyph-name="FL0454h" 
d="M316 222v81h-180q7 21 21 40.5t32 34t39.5 23.5t45.5 9q21 0 43 -8t44 -26l106 28q-42 63 -98 91.5t-114 28.5q-46 0 -90 -17t-78.5 -49t-55.5 -79t-21 -107q0 -74 19 -125.5t52 -84t77 -47t94 -14.5q59 0 121 18t119 50l-56 84q-38 -17 -81.5 -32t-85.5 -15
q-45 0 -81 25t-55 91h183z" />
    <glyph glyph-name="FL0404h" horiz-adv-x="554" 
d="M363 306v81h-225q7 35 22.5 66t37 54.5t48 37t55.5 13.5q32 0 66 -19.5t66 -65.5l97 18q-50 103 -110.5 147.5t-123.5 44.5q-56 0 -107.5 -30t-91.5 -80.5t-64 -115t-24 -133.5q0 -52 18.5 -107.5t53 -101.5t83 -75.5t108.5 -29.5q37 0 74.5 10.5t72.5 28.5t66 42.5
t57 51.5l-62 83q-39 -42 -85.5 -70.5t-94.5 -28.5q-26 0 -55 15.5t-53 40.5t-40 57t-17 66h228z" />
    <glyph glyph-name="FL00D0h" horiz-adv-x="462" 
d="M10 577l67 10l-7 -583l125 -4l-18 256q71 4 123 23.5t85.5 48t50 64t16.5 72.5q0 40 -18.5 78.5t-54 69.5t-87.5 51t-119 22l-158 5zM177 592q18 3 34 3q32 0 56 -10.5t40 -27.5t24 -39t8 -46q0 -23 -7.5 -44t-23 -37t-38.5 -26t-53 -10q-21 0 -40 4v233z" />
    <glyph glyph-name="FL00D7h" horiz-adv-x="483" 
d="M432 -1q21 73 31 130t10 118q0 62 -5.5 112.5t-12 97.5t-12 96t-5.5 108v64l-100 -14q2 -34 4 -58t2 -43q0 -26 -9 -59.5t-26.5 -63t-44.5 -50t-63 -20.5q-23 0 -38.5 11.5t-25 29t-14 38.5t-4.5 41q0 43 7.5 88t7.5 90l-113 -3q-4 -66 -7.5 -114t-3.5 -85
q0 -41 12 -78.5t35 -66t57 -45.5t78 -17q41 0 83.5 21t80.5 71q10 -40 10 -88q0 -41 -4 -82.5t-8.5 -82t-8.5 -77.5t-4 -68z" />
    <glyph glyph-name="FL00DDh" horiz-adv-x="554" 
d="M189 306h228q-1 -34 -17 -66t-40 -57t-53 -40.5t-55 -15.5q-48 0 -94.5 28.5t-85.5 70.5l-62 -83q25 -27 56.5 -51.5t66.5 -42.5t72 -28.5t75 -10.5q60 0 108.5 29.5t83 75.5t53 101.5t18.5 107.5q0 69 -24 133.5t-64 115t-92 80.5t-107 30q-63 0 -123.5 -44.5
t-110.5 -147.5l97 -18q32 46 66 65.5t66 19.5q29 0 55.5 -13.5t48 -37t37 -54.5t22.5 -66h-225v-81z" />
    <glyph glyph-name="FL00DEh" horiz-adv-x="822" 
d="M538 -1q65 0 116 32t86 83.5t53.5 118t18.5 135.5q0 62 -17.5 125t-53 114t-89 83t-124.5 32q-53 0 -95.5 -25.5t-73.5 -68.5t-50.5 -99.5t-26.5 -117.5h-90l2 186l92 3l-4 100l-272 -3v-100h84l-5 -481l-71 -8l16 -98l246 8v100h-91l2 200h88q2 -63 19.5 -120.5
t50 -101.5t80 -70.5t109.5 -26.5zM513 92q-30 1 -52 21t-36 52t-21 73.5t-7 85.5q0 54 10 107t29 95.5t47.5 69t65.5 26.5q44 0 76 -18.5t53 -48t31 -65t10 -69.5q0 -38 -8.5 -77t-23 -75.5t-34.5 -68.5t-42.5 -56t-47.5 -38t-50 -14z" />
    <glyph glyph-name="FL00F0h" horiz-adv-x="635" 
d="M189 -300l4 340q36 -17 76 -25.5t81 -8.5q54 0 103.5 14.5t88 42.5t61 69t22.5 94q0 49 -22 92t-59 75t-84.5 51t-98.5 19q-39 0 -78.5 -12.5t-75.5 -39.5l-8 67l-189 10l6 -133l94 2l-54 -659zM328 120q-21 0 -40.5 5t-35 15t-25 25t-9.5 36q0 27 19 53t48 46t63.5 32.5
t65.5 12.5q43 0 66.5 -27.5t23.5 -67.5q0 -30 -16 -54t-41.5 -41t-57 -26t-61.5 -9z" />
    <glyph glyph-name="FL00FDh" 
d="M186 222h183q-19 -66 -55 -91t-81 -25q-42 0 -85.5 15t-81.5 32l-56 -84q57 -32 119 -50t121 -18q49 0 93 14.5t77 47t52.5 84t19.5 125.5q0 60 -21 107t-55.5 79t-78.5 49t-90 17q-58 0 -114 -28.5t-98 -91.5l106 -28q22 18 44 26t43 8q24 0 45.5 -9t39.5 -23.5
t31.5 -34t21.5 -40.5h-180v-81z" />
    <glyph glyph-name="FL00FEh" horiz-adv-x="735" 
d="M10 441v-470l136 10l-15 208h40q0 -57 34.5 -101.5t84 -74.5t103 -45.5t92.5 -15.5q52 0 96 16t76 44.5t49.5 67t17.5 83.5q0 43 -22 92.5t-58.5 92t-85 70.5t-102.5 28q-40 0 -78.5 -13t-72.5 -35t-61.5 -52t-45.5 -64h-74l-11 151zM452 67q-28 1 -60.5 7.5t-60 20.5
t-46 36t-18.5 53q0 26 15 51.5t40 46t56 33t63 12.5q30 0 58 -17t49 -42t33.5 -54t12.5 -52q0 -24 -12 -42t-31.5 -30t-45 -17.5t-53.5 -5.5z" />
    </font>
</defs>
</svg>
